<svg width="104" height="104" viewBox="0 0 104 104" fill="none" xmlns="http://www.w3.org/2000/svg">
<path d="M72.0417 69.6469C60.6912 75.1042 46.4812 74.0433 36.0427 66.9982C25.6041 59.9496 19.3148 47.1857 20.0451 34.6143C20.7754 22.043 28.9395 10.8923 39.6324 4.2433C49.2753 -1.7517 63.1328 -1.57367 76.2854 5.92553C76.4526 6.02 77.3973 6.22346 76.3291 6.3797C71.5476 7.08093 68.274 11.8987 64.6661 15.1106C61.9883 17.4941 59.0199 19.4779 55.9243 21.2873C52.0693 23.5399 47.7711 23.4963 43.7344 23.4673C38.9857 23.4309 36.3224 25.2839 34.3314 27.8273C34.1315 28.0852 34.0879 27.8454 34.2187 27.5475C38.3026 18.1263 46.7937 10.4454 56.7236 8.23997C57.0506 8.1673 56.9888 7.6768 56.6509 7.69133C49.8675 7.96383 42.7825 10.2492 38.219 15.2741C32.987 21.0329 30.0513 28.5975 29.8006 36.4201C29.5499 44.2427 34.7746 51.7419 41.4709 55.8294C44.6319 57.7587 48.4251 58.9504 52.0511 58.2165C54.6453 57.6933 56.9961 56.2254 59.6121 55.8294C63.805 55.1935 67.8452 57.3626 71.6675 59.2047C73.4914 60.084 74.7595 61.5373 77.39 61.3157C83.8682 60.7671 86.368 58.5108 82.8327 61.9152C82.6947 62.0496 75.7441 67.8775 72.0381 69.6615L72.0417 69.6469Z" fill="#117D6F"/>
<path d="M0 94.8005C0 90.4405 3.5534 86.9525 7.848 86.9525C10.7256 86.9525 13.4288 88.5875 14.824 91.2035L11.009 92.6859C9.8754 91.0945 8.0878 90.7675 6.7144 91.2035C5.1012 91.7049 4.0548 93.1219 4.0548 94.8005C4.0548 96.4791 5.123 97.8961 6.7144 98.3975C8.066 98.8335 9.8536 98.5065 10.9872 96.9369L14.8022 98.4193C13.0582 101.624 10.355 102.627 7.9788 102.627C3.4444 102.583 0.0436 99.3349 0 94.8005Z" fill="#117D6F"/>
<path d="M17.4836 98.0487L21.8872 87.1487H25.6586L30.1494 98.2013C31.5228 101.58 31.937 102.365 31.937 102.365V102.409H27.2064V102.365C27.2064 102.365 27.577 102.387 26.7486 100.185L26.6178 99.8581H20.9498L20.819 100.229C19.9906 102.431 20.3394 102.365 20.3394 102.365V102.409H15.6088V102.365C15.6088 102.365 16.0448 101.58 17.4836 98.0487ZM23.7838 91.3997L22.3014 95.8033H25.2662L23.7838 91.3997Z" fill="#117D6F"/>
<path d="M33.7246 97.8743V91.6831C33.7246 87.4103 33.6156 87.1923 33.6156 87.1923V87.1487H39.785C43.0768 87.1487 45.3658 89.2633 45.3658 92.2935C45.3658 94.1247 44.4938 95.6289 43.0768 96.5445C43.3166 96.8497 43.5782 97.1331 43.8616 97.3947C44.581 98.0705 45.4312 98.3539 46.434 98.3539V102.409C44.8208 102.409 43.5564 101.995 42.5536 101.428C41.2238 100.665 38.477 97.4383 38.1064 97.4383H37.7794V97.8525C37.7794 102.147 37.8666 102.365 37.8666 102.365V102.409H33.6156V102.365C33.6156 102.365 33.7246 102.147 33.7246 97.8743ZM41.311 92.2935C41.311 91.9665 41.311 91.2035 39.785 91.2035H37.7794V93.3835H39.785C40.1338 93.3835 41.311 93.3181 41.311 92.2935Z" fill="#117D6F"/>
<path d="M48.7448 97.9615V91.5959C48.7448 87.4321 48.6358 87.1923 48.6358 87.1923V87.1487H55.481C58.4894 87.1487 60.6694 88.9363 60.6694 91.4215C60.6694 92.6859 60.1898 93.6451 59.623 94.2119C60.4732 94.7787 61.4106 96.3265 61.4106 97.9179C61.4106 100.621 58.969 102.409 55.481 102.409H48.6358V102.365C48.6358 102.365 48.7448 102.125 48.7448 97.9615ZM56.6146 92.2063C56.6146 91.5523 56.135 91.2035 55.1322 91.2035H52.7996V93.0129H55.481C56.3312 93.0129 56.6146 92.6641 56.6146 92.2063ZM52.7996 98.3539H55.481C56.4184 98.3539 57.3558 98.0705 57.3558 97.2203C57.3558 96.3047 56.3966 95.9777 55.481 95.9777H52.7996V98.3539Z" fill="#117D6F"/>
<path d="M67.8779 83.3882C67.8779 83.3882 67.8925 83.3628 67.8925 83.3555C67.8925 83.3483 67.867 83.341 67.8525 83.3446C65.6689 84.1621 64.0411 86.3276 63.1691 88.4386C62.6786 87.2577 62.388 85.9388 62.6023 84.6781C62.933 82.6834 64.488 81.3354 66.421 80.9503C68.016 80.6741 69.5674 80.22 71.0571 79.5333C71.3114 81.8877 71.2787 84.8961 69.2259 86.4766C68.8662 86.7527 68.4738 86.9634 68.0523 87.1342C66.6026 87.7192 65.2256 88.4095 63.8595 89.2161C64.2591 88.0789 64.786 87.0288 65.4436 86.0515C65.9268 85.3393 66.4646 84.6817 67.0822 84.0822C67.3402 83.8351 67.6018 83.6026 67.8816 83.3846L67.8779 83.3882Z" fill="#117D6F"/>
<path d="M68.2667 93.8704C68.2667 89.2415 71.3659 84.1658 78.1675 83.8896C83.643 83.8896 88.1265 88.355 88.1265 93.8704C88.1265 99.3858 83.6466 103.851 78.1675 103.851C71.3623 103.575 68.2667 98.4993 68.2667 93.8704ZM82.9817 93.8704C82.9817 91.2108 80.8235 89.0453 78.1675 89.0453C74.8757 89.1834 73.3824 91.6504 73.3824 93.8704C73.3824 96.0904 74.8757 98.5574 78.1675 98.6955C80.8235 98.6955 82.9817 96.5336 82.9817 93.8704Z" fill="#117D6F"/>
<path d="M90.2956 97.7654V91.3998C90.2956 87.2142 90.1866 86.9962 90.1866 86.9962V86.9526H93.7763L99.1936 94.6044V91.4434C99.1936 87.2142 99.1064 86.9962 99.1064 86.9962V86.9526H103.259V86.9962C103.259 86.9962 103.15 87.2142 103.15 90.9856V102.213H99.844L94.3395 94.6262V97.7218C94.3395 101.951 94.4485 102.169 94.4485 102.169V102.213H90.1866V102.169C90.1866 102.169 90.2956 101.951 90.2956 97.7654Z" fill="#117D6F"/>
</svg>
