<?xml version="1.0" encoding="UTF-8"?>
<svg id="Calque_1" xmlns="http://www.w3.org/2000/svg" version="1.1" viewBox="0 0 104 109">
  <!-- Generator: Adobe Illustrator 29.1.0, SVG Export Plug-In . SVG Version: 2.1.0 Build 142)  -->
  <defs>
    <style>
      path {
        shape-rendering: geometricPrecision;
        vector-effect: non-scaling-stroke;
        stroke-width: .35px;
        stroke-linecap: round;
        stroke-linejoin: round;
      }

      .st0 {
        fill: #117d6f;
        stroke: #117d6f;
      }

      .st1 {
        fill: #4d9271;
        stroke: #4d9271;
      }

      .st2 {
        fill: #d2eacd;
        stroke: #d2eacd;
      }

      .st3 {
        fill: #377a65;
        stroke: #377a65;
      }

      .st4 {
        fill: #fbfcf8;
        stroke: #fbfcf8;
      }

      .st5 {
        fill: #9dca87;
        stroke: #9dca87;
      }

      .st6 {
        fill: #84bb83;
        stroke: #84bb83;
      }

      .st7 {
        fill: #1a4d3c;
        stroke: #1a4d3c;
      }

      .st8 {
        fill: #6faa74;
        stroke: #6faa74;
      }

      .st9 {
        fill: #277369;
        stroke: #277369;
      }

      .st10 {
        fill: #154939;
        stroke: #154939;
      }

      .st11 {
        fill: #e7f4e3;
        stroke: #e7f4e3;
      }
    </style>
  </defs>
  <path class="st7" d="M8.1,45.4s0,0,0,0c-.2,0-.7,0-.9,0l-.2.6c0,0,.1,0,.2.1,0,0-.1,0-.2-.1l1.1-.7ZM9.4,52.4c.3,0,.6-.1.9-.2-.3.1-.6.2-.9.2ZM9.8,50.6c-.1,0-.2,0-.4,0,0,0,.1,0,.2.2.5,0,1.2.6,1.5.9-.2-.3-.8-1.1-1.3-1.1ZM10.4,36.9c0,.2-.1.4-.2.6,0-.2,0-.4.2-.6h0s0,0,0,0ZM10.1,48.1c.2.3.4.6.4,1h0s0,0,0,0c0-.4-.2-.7-.5-1ZM11,34.6c-.1.2-.2.4-.3.6,0-.2.2-.4.3-.6h0ZM11.1,51.7c-.3.2-.5.4-.8.5.3-.1.6-.3.8-.5h0ZM11.4,50c0,.1,0,.3,0,.4h0c0-.1,0-.3,0-.4ZM12.8,39.4h0c0,.1,0,.2.2.3,0-.1-.1-.2-.2-.3ZM13.7,41.2h0c0,0,0-.2,0-.2,0,0,0,.2,0,.2l.9,2.8h0l-.9-2.8ZM13.7,46.8c0,0,.1,0,.2,0h0c0,0-.1,0-.2,0ZM14.7,44.7c.1.5.2.9.3,1.4-.1-.5-.2-1-.3-1.4ZM15,46.1c0,.2,0,.3.1.5h0c0-.2,0-.3-.1-.5ZM21.8,58.3c0,.2,0,.7,0,.9,0,0,0,0,0,0,0-.3-.1-.7-.2-.9ZM40.4,6.5h-1.7s1.7,0,1.7,0c.1,0,.3,0,.5,0-.1,0-.3,0-.5,0ZM44.2,10.8c-.9.3-1.8.4-2.5.4.8,0,1.6,0,2.5-.4h0ZM43.4,7.8h0s1.1,1.8,1.1,1.8h0l-1.1-1.8ZM47.4,6.5h0v-.5s0,.5,0,.5ZM47.5,6h0c0,0,0-.2,0-.3,0,0,0,.2,0,.3ZM48.4,9l-.2,1h0l.2-1h0ZM50.1,13.2c.3,0,.5,0,.8-.1h0c-.3,0-.5,0-.8.1ZM50.9,13.1h0l.3-.4-.3.4Z"/>
  <path class="st10" d="M24.3,57.9h0l-.2.7h0s0,0,0,0l.2-.7s0,0,0,0ZM25.9,71.2c0,0-.1,0-.2,0,0,0,0,0,.2,0,.2,0,.5,0,.7,0-.2,0-.4,0-.7-.1ZM31,103.8h0c0,0,.1-.2.2-.3,0,0-.1.2-.2.3ZM32.8,102.1c.6-.4,1.3-.7,1.9-1-.7.3-1.3.7-1.9,1ZM33.4,42.8c0-.7,0-1.4.1-2.1,0,.7-.1,1.4-.1,2.1ZM33.5,40.7c.2-1.4.4-2.8.9-4.2-.4,1.4-.7,2.8-.9,4.2ZM37.1,85.8h0s1.4.4,1.4.4l-1.4-.4ZM39.2,71.6c.2-.1.5-.3.8-.5-.3.2-.5.3-.8.5ZM40.7,70.6c.2-.2.5-.4.8-.6-.3.2-.6.4-.8.6ZM41.3,101.8c-.1,0-.2.2-.3.3,0-.1.2-.2.3-.3h0s0,0,0,0ZM41.3,68.4c0-.5,0-1,0-1.5,0,.5,0,1,0,1.5.3,0,.6-.1.9-.2-.3,0-.5,0-.9.2ZM42,69.6c0,0-.2.1-.2.2,0,0,.2-.1.2-.2,0,0,0,0,0,0,0,0,0,0,0,0ZM41.6,26.2h0c.2-.2.4-.4.6-.5-.2.2-.4.4-.7.5ZM42.3,100.8c0,0,0,.1-.1.2,0,0,0,0,.1-.2h0ZM42.2,25.6c.7-.5,1.3-1,2-1.5-.7.5-1.4,1-2,1.5ZM43,68.2h-.2s0,0,0,0h0c1,.8,1.4,2.2.9,3.5h.2c0,0,0,0,0,0,.5-1.3.1-2.7-.9-3.5ZM44.2,73.4c.2,0,.4,0,.6,0-.2,0-.4,0-.6,0ZM49,89.2l-4-1.5h0s0,0,0,0c0,0,0,0,0,0h0s0,0,0,0l4,1.5c-.2,1.8-.2,3.5-.2,5.2,0-1.7,0-3.4.2-5.2ZM45.5,83.4c-2.5.4-5.1,0-7.6-.8l-2.7.5,2.7-.5c2.5.8,5,1.2,7.6.8.5,0,1-.2,1.4-.4-.4.2-.9.3-1.4.4ZM45.4,28l3.9,1.5h0s-3.9-1.5-3.9-1.5ZM49.3,29.5h0l.2-.2-.2.2ZM49.5,21.5c.4-.1.8-.2,1.2-.3h0c-.4,0-.8.2-1.2.3ZM48.7,72.5c.8,0,1.5.2,2.7,1.3,0,0,.2,0,.2,0-1.2-1.3-2-1.5-2.9-1.3ZM51.8,77.8h0s0-.1.1-.2c0,0,0,.1-.1.2ZM52.4,76.9s-.1,0-.1,0c0,0,0,0,.1,0,.2,0,.4-.1.6-.2-.2,0-.4.1-.6.2ZM51.7,75.7h0s1.3-.6,1.3-.6l-1.3.6ZM53.3,30.5c0,0-.1,0-.2,0,0,0,.1,0,.2,0h0s0,0,0,0ZM56,89.3c0,.7,0,1.5.2,2.2h0c-.2-.7-.3-1.5-.2-2.2ZM56,89.3h0c.2,0,.3,0,.5,0-.2,0-.3,0-.5,0ZM57.9,72.3h0l.5-1-.5,1ZM58.9,88.8c.9-.2,1.8-.5,2.7-.8-.9.3-1.8.5-2.7.8ZM60.2,30.1s-.1,0-.2,0c0,0,0,0,.2,0h0s0,0,0,0ZM60.6,29.6s0,0,0,0c0,0,0,0,0,0h0ZM61,29.8h0c0,0,.1,0,.2,0,0,0-.1,0-.2,0ZM62.2,28.8v.2c0,0,0-.2.1-.2h-.1ZM64.2,87c.8-.4,1.7-.8,2.5-1.3h0c-.9.5-1.7.9-2.6,1.3ZM66.8,56.4c-.2.2-.3.4-.5.5.2-.2.4-.3.5-.5.5-.5,1.1-1,1.7-1.3-.6.3-1.2.8-1.7,1.3ZM67.5,103.2h0s.3,0,.3,0c0,0-.2,0-.3,0ZM72.4,55.7c-2,0-3.5.4-4.9,1.9-2.7,2.8-6.1,4.7-10,5.2h0c3.9-.6,7.3-2.4,10-5.2,1.4-1.4,2.9-1.9,4.9-1.9.1,0,.2,0,.3,0-.1,0-.2,0-.3,0ZM74,104.3c-.3,0-.8,0-1.1,0-.2,0-.4-.2-.6-.2.2,0,.4.2.6.3.3.2.8.2,1.1,0h0s0,0,0,0ZM74.7,103.8h0c0-.1,0-.3,0-.4,0,.1,0,.3,0,.4h0ZM76.5,58.2c0,0-.1-.2-.2-.3,0,.1.2.2.2.3,0,0,0,0,0,0,.1,0,.2-.1.4-.2-.1,0-.2.2-.4.2ZM77.3,60.9h0s.1,0,.2.1c0,0-.2-.1-.2-.1ZM77,56.3c-.1,0-.3,0-.4-.2.1,0,.3.1.4.2h0s.7.2.7.2h0s-.7-.2-.7-.2ZM77.9,53.5c0,0,.1-.1.2-.2h0c0,0-.1.1-.2.2ZM78.5,67.6c0-.3,0-.7.1-1.1,0,.4,0,.7-.1,1.1ZM78.4,68.5s0,0,.1,0c0,0,0,0-.1,0Z"/>
  <path class="st7" d="M77.9,53.5c0,0,.1-.1.2-.2h0c0,0-.1.1-.2.2ZM77,56.3h0s.7.2.7.2h0s-.7-.2-.7-.2ZM74.6,21.1c.1.2.3.4.3.6,0-.2-.2-.4-.3-.6ZM73.8,20.2c0,0,.1.1.2.2h0c0,0-.1-.1-.2-.2ZM72.2,18.8c.5.4,1.1.9,1.6,1.4-.5-.5-1-1-1.6-1.4ZM70.1,27c.5-.3.9-.6,1.3-.9-.4.3-.9.6-1.3.9ZM66.6,27.6c-1.1.4-3.1,1.5-4.4,1.9h0c1.3-.3,3.4-1.4,4.5-1.9h0ZM62.2,28.8v.2c0,0,0-.2.1-.2h-.1ZM57,13h0c.3,0,.7,0,1,.1-.4,0-.7,0-1-.1Z"/>
  <path class="st7" d="M101.4,54.4c0,.2-.1.3-.2.5,0-.2.1-.3.2-.5h0ZM100,49.5s0,0,0,0c0,0,0,0,0,0h0ZM99.4,50h0l-2.7,2.1-.8-.2h-.5c0,0,0,0,0,0h.5c0,0,0,0,0,0l.8.2,2.7-2.1c.2,0,.6-.3.6-.5,0,.2-.4.4-.6.5ZM93.8,59.4c-.9.1-1.6.1-2.7.2h0c1.1,0,1.8,0,2.7-.2.2,0,.4,0,.5,0-.2,0-.4,0-.5,0ZM92.4,49.3c0,.2,0,.4,0,.6h0s-.3,1.8-.3,1.8l.3-1.8c0-.2,0-.4,0-.6ZM92.3,60.5l-1,1,1-1h0ZM91.4,61.5c-.1.1-.2.2-.3.4l.4-.4h0ZM83.3,67.7h0s0,0,0,0c.4-.2.9-.4,1.4-.7-.5.3-.9.5-1.4.7Z"/>
  <path class="st10" d="M57,13h0c-2-.2-4.2-.1-6.1.1h0s.3-.4.3-.4l-.3.4c2-.2,4.2-.3,6.1-.1Z"/>
  <path class="st0" d="M57,13h0c-2-.2-4.2-.1-6.1.1h0c-.3,0-.5,0-.8.1.3,0,.5,0,.8-.1h0c2-.2,4.2-.3,6.1-.1Z"/>
  <path class="st0" d="M58.1,13.1c-.4,0-.7,0-1-.1h0c.3,0,.7,0,1,.1Z"/>
  <path class="st0" d="M73.8,20.2c-.5-.5-1-1-1.6-1.4.5.4,1.1.9,1.6,1.4Z"/>
  <path class="st0" d="M74,20.4h0c0,0-.1-.1-.2-.2,0,0,.1.1.2.2Z"/>
  <path class="st0" d="M75,21.7c0-.2-.2-.4-.3-.6.1.2.3.4.3.6Z"/>
  <path class="st0" d="M22,59.2s0,0,0,0c0-.3,0-.7,0-.9,0,.2.2.7.2.9Z"/>
  <path class="st1" d="M44.5,9.6l-2.8-.9,2.5,2.1h0c-.9.3-1.8.4-2.5.4-.1,0-.3,0-.4,0-.1,0-.2,0-.3,0,0,0-.2,0-.2,0,0,0,0,0-.1,0,0,0-.2,0-.2,0,0,0-.2,0-.2-.1,0,0-.1,0-.2-.1-.2,0-.3-.2-.5-.3-.1,0-.2-.2-.4-.3-.1-.1-.2-.2-.4-.4-.1-.1-.2-.2-.3-.3,0,0-.1-.2-.2-.2,0,0-.1-.2-.2-.2-.1-.1-.2-.3-.3-.5,0-.2-.2-.3-.3-.5-.2-.3-.4-.7-.5-1.1.7-.2,1.2-.2,1.7-.2,0,0,0,0,.1.1,0,0,.2.1.3.1.4.1,1,0,1.8.2.2,0,.5,0,.7.2.5.2,1.1.4,1.7.8h.2c0-.1,0-.1,0-.1l1.1,1.8h0Z"/>
  <path class="st8" d="M9.6,50.8h0c-1.9,0-2.4.3-3.8-.2-.4-.1-.8-.3-1.2-.5v.6c-.6-.6-1.6-1.5-2.2-2.4,0-.1-.2-.3-.2-.4,0,0,0-.1,0-.2,0,0,0-.1,0-.2l.2-.2c0,0,.3.1.4.1.5-.2,1.3-.3,2-.2.2,0,.4,0,.6,0,.1,0,.2,0,.3.1l.6.3h.3c0,.1,0,.1,0,.1.2,0,.4.1.6.1.4,0,.7-.2,1-.5.8.4,1.7.7,2.1,1.5-.6.5-1.4-.5-2.3-.1,0,0-.2,0-.2,0-.1,0-.3,0-.5-.1-.2,0-.4,0-.5,0-.3,0-.6,0-.8,0,.7.3,1.3.7,2,1,.3.2.6.4.9.6.1.1.3.2.5.3.1.1.3.2.4.3,0,0,.1,0,.2.2Z"/>
  <path class="st6" d="M15.3,40c-.3.2-.5.5-.8.7-.3.2-.6.4-.9.6h0s0,0,0,0c0,0,0-.2,0-.2h0c0-.2-.2-.5-.4-.7,0,0,0-.2-.1-.2,0-.1-.1-.2-.2-.4,0-.1-.1-.2-.2-.3,0,0,0,0,0,0v1.7c-.2,0-.5,0-.7,0-.2,0-.4,0-.6,0-.1,0-.2,0-.3,0,0,0-.2,0-.3-.1,0,0-.1-.1-.2-.2-.2-.5-.2-1.2-.5-1.4,0,0,0,0-.2-.1,0-.3,0-.6,0-.9,0-.2,0-.4,0-.6,0,0,0-.2,0-.3,0-.2,0-.4.2-.6h.8c0,.1.1.1.1.1v-1.1h.1c.3,0,.8.2,1.4.8.1.1.3.3.4.4.2.3.5.5.7.8h0c0,.1.2.2.2.3,0,0,.1.2.2.3.5.6.8,1.2,1,1.5Z"/>
  <path class="st8" d="M54.5,5.9c0,.2-.1.4-.2.6,0,.1-.1.2-.2.3,0,.2-.2.4-.3.6,0,0-.1.2-.2.2,0,.1-.1.2-.2.3,0,0-.2.2-.2.3l-.2.2c0,0-.1.1-.2.2,0,0-.1.1-.2.2,0,0-.2.1-.2.2-.2.1-.3.2-.5.3-.1,0-.2,0-.3.1-.1-.2-2-1.2-2.2-1.2.6-1,1.3-2,2.3-2.7h0c.2,0,.4,0,.5,0,0,0,.2,0,.2,0,0,0,.1,0,.2,0,.5.3.8.7,2.1.2Z"/>
  <path class="st6" d="M55.1,2.7c0,1.1-.2,2.2-.6,3.2-1.9.8-1.7-.5-3.1-.4l.4-.7c.4-.2.3-.4-.3-.3-.3-.2-.7-.5-.9-.9l2.4-1c.6-.2,1.2-.6,1.7-.8l.3.8h0Z"/>
  <path class="st8" d="M52,4.7s0,0-.2.1c-1.4.5-3.1,2.3-3.8,3.4-.1.2-.4.5-.7.8-.2-.5-.3-1.7,0-2.3h0s0,0,0,0c0,0,.1,0,.1-.1h0s0-.5,0-.5h0c.1-.1.2-.2.3-.3,0,0,.2-.2.3-.2,0,0,0,0,.1-.1,0,0,0,0,.1,0,0,0,0,0,0,0,0,0,0,0,0,0,.2-.2.2-.3.3-.4,0,0,0,0,0,0,0,0,0,0,0,0,0,0,0,0,0,0h0c0,0,.1-.1.2-.2,0,0,.2-.1.3-.2.3-.1.7-.3,1.2-.5,0,0,0,.1.1.2,0,0,0,0,0,0,0,0,.1.2.2.2,0,0,.2.1.2.2,0,0,0,0,.1,0,0,0,0,0,0,0,0,0,0,0,0,0h0s0,0,0,0c0,0,0,0,0,0,0,0,0,0,0,0,0,0,0,0,.1,0,.1,0,.2,0,.2,0,0,0,0,0,.1,0,0,0,0,0,0,.1Z"/>
  <path class="st1" d="M11.1,51.7c-.3.2-.5.4-.8.5h0c-.3.1-.6.2-.9.2-.8.1-1.6,0-2.3-.2,0,0-.1,0-.2,0-.2,0-.5-.2-.7-.3-.2,0-.3-.1-.4-.2-.1,0-.3-.1-.4-.2-.1,0-.2-.1-.3-.2-.1,0-.2-.2-.3-.2,0,0-.2-.2-.2-.2v-.6h.1c.5.2.9.4,1.2.5,1.4.4,2,.2,3.6,0,.1,0,.2,0,.4,0,.5,0,1.1.8,1.3,1.1,0,0,0,0,0,0h0Z"/>
  <path class="st8" d="M13.5,44.7l-.8-.9c-.2,0-.3-.1-.4-.2s-.2-.1-.3-.2c0,0-.1,0-.2-.1,0,0-.1,0-.2-.1,0,0-.1,0-.2-.1-.3-.3-.3-.5-.5-.6,0,0,0,0-.1,0-.1,0-.3-.1-.6-.1h0c-.2-1.1-.3-2-.2-3.1,0,0,.1,0,.2,0,.3.3.3,1,.5,1.4,0,0,.1.2.2.2,0,0,.2.1.3.1.1,0,.2,0,.3,0,.2,0,.4,0,.6,0,.2,0,.5,0,.7,0,.3.5.5,1.1.6,1.7h0c0,.3,0,.6.1,1,0,.2,0,.3,0,.5,0,.2,0,.3,0,.5Z"/>
  <path class="st5" d="M16.3,44.1c0,0-.3-.4-.3-.6.2-.9-.2-2.7-.7-3.6-.2-.3-.5-.9-1-1.5,0,0-.1-.2-.2-.3,0-.1-.2-.2-.2-.3h0c-.2-.3-.5-.6-.7-.8-.1-.2-.3-.3-.4-.4-.5-.5-1-.9-1.4-.8v1.1h-.3s-.8-.1-.8-.1h0s0,0,0,0c0,0,0-.2,0-.2,0-.3.1-.5.2-.8,0-.2,0-.4.1-.6s.1-.4.3-.6h0c.7.4,1.4.9,2,1.5.2.2.4.4.6.6.2.1.3.3.5.5.3.3.5.7.8,1,.2.3.5.7.7,1.1.2.4.4.8.5,1.1,0,.1,0,.3.1.4,0,0,0,.2,0,.3,0,.2,0,.3.1.5,0,.2,0,.4,0,.6,0,.7,0,1.3,0,2.1Z"/>
  <path class="st1" d="M13.9,46.9h0c0,0-.1,0-.2,0h0c-.2,0-.3-.2-.5-.3,0,0,0,0-.1,0-.2-.1-.4-.3-.6-.4-.2-.1-.3-.3-.5-.4,0,0-.1-.1-.2-.2-.1-.1-.3-.3-.4-.5-.1-.2-.3-.3-.4-.5,0-.1-.1-.2-.2-.3,0-.2-.2-.3-.3-.5-.1-.2-.2-.5-.3-.7h0c0-.2-.2-.5-.2-.7h0c.3,0,.5,0,.6.1,0,0,0,0,.1,0,.2.2.2.4.5.6,0,0,0,0,.2.1,0,0,.1,0,.2.1,0,0,.1,0,.2.1,0,0,.2.1.3.2.1,0,.3,0,.4.2h0s.8.9.8.9c0,0,0,.1.1.2,0,.1.1.3.2.5,0,0,0,.1,0,.2,0,0,0,.1,0,.2,0,.1,0,.3,0,.4,0,.2,0,.5,0,.7Z"/>
  <path class="st8" d="M16,43.6c-.8-.1-.5.8-1.5.5h0l-.9-2.8h0c.3-.2.6-.4.9-.6.3-.2.5-.4.8-.7h0c.5.9.9,2.7.7,3.6Z"/>
  <path class="st6" d="M7.9,47.3c-.3.4-.6.5-1,.5s-.4,0-.6-.1c0,0,0,0,0,0h-.3c0-.1-.6-.4-.6-.4,0,0-.2,0-.3,0-.2,0-.4,0-.6,0-.7,0-1.4,0-2,.2,0,0-.3-.2-.4-.1l-.2.2s0-.1,0-.2c0-.2-.2-.4-.3-.6s-.1-.2-.2-.3c0,0,0,0,0-.1h0c.4,0,.8-.1,1.2-.2.1,0,.3,0,.4,0,.3,0,.5.1.8.2.3,0,.6.1.9.1.1,0,.3,0,.4,0,.3,0,.6,0,.9.2.3,0,.6.2.9.3,0,0,.2,0,.3.1.2.1.5.2.9.4Z"/>
  <path class="st8" d="M13.6,56.5l-1.9.9c-.3,1-1,.6-1,1.5-.7-.1-1.4-.3-2.2-.6.2-.3.4-.5.6-.8,0,0,0,0,0,0,0,0,0,0,0,0,0,0,.2-.2.3-.3,0,0,0,0,0,0,.1,0,.2-.2.4-.2s.2-.1.4-.2,0,0,0,0c0,0,.1,0,.2,0,.1,0,.2,0,.4-.1.1,0,.2,0,.3,0,0,0,0,0,.2,0,0,0,0,0,.1,0,.6,0,1.3,0,1.9.3Z"/>
  <path class="st5" d="M55.1,1.2v1.5l-.3-.8c-.2.1-.5.2-.8.4-.3.1-.6.3-.9.4l-2.4,1c-.6.2-1,.4-1.2.5-.1,0-.2.1-.3.2,0,0-.1,0-.2.1,0,0,0,0,0,0,0,0,0,0,0,0,0,0,0,0,0,0,0,0,0,0,0,0,0,.1-.2.2-.3.4,0,0,0,0,0,0,0,0,0,0,0,0,0,0,0,0-.1,0,0,0,0,0-.1.1,0,0-.2.1-.3.2-.1,0-.2.2-.3.3h0c0,0,0-.2,0-.3,0-.2.1-.4.2-.5,0,0,0-.2.2-.3,0,0,0-.1.1-.2,0,0,.1-.1.2-.2,0,0,.1-.2.2-.2,0,0,.1-.1.2-.2,0,0,.1,0,.2-.2.2-.1.3-.2.5-.3.4-.3.8-.5,1.2-.7.2,0,.4-.2.6-.2l4.1-1.4Z"/>
  <path class="st10" d="M8.1,45.4l-1.1.7h0c0,0-.2,0-.3,0-.1,0-.2,0-.4,0-.2,0-.5,0-.7,0h-2.7c-.1,0-.2,0-.4,0-.4,0-.8.1-1.2.2h0c0-.1,0-.2,0-.3,0,0,0,0,0,0,0,0,0,0,.1,0,0,0,.1,0,.1-.1,0,0,0,0,0,0h0s0,0,0,0l-.2-.3c1.4-.4,2.9-.4,4.4-.4.4,0,1.8.3,2.1.5,0,0,0,0,0,0Z"/>
  <path class="st5" d="M10.6,49.1h0s-.5-.2-.5-.2h0c-.4-.8-1.4-1.2-2.1-1.6-.3-.2-.6-.3-.9-.4,0,0-.2,0-.3-.1-.4-.1-.6-.2-.9-.3-.3,0-.6-.1-.9-.2-.1,0-.2,0-.4,0-.3,0-.5,0-.9-.1-.2,0-.5,0-.8-.2h2.7c.2,0,.5,0,.7,0,.1,0,.2,0,.4,0,.1,0,.2,0,.3,0h0c0,0,.1,0,.2.1.6.3,1.5.7,2.2,1.2.2.1.4.3.5.4.1,0,.2.2.3.3.2.3.4.6.5,1Z"/>
  <path class="st1" d="M14.3,57.1c0,.1,0,.2-.1.3,0,0,0,.2-.1.3,0,0,0,.1-.1.2,0,0,0,0,0,.1,0,0,0,0,0,.1,0,0-.2.1-.2.2,0,0-.2.1-.3.2-.1,0-.3.1-.4.2-.1,0-.3,0-.4.1-.5.1-1.1.1-1.6,0,0-.9.7-.5,1-1.5l2.5-.2Z"/>
  <path class="st1" d="M51.4,9.4c-.3,0-.6.2-.9.3-.1,0-.3.1-.4.2-.1,0-.3.1-.5.2-.2,0-.4,0-.6,0s-.2,0-.3,0c0,0-.2,0-.2,0,0,0-.2,0-.2,0h0l.2-1h0s.8-.8.8-.8c.2,0,2.1.9,2.2,1.2Z"/>
  <path class="st10" d="M101.6,49.2c-.9-.6-1.4-1.5-2.8-1.2l-1.5.3c-.2.2-.5.4-.7.5l-.6.2c-.6.6-1.2.9-2.3,1.4v-1.9c0,0,0,0,0,0-.5-.7-1-1.5-1.7-1.6-1-.2-1.9,0-2.3,1-.3.8-.5,2-1.1,2.7-2.5,3.2.3,4-6,7.3h0s-.8.2-.8.2c-1,.4-2.2.4-3.4.1l-.2-2.2c0-.8,0-1.5,0-2.3,0,0-.2-.3-.2-.4,0,0-.1.1-.2.2,0,0,.1-.2.2-.2-.2-4.7-1.9-13.6-4-18.3-.6-.8-1.2-2.3-1.6-3.1l-.2-.5c-.7-.7-1.2-1.6-1.9-2.7,1.4-1.3,3-2.4,4.8-2.9l.8-.4.8-.4c.4-.4,1.2-.9,1-1.6-1-3.8-7.1-7.8-10.6-9.3,0,0,0,0,0,0,0,0,0,0,.1,0-.4-.1-.8-.3-1.2-.4,0,0,0,0,0,0h0s-.4-.2-.4-.2h0c-.4-.2-.9-.4-1.5-.6l-1.8-.5h-.6v-.2s-.1,0-.2,0c-.6,0-1.6-.2-2.1-.4l-.7-.2c-.5,0-1,0-1.4,0h-5c-.8,0-1.7.3-2.5.5h-2.5c.1-.2.3-.6.5-.8,1.4,0,3,0,4.2-.7,2.9-1.5,4-4.6,4.2-7.7,0-.9-.1-2-.4-2.8h0c-.2,0-.7,0-.9,0-2.8,1.6-6.5,1.4-8.4,4.9-.4.7-.5,2.1-.5,2.9,0,1.2,1.2,3.1.1,3.3l-1.1-3.1c-.3-.3-.6-.8-.8-1.1-2.5-2-5.5-2-8.7-.8.8,2.1,1.9,4.2,3.6,5.4,2,1.4,5.8.3,6,.5.2.1.4.5.4.7l-4.8,1.5-.6.3-1.1.6c-7.6,4.2-13.6,10.5-16.7,18.7l-.2.6-.5,1.3-.4,1.3-.2.6c0,.7-.2,1.4-.6,1.9l-.2,1.1c-.9,5.1-1.1,10.1-.5,15.5-2.2-2-3.7-4.8-4.2-8,2.1-2.6,2.5-5.9,1.3-8.9-.6-1.6-2-2.9-3.3-4l-2.5-1.8c-.2,0-.4-.3-.6-.3-1,2-1.6,4-1.8,6.2-.2,3.5,1.3,6.8,4.5,8.5.6.3.9.9,1.1,1.5.4,1.3.8,2.3,1.2,3.6l-2.5-1.5-.8-1.8c-.9-1.9-2.3-3.4-4.3-4.2l-1.1.7c0,0,.1,0,.2.1.6.3,1.5.7,2.2,1.2.2.1.4.3.5.4.1,0,.2.2.3.3.2.3.4.6.5,1,.1,0,.2.1.3.2,0,0,.1,0,.2.2,0,0,0,0,0,0,0,0,.1.2.2.3,0,0,.1.2.1.3,0,.1,0,.3,0,.4h0l-3.7-1.7c0,0-.1,0-.2,0-.1,0-.3,0-.5-.1-.2,0-.4,0-.5,0-.3,0-.6,0-.8,0,.7.3,1.3.7,2,1,.3.2.6.4.9.6.1,0,.3.2.5.3.1.1.3.2.4.3.1,0,.2,0,.4,0,.5,0,1.1.8,1.3,1.1,0,0,0,0,0,0h0c-.3.2-.5.4-.8.5h0c-.3.1-.6.2-.9.2-.8.1-1.6,0-2.3-.2,0,0-.1,0-.2,0-.2,0-.5-.2-.7-.3-.2,0-.3-.1-.4-.2-.1,0-.3-.1-.4-.2-.1,0-.2-.1-.3-.2-.1,0-.2-.2-.3-.2,0,0-.2-.2-.2-.2-.5-.6-1.5-1.5-2.1-2.4,0-.1-.2-.3-.2-.4,0,0,0-.1,0-.2,0,0,0-.1,0-.2,0,0,0-.1,0-.2,0-.2-.2-.4-.3-.6s-.1-.2-.2-.3c0,0,0,0,0-.1,0-.1,0-.2,0-.3,0,0,0,0,0,0,0,0,0,0,.1,0,0,0,.1,0,.1-.1h0s0,0,0,0h0s0,0,0,0l-.2-.3h0c-.4.1-1.1,0-1.6.4.4,2.2,2.8,5.7,4.6,6.9,3.2,2.1,7.1,0,8.1.3,1.7.7,3,1.8,4.2,3.1-.7.4-1.4.3-2-.2-1.9-1.3-4.3-1-6.1.4-.6.5-1.1,1.4-1.6,2.2,1.3,1,3,1.6,4.7,1.6,1.6,0,2.8-1.5,3.6-2.6,1.2-.7,2.9.3,3.6,1.3.2.3.8,1,1,1.4h0c0,.1.4,1,.4,1-2,4.2-3.1,9.7-1.7,14.1.4,1.2.9,2.6,1.8,3.4l2.7,2.5.5.2c.2,0,.2.3.3.3,0,0,.3,0,.4,0,1.9.7,5.8,1.9,7.9,1.4l2.4,1.5c1.5,3.3,4,9.9,1.7,13.1-.2.2-5.8,3.8-7,5.1,0,.1-.2.3-.2.4l-.2.6v1.5c.4.9,1.6,1.5,2.7,1.2,2-.6,3.6-1.6,6-1.6v1.6c-.2.8.3,1.7.9,2,1.9,1,3.9-1.2,5.5-2.4,1.9-1.3,6.5-1.3,6.1-6.3v-1.1c0,0,0,0,0,0l-.2-1.7c-.2-2.6,0-5,.3-7.6h3.9c.3,2.5.1,5-.4,7.6v1.8c-.1,0-.2,1.3-.2,1.3-.2,3.6,3.1,4.4,5.8,5.1,2.7.7,3.5,1.5,5.8,3,.8.2,1.5,0,2.3-.2.4-.4.9-1,.9-1.5,0-.3,0-.8,0-1.1l-.2-.9c2.7,0,4.8,1.9,7,1,.6-.2.9-1.4.8-1.9,0,0,0-.2,0-.3-.4-.8-2.4-2-2.7-2.4-.2-.3-6.3-3.1-6.8-4.6-1.4-2.6.9-9.4,2-12.2,4.3-3.1,7.2-7.5,8.5-12.5h-.3c0,0,0,0,0,0,0,0,0,0,0,0h.3c0,0,0-.3,0-.3h0c0-.2.1-.4.2-.6l.4-.9h0s1.3,0,1.3,0h0c.2,0,.5,0,.7-.1,1.4,0,3.3-.7,4.2-1.2,3.7-1.6,7.2-4.6,9.7-7.9l2.3-.7c2.6-.7,4.7-2.3,6.1-4.6,1.1-1.8,0-2.7.8-3.1,0-.2,0-.6,0-.9.1-1.4-.8-1.7-1.7-2.2ZM44.5,9.6l-2.8-.9,2.5,2.1h0c-.9.3-1.8.4-2.5.4-.1,0-.3,0-.4,0-.1,0-.2,0-.3,0,0,0-.2,0-.2,0,0,0,0,0-.1,0,0,0-.2,0-.2,0,0,0-.2,0-.2-.1,0,0-.1,0-.2-.1-.2,0-.3-.2-.5-.3-.1,0-.2-.2-.4-.3-.1-.1-.2-.2-.4-.4-.1-.1-.2-.2-.3-.3,0,0-.1-.2-.2-.2,0,0-.1-.2-.2-.2-.1-.1-.2-.3-.3-.5,0-.2-.2-.3-.3-.5-.2-.3-.4-.7-.5-1.1h0c.7-.2,1.2-.3,1.7-.3h1.7c.1,0,.3,0,.5,0,.2,0,.3,0,.4,0,.1,0,.2,0,.3,0,0,0,.1,0,.2,0,0,0,.1,0,.2,0,0,0,.1,0,.2,0,.1,0,.2.1.3.2,0,0,.2.1.3.2.1,0,.2.2.3.3,0,0,.2.2.3.3h0l1.1,1.8h0ZM15.4,46.4h0c0,.1-.2.2-.3.3h0s0,0,0,0c0-.2,0-.3-.1-.5-.1-.5-.2-1-.3-1.4,0-.2,0-.4-.2-.6h0l-.9-2.8c0,0,0-.2,0-.2h0c-.1-.2-.2-.5-.4-.7,0,0,0-.2-.1-.2,0-.1-.1-.2-.2-.4,0-.1-.1-.2-.2-.3v1.7c.3.5.5,1.1.5,1.7h0c0,.3.1.6.1,1,0,.2,0,.3,0,.5,0,.2,0,.3,0,.5,0,0,0,.1,0,.2,0,.1.1.3.2.5,0,0,0,.1,0,.2,0,0,0,.1,0,.2,0,.1,0,.3,0,.4,0,.2,0,.5,0,.7h0c0,0-.1,0-.2,0h0c-.2,0-.3-.2-.5-.3,0,0,0,0-.1,0-.2-.1-.4-.3-.6-.4-.2-.1-.3-.3-.5-.4,0,0-.1-.1-.2-.2-.1-.1-.3-.3-.4-.5-.1-.2-.3-.3-.4-.5,0-.1-.1-.2-.2-.3,0-.2-.2-.3-.3-.5-.1-.2-.2-.5-.3-.7h0c0-.2-.2-.5-.2-.7h0c-.2-1.1-.3-2-.2-3.1h0c0-.3,0-.6,0-.9,0-.2,0-.4,0-.6,0,0,0-.2,0-.3,0-.2,0-.4.2-.6h0c0,0,0-.2,0-.2,0-.3.1-.5.2-.8,0-.2,0-.4.1-.6s.1-.4.3-.6h0c.7.4,1.4.9,2,1.5.2.2.4.4.6.6.2.1.3.3.5.5.3.3.6.7.8,1,.2.3.5.7.7,1.1.2.4.4.8.5,1.1,0,.1,0,.3.1.4,0,0,0,.2,0,.3,0,.2,0,.3.1.5,0,.2,0,.4,0,.6,0,.7,0,1.3,0,2.1,0,.2,0,.4-.1.6,0,.2-.1.4-.2.6,0,0,0,.2,0,.2,0,.2-.2.3-.3.5,0,0-.1.2-.2.3ZM14.2,57.4c0,0,0,.2-.1.3,0,0,0,.1-.1.2,0,0,0,0,0,.1,0,0,0,0,0,.1,0,0-.2.1-.2.2,0,0-.2.1-.3.2-.1,0-.3.1-.4.2-.1,0-.3,0-.4.1-.5.1-1.1.1-1.6,0-.7-.1-1.4-.3-2.2-.6.2-.3.4-.5.6-.8,0,0,0,0,0,0,0,0,0,0,0,0,0,0,.2-.2.3-.3,0,0,0,0,0,0,.1,0,.2-.2.4-.2.1,0,.2-.1.4-.2,0,0,0,0,0,0,0,0,.1,0,.2,0,.1,0,.2,0,.4-.1.1,0,.2,0,.3,0,0,0,0,0,.2,0,0,0,0,0,.1,0,.6,0,1.3,0,1.9.3l-1.9.9,2.5-.2c0,.1,0,.2-.1.3ZM74.2,24.8c-.2,0-.4.2-.6.3-.2,0-.4.2-.6.3-.2.1-.5.2-.8.4-.1,0-.3.2-.4.2-.1,0-.3.2-.4.2-.4.3-.9.6-1.3.9-.2.2-.4.3-.7.5h0s-.8-1.2-.8-1.2l3.3-1.4c.8-.4,1.8-.5,2.8-.4-.2,0-.4.2-.6.2ZM66.5,14.2h0s0,0,0,0c0,0-.1,0-.2,0,0,0,.1,0,.2,0ZM47.2,6.7h0s0,0,0,0h.1c0-.1,0-.1,0-.1v-.5c0,0,0-.2,0-.3,0-.2.1-.4.2-.5,0,0,0-.2.2-.3,0,0,0-.1.1-.2,0,0,.1-.1.2-.2,0,0,.1-.2.2-.2,0,0,.1-.1.2-.2,0,0,.1,0,.2-.2.2-.1.3-.2.5-.3.4-.3.8-.5,1.2-.7.2,0,.4-.2.6-.2l4.1-1.4h0v1.5c0,1.1-.2,2.2-.6,3.2,0,.2-.1.4-.2.6,0,.1-.1.2-.2.3,0,.2-.2.4-.3.6,0,0-.1.2-.2.2,0,.1-.1.2-.2.3,0,0-.2.2-.2.3,0,0-.1.2-.2.2,0,0-.1.1-.2.2,0,0-.2.1-.2.2,0,0-.2.1-.2.2-.2.1-.3.2-.5.3-.1,0-.2,0-.3.1-.3,0-.6.2-.9.3-.1,0-.3.1-.4.2-.1,0-.3.1-.5.2-.2,0-.4,0-.6,0s-.2,0-.3,0c0,0-.2,0-.2,0,0,0-.2,0-.2,0h0l.2-1h0s.8-.8.8-.8c.6-1,1.3-2,2.3-2.7l.4-.7h0c-1.4.4-3.1,2.3-3.8,3.4-.1.2-.4.5-.7.8-.2-.5-.3-1.7,0-2.3ZM28.4,81.5c0,0-.2,0-.3,0-2.4-.5-4.4-1.6-5.8-3.1-.4-.4-.7-.8-1-1.2-.1-.2-.3-.4-.4-.7,0,0,0,0,0,0-.1-.2-.2-.5-.3-.7-.1-.2-.2-.5-.3-.8,0-.3-.2-.5-.2-.8,0-.3-.1-.6-.2-.9,0-.3,0-.6-.1-.9h0c-.2-2.4,0-4.8.8-7.1,0-.3.2-.5.2-.8,0-.1,0-.3.1-.4.1-.3.3-.7.4-1,0-.2.2-.4.3-.7h0c.1-.2.2-.4.3-.6,0-.2.2-.4.3-.5.1-.3.3-.5.5-.8.1-.2.2-.4.4-.5.3-.4.6-.8.9-1.1h0s.2-.7.2-.7c-.2,0-.3,0-.5,0h0c0,0-.1,0-.2,0h0c0,0-.1,0-.2.1,0,0-.2.1-.2.2,0,0,0,0-.1.1,0,0,0,0-.1.1,0,0,0,0-.1.1,0,0-.2.2-.2.2h0c-.2.2-.4.3-.5.3h0c0-.3,0-.7,0-.9l-.5-2.5h0c-.5-2.3-.2-11.8.7-14.9l.4-1.3c0-.7.3-1.6.5-2.6.2-.5.3-1.1.5-1.6.3-.9.7-1.9,1.1-2.8.2-.5.4-.9.7-1.4.5-.9.9-1.7,1.3-2.3h0s0,0,0,0c0,0,.1-.2.2-.3h0c0-.2.3-.5.4-.6h0s0,0,0,0h0s0,0,0,0c0-.1.1-.2.2-.4.1-.2.2-.4.4-.6.1-.2.2-.3.4-.5.1-.2.3-.4.4-.5.3-.4.6-.8,1-1.2,0,0,0-.1.2-.2.3-.3.6-.7.9-1h0c.2-.2.5-.5.7-.7,0,0,0,0,0,0,0,0,.2-.2.3-.3.1,0,.2-.2.3-.3.2-.2.4-.4.6-.5.3-.3.5-.5.8-.8.3-.2.5-.4.8-.7.1-.1.3-.2.4-.3,0,0,0,0,0,0,.4-.3.7-.6,1.1-.8.4-.3.8-.5,1.2-.8.2-.2.5-.3.7-.4,1.6-1,3.2-1.8,4.9-2.4.2,0,.5-.2.7-.3.2-.1.5-.2.8-.3.3,0,.6-.2.8-.3.3,0,.6-.2.8-.2.4-.1.8-.2,1.2-.3.3,0,.6-.2.9-.2.4,0,.7-.1,1.1-.2.1,0,.2,0,.3,0,.2,0,.5,0,.7-.1,0,0,.1,0,.2,0,.3,0,.5,0,.8-.1l.3-.4-.3.4c2-.2,4.2-.3,6.1-.1h0s0,0,0,0c.3,0,.7,0,1,.1.4,0,.9,0,1.3.2,1.2.2,2.3.5,3.5.8.4.1.8.2,1.1.3,1.1.4,2.2.8,3.3,1.3.6.3,1.2.6,1.7.9,1.2.6,2.2,1.4,3.3,2.2.5.4,1.1.9,1.6,1.4,0,0,.1.1.2.2h0c.2.2.5.5.6.7.1.2.3.4.3.6h0s0,0,0,0c0,0,0,0,.2,0,0,0,0,0,.1.1s.1.1.2.2c.3.3.5.7.6,1h0c-4.1.2-5.7,1.2-9.1,2.6l-.8.4-.4.2h0s-1.2.9-1.2.9h0s0,0,0,0l-2.9,1h0s0,.1,0,.2c0,0,0,0,0,0s0,0,0,0c0,0-.2,0-.2,0s-.2,0-.2,0h0l-2.3.5c-.3,0-.6.1-.8.2h0c-.5.1-1.1.2-1.6.2h0s0,0,0,0c-.5,0-.9,0-1.4,0-.3,0-.6,0-.9,0-.3,0-.5,0-.8-.1-.3,0-.5,0-.8-.2,0,0,0,0,0,0-.3,0-.6-.1-.9-.2-.2,0-.4-.1-.6-.2-.3-.1-.7-.2-1-.4-.9-.3-1.8-.7-2.7-1.1-.3-.1-.6-.2-.9-.3-.1,0-.3,0-.4-.1-.1,0-.3,0-.4-.1-.2,0-.4,0-.6-.1-.2,0-.4,0-.6,0-.1,0-.2,0-.3,0-.2,0-.5,0-.8,0-.5,0-1,0-1.6,0h0s0,0,0,0c.2-.2.4-.4.7-.5.7-.6,1.3-1.1,2-1.5.5-.3.9-.6,1.4-.9.2-.1.5-.3.7-.4.2-.1.5-.2.7-.4.2,0,.4-.2.6-.3.4-.2.8-.3,1.2-.5.2,0,.4-.2.6-.2.4-.1.8-.2,1.2-.3h0s0,0,0,0c.1,0,.3,0,.4-.1,0,0,.2,0,.2,0,.2,0,.3-.1.5-.2,0,0,.2,0,.2,0,.2,0,.3,0,.5-.1,2.7-.8,5.5-1,8.4-1.2-.7-.1-1.4-.2-2.1-.3-1,0-1.9,0-2.9,0-.3,0-.6,0-.9,0-.6,0-1.2.1-1.8.2-.2,0-.5,0-.7.1-.2,0-.3,0-.5,0-.2,0-.4,0-.6.1-.6.1-1.2.3-1.8.5-.3,0-.5.2-.8.3-.3,0-.6.2-.9.3-.2,0-.4.2-.6.2-.3,0-.5.2-.8.3-.3.1-.6.3-.9.4-.2,0-.4.2-.6.3-.2.1-.5.2-.7.4-.4.2-.9.5-1.3.8-.8.5-1.5,1-2.2,1.6-.7.5-1.4,1.1-2,1.8,0,0-.1.1-.2.2-.3.2-.5.5-.8.8h0c-.4.5-.9,1-1.2,1.5h0c-.2.3-.4.6-.6.9-.2.3-.4.6-.6.9-.4.6-.7,1.2-1,1.8-.2.3-.3.6-.5.9h0c-.1.3-.2.5-.3.8-.4,1-.7,2-1,3-.1.6-.3,1.2-.4,1.8,0,.6-.2,1.2-.2,1.9h0c-.7,6.5,1.7,12.7,6.7,17,1.2,1.1,2.6,1.8,4.2,2.8-.2.3-.6.6-.9.8l-1.8,3.2h0c0,0,0,.1,0,.2,0,0,0,.1,0,.2,0,.2,0,.4-.1.6,0,.2,0,.5,0,.8,0,.1,0,.3,0,.4,0,.3,0,.7,0,1,0,.2,0,.4,0,.6,0,0,0,.2,0,.2,0,.4,0,.7-.2.9,0,0,0,.1-.1.2,0,0,0,0,0,0,0,0,0,0,0,0-.1,0-.3.1-.4.2h0c-.2.1-.4.2-.7.4-.2.1-.4.3-.6.4-.4.3-.8.6-1.1,1v.6c-.2.2-.8.2-1,.2-.7,0-1.4,0-2-.1-.2,0-.4,0-.6-.1-.2,0-.5-.1-.7-.2-.6-.2-1.1-.4-1.7-.7,0,0-.1,0-.2-.1-.1,0-.3-.2-.4-.3s-.1-.1-.2-.2c-.2-.2-.4-.5-.4-.8-.5-3,.6-3.9,0-5.3l-.3.2h0c0,.1-.1.2-.2.3,0,0,0,.1,0,.2,0,0,0,0,0,.1,0,.3-.2.6-.2.9,0,.3-.1.6-.2.9,0,.2,0,.4-.1.6,0,.2,0,.3,0,.5,0,.1,0,.2,0,.3,0,.2,0,.4,0,.6,0,.5,0,1.1.2,1.6-.7,0-1.1,0-1.5,0h-1c0,0-.1,0-.2,0,0,0-.1,0-.1,0s0,0,0,0c0,0,0,0,0,0,0,0,0,0,0,0,0,0,0,0,.2,0,.2,0,.5,0,.7.1.4,0,.8.2,1.2.3.4.1.8.3,1.1.4.4.2.7.3,1.1.5.4.2.7.3,1,.5.2,0,.4.2.5.2.2,0,.4.2.5.2,1.4.5,3,.8,5.1.3.4-.6.7-1.1,1-1.4,0,0,.2-.2.2-.2.1-.1.2-.2.3-.3,0,0,.1,0,.2-.1,0,0,0,0,.1-.1,0,0,0,0,0,0,.2-.2.5-.3.8-.5.2-.1.4-.3.7-.5,0,0,0,0,0,0,.2-.2.5-.4.8-.6h0c0,0,.2-.1.2-.2s.2-.1.2-.2c0,0,0,0,0,0,0,0,0,0,.1,0,.2,0,.3,0,.5,0,0,0,0,0,0,0,0,0,0,0,0,0,0,.2.1.4.2.6h0s0,0,0,.1c0,0,0,0,0,0,0,0,0,.1,0,.2h0c0,.1,0,.2,0,.3,0,.5-.4,1-.7,1.5,0,.1-.2.2-.2.3h0c0,.1-.1.2-.2.4,0,0,0,.2,0,.3,0,0,0,.2,0,.2,0,.2,0,.4.2.6h0c1.4.7,3,1,4.7.5l2.5-.8c.2,0,.7,0,.8,0,.2.1.2.4.3.6,0,1.4-2.6,2.3-3.1,2.5l-1.6.7s0,.1,0,.2c0,0,0,.1,0,.2,0,0,0,0,0,0h.4c1.8.2,3.2-.7,4.8-1.6,0,.3,0,.5-.2.8,0,0,0,0,0,0,0,0,0,0,0,0-.1.3-.3.5-.5.8,0,.1-.2.3-.3.4-.4.4-.8.7-1.3,1-.3.2-.6.4-1,.5h0c-.2,0-.4.2-.5.2.2.5.3.5.4.5.3,0,.4.5.1.7,0,0,0,0-.1,0,0,0,0,0,0,0,0,0,0,0,0,0,0,0-.2.1-.3.2-.2,0-.3.1-.5.2-.3.1-.7.2-1,.3-.2,0-.4,0-.5.1-.2,0-.4,0-.5,0-.2,0-.4,0-.5,0-.2,0-.5,0-.7,0s-.5,0-.7,0c-.5,0-1-.1-1.6-.2-.3,0-.6-.1-.8-.2-.2,0-.3,0-.4-.1-1.1-.3-2-.5-3.1-.2-2.7.6-5.4.6-8,0ZM64.5,27.8c-.1,0-.3.1-.5.2,0,0,0,0,0,0l-1.5.7,1.5-.7s0,0,0,0c.1,0,.4,0,.5-.2ZM62.3,28.8c0,0-.1.1-.1.2v-.2s.1,0,.1,0ZM56.9,64.8c0,.2.2.4.2.6,0,.2.1.4.2.6,0,.2,0,.3,0,.5,0,.1,0,.3,0,.5,0,.1,0,.3,0,.4,0,.2,0,.3,0,.5,0,.3,0,.6,0,.9,0,.2,0,.3,0,.5,0,0,0,.1,0,.2,0,0,0,.1,0,.2,0,0,0,0,0,0,0,.2,0,.3-.2.5,0,.2-.2.5-.3.7h0c-.2.4-.3.8-.5,1.2h0c-.2.3-.3.5-.5.7-.2.2-.3.4-.5.6l-.3.3c-.3.3-.6.5-1,.8-.3.2-.6.5-1,.6l-1.3.6v-1.5s0,0,0,0c0,0,0-.3,0-.4,0,0-.2,0-.2,0-1.1-1.2-1.9-1.4-2.7-1.3,0,0-.1,0-.2,0-.6.2-1.3.4-2.3.6-.1,0-.2,0-.3,0,0,0-.2,0-.2,0-.1,0-.3,0-.4,0-.1,0-.2,0-.3,0-.2,0-.4,0-.6,0h0c0,0-.1,0-.2,0,0,0-.1,0-.2,0,0,0-.1,0-.2,0-.1,0-.2-.2-.3-.3.2-.3.4-.8.6-1.1h-.2c.5-1.4.1-2.9-.9-3.6h0s0,0,0,0c0,0-.1,0-.2,0-.1,0-.3,0-.4,0h0c-.3,0-.5,0-.9.2,0-.5,0-1,0-1.5,0-.3,0-.6.2-.9,0-.2,0-.4.2-.6.2-.8.6-1.5,1.1-2.2.2-.3.5-.6.8-.9.1-.1.3-.3.4-.4.4-.4.9-.7,1.4-1,.2-.1.4-.2.5-.3,0,0,.1,0,.2-.1.2,0,.3-.1.5-.2h0c3.4-1.3,7.3-.2,9.4,2.8.2.4.5.7.7,1.1h0c0,.2.2.4.3.6ZM65.8,88.9l-.6,3c-.3,1.7-.3,3.2,0,5-.4-.3-.7-.6-1-.9-.2-.1-.4-.2-.5-.3,0,0,0,0,0,0,0,0,0,0,0,0-.2-.2-.4-.4-.6-.6,0,.3,0,.7.2,1,.2.5.4.9.7,1.3l1.9,1.2h0s3.1,1.4,3.1,1.4c.2,0,.4.2.6.3.2,0,.5.2.8.3.2,0,.3.1.5.2.1,0,.3.1.5.2.2,0,.3.1.5.2.1,0,.3.1.5.2,0,0,0,0,0,0,.2,0,.3.2.5.2.2,0,.3.2.4.3.2.2.5.3.7.5.1,0,.2.2.3.3,0,0,.2.2.2.3,0,0,.1.2.2.3,0,0,0,.2.1.3,0,.1,0,.3,0,.4h0c0,0,0,.2,0,.2,0,.1,0,.3,0,.3,0,0,0,0,0,0,0,0,0,0,0,0h0c0,0-.1,0-.2,0,0,0-.1,0-.2,0,0,0-.2,0-.2,0,0,0,0,0,0,0h0c-.3.1-.8,0-1.1,0-.2,0-.4-.2-.6-.3-.4-.2-.8-.3-1.3-.4-.8-.2-1.6-.3-2.5-.4-.3,0-.5,0-.8,0h-.3s-1.7-2-1.7-2c-.1,0-.2,0-.3-.1-.1,0-.2,0-.3-.1,0,0,0,0,0,0-.3-.1-.7-.3-1-.5,0,0-.2,0-.3-.1,0,0-.2,0-.3,0-.2,0-.4,0-.6-.1,0,0-.1,0-.2,0,0,0-.1,0-.2,0,0,0,0,0-.2,0,0,0-.2,0-.3-.2,0,0-.1,0-.2-.1-.2-.2-.4-.4-.5-.6,0,1.2.7.7,1,1.7,0,0,0,0,.1,0,.1,0,.2,0,.3.1,0,0,0,0,.1,0,0,0,0,0,.1,0,0,0,.1,0,.2.1,1.7.2,3.9,3.2,3.6,4.8h0s0,.1,0,.1c0,.2,0,.7-.3.7-.2,0-.5,0-.7,0-.9-.2-2.3-1.3-3.2-1.8-1.7-.9-3.5-1.3-5.3-1.8-.1,0-.3,0-.4-.1-.1,0-.2,0-.4-.2-.1,0-.3-.2-.4-.3-.1,0-.3-.2-.4-.3-.2-.2-.4-.5-.6-.8,0-.1-.1-.2-.1-.4,0,0,0-.2,0-.2,0,0,0-.2,0-.3,0-.1,0-.2,0-.3s0-.2,0-.4l1-8.4h0s0,0,0,0c-.2-.7-.3-1.5-.2-2.2h0c.2,0,.3,0,.5,0,.3,0,.7,0,1-.1.5,0,1-.2,1.4-.3.9-.2,1.8-.5,2.7-.8.9-.3,1.8-.6,2.6-1s1.7-.8,2.6-1.3h0s0,0,0,0c-.2,1.2-.8,2.1-1,3.1ZM77.6,61.2l-.2.3v.2c.3,2.8-.3,4.1-.4,6.7h0c-.2.2-.5,1.1-.6,1.5h0s0,0,0,0c0,0,0,0,0,0h0c0,.2,0,.3,0,.5,0,.2,0,.4-.1.6-.1.4-.2.9-.4,1.4,0,.2-.2.4-.2.7-.7,1.8-1.6,3.8-2.6,5.2-.1.2-.2.3-.3.5,0,0,0,0,0,0,0,.1-.2.2-.3.3h0c-.1.1-.2.2-.3.3-.1.1-.3.2-.4.3,0,0,0,0,0,0-.2.3-.3.6-.6.9-.5.5-1,1-1.6,1.4-.3.2-.6.5-.9.7-2,1.7-4.2,2.9-6.6,3.8-.4.1-.8.3-1.2.4-.4.1-.7.2-1.1.3-.3,0-.6.1-.9.2,0,0,0,0,0,0h0c-.2,0-.4,0-.6.1-.7.1-1.3.2-2,.3-.4,0-.8,0-1.2.1,0,0,0,0-.1,0-3.1.2-6.3,0-9.4-.5h0c-.1,0-.2,0-.2.2,0,0,0,0,0,0h0s4,1.5,4,1.5c-.2,1.8-.2,3.5-.2,5.2s.1,3.8.3,5.7c0,.6,0,1.4-.3,2-.1.3-.3.5-.5.7-1.3,1.1-2.5,1.2-4.1,1.9,0,0,0,0,0,0-.3.1-.6.3-.9.5,0,0-.2,0-.3.2-.1,0-.3.2-.4.3-.4.3-.8.7-1.3,1.1-.6.5-1.2.9-1.8.5,0,0-.1,0-.2-.1-.1,0-.2-.2-.3-.2,0,0,0,0,0,0h0c0-.3.2-.6.2-.8,0-.1,0-.2,0-.4,0,0,0-.2,0-.3,0-.1,0-.2,0-.3,0-.2.2-.5.3-.7,0-.2.2-.4.3-.6.1-.2.2-.4.3-.5.1-.3.3-.5.5-.7,0-.1.2-.2.3-.3,0-.1.2-.2.3-.3h0c.1-.1.3-.3.4-.4,0,0,.1-.2.2-.2,0,0,.1-.2.2-.3,0,0,0,0,.1-.2-.3,0-.7.2-1.1.3-.1,0-.2,0-.3.1,0,0-.1,0-.2.1,0,0-.1,0-.2.1,0,0-.2.1-.3.2,0,0-.2.2-.2.2,0,0-.2.2-.2.2-.4.4-.8.9-1.1,1.5h0c-.4,0-.8,0-1.2.1-.2,0-.5,0-.7,0-.2,0-.4,0-.7.1-.1,0-.2,0-.4,0-.2,0-.5,0-.7.2-.1,0-.3,0-.5.1-.1,0-.2,0-.3,0,0,0-.2,0-.3,0-.4.1-.8.3-1.1.4-.1,0-.2.1-.4.2-.7.3-1.5.3-2,0h0s.2-.3.2-.3c0,0,0-.1,0-.2,0-.3.2-.5.4-.7,0,0,.1-.2.2-.3,0,0,0,0,0-.1,0-.1.1-.2.2-.3,0,0,0,0,.1-.1,0,0,.2-.2.2-.2,0,0,.2-.2.3-.2,0,0,.2-.2.3-.2,0,0,.2-.1.3-.2.6-.4,1.3-.7,1.9-1,.7-.3,1.4-.7,2-1.2.1,0,.2-.2.4-.3.2-.2.4-.3.5-.5,0-.1.2-.2.3-.3.1-.2.2-.3.3-.5,0-.1.2-.2.2-.4,0-.1.1-.3.2-.4,0,0,.1-.2.1-.3,0-.2.2-.4.2-.7,0-.2,0-.3.1-.5h0c0-2.3-.1-4.7-.9-6.8l-1.2-3.3h0,0s1.4.4,1.4.4h0c.2,0,.4.1.7.1.2,0,.4,0,.7,0s.2,0,.3,0l-4.9-3.2,2.7-.5c2.5.9,5,1.2,7.6.8.5,0,1-.2,1.4-.4.4-.2.7-.4,1-.6.3-.2.6-.4.8-.7.5-.5,1-1.1,1.5-1.8l1.6-2.2s0-.1.1-.2c0,0,0-.2.1-.3,0,0,0-.1.1-.2,0,0,0,0,.1-.1,0,0,0,0,.1,0,.2,0,.4-.1.6-.2.2-.1.5-.2.7-.3.2-.1.4-.2.6-.4.2-.1.4-.2.6-.4.1,0,.2-.2.3-.2.2-.1.3-.2.4-.4.2-.2.4-.4.6-.6.6-.6,1.2-1.4,1.7-2.1h0l.5-1h0c.6-2.5.8-5.2-.4-7.5l-.5-1h0,0c3.9-.6,7.3-2.5,10-5.2,1.4-1.5,2.9-1.9,4.9-1.9.1,0,.2,0,.3,0,0,0,.2,0,.2,0,.1,0,.2,0,.3,0,0,0,0,0,.1,0,0,0,0,0,.1,0,0,0,.2,0,.3.1.8.4,1.6,1,2.2,1.6.1.1.2.2.3.3.1,0,.2.2.2.3.1,0,.2-.1.4-.2-.1,0-.2.2-.4.2,0,0,.1.2.2.3,0,.1.1.2.2.3h0s.3.6.3.6h0s0,0,0,0v.3s0,0,0,0h.3s0,0,0,0c0,0,0,0,0,0h-.3s0,1.1,0,1.1c0,0,.1,0,.2.1h0s0,0,0,0c0,0,0,0,0,0,0,0,0,0,0,.1,0,0,0,0,0,0ZM77.7,56.5l-.7-.2h0c-.1,0-.3-.1-.4-.2-.1,0-.3-.1-.4-.2-.1,0-.2-.2-.4-.3-.1,0-.2-.2-.3-.3-.3,0-.7-.2-1.1-.4-.1,0-.3-.1-.4-.2,0,0-.1,0-.2,0,0,0-.1,0-.2,0,0,0,0,0,0,0-.2,0-.3,0-.5-.1-.1,0-.2,0-.3,0-.1,0-.2,0-.4,0,0,0-.1,0-.2,0,0,0,0,0,0,0h0c-.2,0-.3,0-.5,0h0c-.2,0-.5,0-.7,0-.2,0-.4,0-.6,0-.2,0-.4.1-.6.2,0,0-.1,0-.2,0,0,0,0,0,0,0,0,0-.1,0-.2,0h0c-.1,0-.2,0-.4.2,0,0-.1,0-.2,0-.1,0-.2.1-.4.2h0c-.6.4-1.2.8-1.7,1.3-.2.2-.3.3-.5.5-.4.3-.7.7-1.1,1-.6.5-1.2.9-1.8,1.3-.2.1-.4.2-.6.4-.2,0-.3.2-.5.3-.3.1-.6.3-.9.4-.2,0-.4.2-.5.2-.2,0-.5.2-.7.3s-.5.2-.7.2c-.1,0-.2,0-.4,0-.2,0-.5.1-.7.2-.2,0-.5,0-.8.1-.2,0-.4,0-.5,0-.2,0-.4,0-.6,0h0c-.1-.1-.2-.3-.4-.4-.2-.2-.5-.5-.7-.7-.2-.2-.5-.4-.8-.5-.1,0-.3-.2-.4-.2-.1,0-.2-.1-.3-.2-.7-.3-1.3-.6-2-.8-.2,0-.3,0-.5-.1-.2,0-.4,0-.6,0-.1,0-.3,0-.5,0-1.4-.1-2.8,0-4.2.4h0c-.1,0-.2.1-.4.2-.4.2-.8.4-1.3.6h0c-.3-.2-.6-.3-.9-.5-.6-.3-1.2-.6-1.8-1-1.2-.7-2.2-1.6-3.2-2.5-.1-.1-.3-.3-.4-.4-.1-.1-.3-.3-.4-.4-.2-.3-.5-.5-.7-.8,0-.1-.2-.2-.2-.3-.1-.2-.2-.3-.3-.5-.1-.1-.2-.2-.3-.4-.1-.2-.3-.4-.4-.6-.1-.2-.2-.4-.3-.6-.1-.2-.2-.4-.3-.6,0,0,0,0,0,0-.1-.2-.2-.5-.3-.7,0-.2-.2-.4-.3-.7,0,0,0-.2,0-.2,0-.2-.1-.4-.2-.6,0-.3-.2-.5-.2-.8,0-.3-.1-.6-.2-1,0,0,0-.2,0-.2,0-.3-.1-.6-.2-.9,0-.2,0-.4,0-.6,0-.3,0-.5,0-.8,0-.1,0-.3,0-.4h0c0,0,0,0,0,0t0,0s0,0,0,0c0-.3,0-.6,0-1,0-.7,0-1.4.1-2.1.1-1.4.4-2.8.9-4.2.1-.3.2-.7.4-1,.1-.3.3-.7.4-1h0c.2-.5.5-1,.7-1.5.5-1,1.2-2,1.9-2.9.2-.2.3-.4.5-.6.3-.3.6-.6,1-.9,0,0,.2-.1.3-.2,0,0,.2-.1.3-.2.2-.1.4-.2.6-.3h0c.2,0,.4-.1.6-.2.4-.1.9-.2,1.3-.2.2,0,.4,0,.6,0s.4,0,.6,0c.2,0,.3,0,.5,0,0,0,.2,0,.3,0,0,0,.1,0,.2,0,.2,0,.3,0,.5.1.1,0,.3,0,.4.1h0s3.9,1.5,3.9,1.5l.2-.2s.2,0,.2,0v.3c.6.3,1.1.5,1.7.6,0,0,.2,0,.3,0,.4,0,.8.1,1.2.2,0,0,.1,0,.2,0,0,0,.1,0,.2,0h0l.2-.5c0-.1.4.1.6.2.7.3,2-.5,4,.3.1,0,.3,0,.4,0,.5,0,1.1-.2,1.6-.3,0,0,.1,0,.2,0h0s0,0,0-.1c0,0,0-.1.1-.2,0,0,0,0,0,0,0,0,0,0,0,0h0s0,0,0,0c0,0,.1,0,.2,0,0,0,.1,0,.2.1h0c0,0,.1,0,.2,0,.2,0,.5-.2.8-.3.1,0,.2-.2.2-.3v.2c1.3-.3,3.4-1.4,4.4-1.9h0s.6-.3.6-.3h0c2.8,2.1,5.5,7.9,6.8,12.4.5,1.5.8,2.9.9,3.9,1.3,4.1,1.3,8.6,2,12.7l.7.2h0ZM80.1,69.5h0q0,0,0,0h0ZM83.3,67.7h0s0,0,0,0h0ZM101.4,54.4c0,.2-.1.3-.2.5h0c-.2.3-.3.6-.6.9h0c-.2.2-.4.4-.6.7-.2.2-.4.4-.7.6-.2.1-.3.3-.5.4-.3.2-.7.4-1,.6-.2.1-.4.2-.6.3-.3.1-.7.3-1,.4,0,0-.2,0-.3.1-.3.1-.7.2-1,.3-.2,0-.4,0-.6.1-.2,0-.4,0-.5,0-.9.1-1.6.1-2.7.2l1.2.9h0s-1,1-1,1h0s-.4.4-.4.4c-.1.1-.3.2-.4.4-1.6,1.5-3.9,3.6-6,4.8-.5.3-.9.5-1.4.7h0c0,0-1.2.3-2.3.6-.2,0-.5,0-.7.1,0,0-.2,0-.2,0-.2,0-.4,0-.6,0-.2,0-.3,0-.4,0,0,0-.1,0-.2,0-.1,0-.2,0-.3,0,0,0-.1,0-.1,0,0,0,0,0,0,0,0,0,0-.2,0-.3,0-.2,0-.4,0-.6,0-.3,0-.7.1-1.1,0-.3,0-.5,0-.8,0-.3,0-.5,0-.8,0-.6,0-1.1,0-1.7,0-.2,0-.4,0-.6,0-.8,0-1.5,0-2.1h0c0-.3,0-.6,0-.8h0s.4,0,.4,0c0,0,.1,0,.2,0h1.3c.2,0,.4,0,.6,0,.2,0,.3,0,.5-.1.2,0,.4-.1.5-.2.3-.1.6-.3.9-.4h0c2-.5,3.4-2.1,5-3.4,0-.3.2-.6.3-.9,0-.3.2-.6.3-1h0c0-.2.1-.5.2-.7,0,0,0,0,0,0,0-.3.1-.5.3-.7.5-.7.9-1.4,1.1-2,0,0,0-.2,0-.2,0-.2.1-.4.2-.5.1-.3.2-.6.3-.9.1-.3.2-.5.5-.5,0,0,.1,0,.2,0,0,0,0,0,.1,0,0,0,0,0,.1,0,0,0,.2,0,.2,0,0,0,0,0,0,0,0,0,0,0,0,0,0,0,0,0,0,0,0,0,0,.1,0,.2,0,0,0,0,0,.1,0,0,0,0,0,0,0,0,0,0,0,.2,0,0,0,.1,0,.2,0,0,0,.1,0,.2,0,.2,0,.5,0,.6l-.3,1.8h0c0,0,0,.2,0,.2,0,0,0,.2.1.3,0,.1.2.3.3.4,0,.2.2.3.2.5,0,.1,0,.2,0,.3.1,0,.2,0,.3,0,0,0,0,0,0,0,0,0,0,0,0,0,0-.2.1-.4.2-.5,0-.2-.2-.8,0-.9.2-.1.8-.3,1-.3l3.7-2.2c.5-.3,1.5-.4,2,0h0s0,0,0,0c0,0,0,0,0,0,0,.2-.4.4-.6.5l-2.7,2.1-.8-.2h0s-.5,0-.5,0l.6.9c0,0,.1,0,.1.1,0,0,0,0,.1.1.3.3.5.6.6,1,0,.1.1.3.2.4.1.4.2.8.4,1.2.2-.2.5-.3.7-.5.2-.2.5-.3.7-.5.2-.1.3-.2.5-.3.3-.2.7-.4,1-.6.2,0,.3-.2.5-.3.2,0,.4-.2.5-.2h0c.2.4.1.8,0,1.2ZM101.9,51.4c0,1.5-.5.5-2.3,1.7l-1.7,1.2-.4-1.2h0v-.3q0,0,0,0h0s0,0,0,0c0,0,0,0,0,0,.4-.2,2-1.6,3.2-2,0,0,.2,0,.3,0,0,0,0,0,.1,0,.5,0,.8.1.8.8h0Z"/>
  <path class="st1" d="M16.3,44.1c0,.2,0,.4-.1.6,0,.2-.1.4-.2.6,0,0,0,.2,0,.2,0,.2-.2.3-.3.5,0,0-.1.2-.2.3h0c0,.1-.2.2-.3.3h0c0-.2,0-.3-.1-.5-.1-.5-.2-1-.3-1.4,0-.2,0-.4-.2-.6,1,.3.7-.6,1.5-.5,0,.2.2.5.3.6Z"/>
  <path class="st1" d="M11.4,50.4h0l-3.7-1.7c.9-.4,1.7.6,2.3.1h0s0,0,0,0l.5.2h0c.1,0,.2.1.3.2,0,0,.1,0,.2.2,0,0,0,0,0,0,0,0,.1.2.2.3,0,0,0,.2.1.3,0,.1,0,.3,0,.4Z"/>
  <path class="st6" d="M43.4,7.8h0s-.2.1-.2.1c-.6-.4-1.2-.7-1.7-.8-.3,0-.5-.1-.7-.2-.8-.1-1.4,0-1.8-.2-.1,0-.2,0-.3-.1,0,0,0,0-.1-.1h0s1.7,0,1.7,0c.1,0,.3,0,.5,0,.2,0,.3,0,.4,0,.1,0,.2,0,.3,0,0,0,.1,0,.2,0,0,0,.1,0,.2,0,0,0,.1,0,.2,0,.1,0,.2.1.3.2,0,0,.2.1.3.2.1,0,.2.2.3.3,0,0,.2.2.3.3Z"/>
  <path class="st5" d="M47.4,6.5c0,0,0,.1-.1.1h.1Z"/>
  <path class="st2" d="M4.2,52.7c0,0,0,0,0,0s0,0,0,0,0,0,0,0,0,0,0,0Z"/>
  <path class="st0" d="M24.3,57.9h0s-.2.7-.2.7h0s0,0,0,0l.2-.7h0Z"/>
  <path class="st0" d="M26.8,77.8c0,0-.2-.2-.3-.2.1,0,.2.2.3.2Z"/>
  <path class="st5" d="M41.2,45.7l.3.3h0s-.3-.3-.3-.3ZM46.4,31.9c.1,0,.3.1.4.2h0c-.1,0-.2-.2-.4-.2ZM66.8,56.4c-.2.2-.3.4-.5.5.2-.2.4-.3.5-.5.5-.5,1.1-1,1.7-1.3-.6.3-1.2.8-1.7,1.3ZM72.3,38.8h0c0,.3.2.6.3,1-.1-.3-.2-.6-.3-1ZM75.1,50.6c-.3-2.8-1-5.4-1.6-8h0c0,0,0-.2,0-.3,0,0,0-.2,0-.3,0,.2,0,.3.1.5.6,2.6,1.3,5.2,1.6,8,.2,1.6.3,3.1.4,4.6h0c0-1.5-.2-3-.4-4.6ZM51.8,31.9h0s0,0,0,0h0Z"/>
  <path class="st0" d="M77.5,61.7l-.2-.2v-.2s.1-.5.1-.5h0s0-1.1,0-1.1h0s0-.4,0-.4h0s-.3-.6-.3-.6h0c0,0-.1-.2-.2-.3,0-.1-.1-.2-.2-.3,0,0,0,0,0,0,0,0-.2-.2-.2-.3,0-.1-.2-.2-.3-.3-.6-.6-1.4-1.2-2.2-1.6,0,0-.2,0-.3-.1,0,0,0,0-.1,0,0,0,0,0-.1,0-.1,0-.2,0-.3,0,0,0-.2,0-.2,0-.1,0-.2,0-.3,0-2,0-3.5.5-4.9,1.9-2.7,2.8-6.1,4.7-10,5.2h0l.5,1c1.2,2.3,1,5,.4,7.5h0c0,0,0,.1,0,.2,0,.1,0,.2,0,.3,0,0,0,.1,0,.2h0c0,.1-.1.3-.2.4h-.2c-.5.7-1.1,1.5-1.7,2.1-.2.2-.4.4-.6.6-.1.1-.3.3-.4.4,0,0-.2.2-.3.2-.2.1-.4.3-.6.4-.2.1-.4.2-.6.4-.2.1-.5.2-.7.3-.2,0-.4.2-.6.2,0,0,0,0-.1,0,0,0,0,0-.1.1,0,0,0,.1-.1.2,0,0,0,.2-.1.3,0,0,0,.1-.1.2h0l-1.6,2.2c-.5.7-1,1.2-1.5,1.8-.2.3-.5.5-.8.7-.3.2-.7.5-1,.6-.4.2-.9.3-1.4.4-2.5.4-5.1,0-7.6-.8l-2.7.5,4.9,3.2c0,0-.2,0-.3,0-.2,0-.5,0-.7,0-.2,0-.5,0-.7-.1h0l-1.4-.4,1.2,3.3h0c.8,2.2.8,4.5.9,6.8h0c0,.2,0,.3-.2.5,0,.2-.2.5-.2.7,0,.1,0,.2-.1.3,0,.2-.1.3-.2.4,0,.1-.1.2-.2.4-.1.2-.2.3-.3.5,0,.1-.2.2-.3.3-.2.2-.3.4-.5.5-.1.1-.2.2-.4.3-.6.5-1.3.9-2,1.2-.7.4-1.3.7-1.9,1,0,0-.2.1-.3.2,0,0-.2.2-.3.2-.1,0-.2.2-.3.2,0,0-.2.2-.2.2,0,0,0,0-.1.1,0,0-.2.2-.2.3,0,0,0,0,0,.1,0,0-.1.2-.2.3h0c-.1.2-.3.5-.4.7,0,0,0,.1,0,.2h0s-.2.3-.2.3c.5.4,1.3.3,2,0,.1,0,.2-.1.4-.2.4-.2.7-.3,1.1-.4,0,0,.2,0,.3,0,0,0,.2,0,.3,0,.1,0,.3,0,.5-.1.2,0,.5-.1.7-.2.1,0,.2,0,.4,0,.2,0,.4,0,.7-.1.2,0,.5,0,.7,0,.4,0,.8,0,1.2-.1.4-.5.7-1,1.1-1.5,0,0,.2-.2.2-.2,0,0,.2-.2.2-.2,0,0,.2-.2.3-.2,0,0,.1,0,.2-.1,0,0,.1,0,.2-.1.1,0,.2,0,.3-.1.4-.1.7-.2,1.1-.3h0c0,0,0,.1-.1.2,0,0-.1.2-.2.3,0,0-.1.2-.2.2-.1.2-.3.3-.4.4h.2s-.3,0-.3,0h0c-.1,0-.2.2-.3.3,0,0-.2.2-.3.3-.2.2-.3.5-.5.7-.1.2-.2.4-.3.5,0,.2-.2.4-.3.6,0,.2-.2.5-.3.7,0,.1,0,.2,0,.3,0,0,0,.2,0,.3,0,.1,0,.2,0,.4,0,.2-.1.5-.2.7h0c0,0,0,0,0,.1,0,0,.1.2.3.2,0,0,.2,0,.2.1.6.4,1.3,0,1.8-.5.5-.4.9-.8,1.3-1.1.1-.1.3-.2.4-.3,0,0,.2-.1.3-.2.3-.2.6-.4.9-.5,0,0,0,0,0,0,1.6-.8,2.8-.8,4.1-2,.2-.2.4-.4.5-.7.3-.6.4-1.3.3-2-.2-1.9-.3-3.8-.3-5.7s0-3.4.2-5.2l-4-1.5s0,0,0,.2c0,0,0-.1,0-.2h0s0,0,0,0c0,0,0-.2.2-.2,0,0,0,0,0,0,3,.5,6.2.7,9.4.5,0,0,0,0,.1,0,.4,0,.8,0,1.2-.1.7,0,1.3-.2,2-.3.2,0,.4,0,.6-.1h0s0,0,0,0c.3,0,.6-.1.9-.2.4,0,.7-.2,1.1-.3.4-.1.8-.2,1.2-.4,2.4-.8,4.6-2,6.6-3.8h0s0,0,0,0c0-.1.2-.4.3-.6l1.8-1.8c0,0,.2-.2.2-.2,0,0,.1-.2.2-.2,0,0,.1-.1.2-.2,0,0,.1-.1.2-.2h0s0,0,0,0h0c.1,0,.3,0,.4-.2,0,0,.2-.2.3-.3h0c0-.1.2-.2.3-.4,0,0,0,0,0,0,.1-.1.2-.3.3-.5,1-1.4,2-3.4,2.6-5.2,0-.2.2-.5.2-.7.2-.5.3-1,.4-1.4,0-.2,0-.4.1-.6,0-.2,0-.3,0-.5,0,0,0,0,0,0h0c0-.4.4-1.3.6-1.5h0c0-2.5.7-3.9.5-6.7ZM39.9,94.9c0,0,.1,0,.2-.1,0,0-.1.1-.2.1h0ZM41.7,97.2c0,0-.1.2-.2.2-1,1.1-3.2,2.8-3.3,2.6h0s1.3-1.9,1.3-1.9l2.5-1.6c0,.1,0,.3-.3.6ZM42.6,94.7c0,.1,0,.2-.1.3,0,0,0,0,0,0,0,.1-.1.2-.2.4h0s-.1.2-.1.2h0s0,0,0-.1c0,0,0,0,0,0,0,0,0,0,0-.1,0-.1,0-.2,0-.3,0-.1,0-.3,0-.4h0c0,0,0,0,0-.1,0,0,0-.2,0-.2,0,0,0-.1,0-.2,0,0,0-.1,0-.2,0-.3-.2-.5-.3-.8,0,0,0,0,0,0,0,0,0-.1,0-.2,0,0,0-.1,0-.2,0,0,0-.1,0-.2,0,0,0-.2-.1-.3,0,0,0-.2-.1-.3,0,0,0,0,0,0,0,0,0,0,0,0l-1.2-3.8c0,0-.1,0-.2,0,0,0,.1,0,.2,0,0-.1,0-.4,0-.6,0,0,0,0,0,0,0-.2,0-.3,0-.4s0,0,0,0h0s0,0,0,0l.4.7c.2,1,.4,2.2,1.2,2.9h0l.3,1.3c0,0,0,.2,0,.2,0,.2.1.3.2.5,0,.1,0,.2,0,.3,0,.1,0,.2,0,.3,0,.5,0,.9,0,1.4ZM45.1,92.2c0,.2.2.3.3.5,0,.1.1.2.2.4,0,0,0,0,0,0,0,.1,0,.2.1.3,0,.2.2.5.2.8,0,.1,0,.2,0,.3,0,.2,0,.3,0,.5v.2c0,.2,0,.5,0,.7,0,0,0,.2,0,.3,0,.2,0,.3-.1.5,0,.2,0,.3-.2.5-.2.5-.5.9-.8,1.3-.1.1-.2.2-.4.4.2-.4.4-.8.5-1.2,0-.2.1-.3.1-.5,0-.3.1-.5.1-.8,0-.5,0-1,0-1.5,0-.3,0-.5-.1-.8,0-.3-.2-.7-.3-1,0-.1-.1-.2-.2-.4-.2-.4-.4-.7-.6-1.1h0s0,0,0,0l.3-.2h0s0,0,.2,0c0,0,.1.1.2.2,0,0,.1.2.2.3,0,0,.1.2.2.3ZM71.6,79.2s0,0-.1,0h0s.2-.2.2-.2c0,0,0,0,0,.1ZM71.9,78.7c0,0,.1-.2.2-.3,0,.1-.2.2-.2.3ZM72.6,77.7c.2-.4.5-.9.7-1.3-.2.5-.5.9-.7,1.3ZM73.8,75.2c0-.3.1-.5,0-.5,0,0,0,.2,0,.5Z"/>
  <path class="st0" d="M40.2,88.1h0c0,0-.1,0-.2,0,0,0,.1,0,.2,0,0-.1,0-.4,0-.6,0,.2,0,.5,0,.6Z"/>
  <path class="st0" d="M40.3,87s0,0,0,0c0,0,0,0,0,0h0s0,0,0,0Z"/>
  <path class="st0" d="M40.2,87.4c0-.2,0-.3,0-.4,0,0,0,.2,0,.4Z"/>
  <path class="st0" d="M45.1,87.6s0,0,0,0h0c0,0,0,.1,0,.2,0,0,0-.1,0-.2h0s0,0,0,0Z"/>
  <path class="st0" d="M46.9,83c-.4.2-.9.3-1.4.4-2.5.4-5.1,0-7.6-.8l-2.7.5,2.7-.5c2.5.9,5,1.2,7.6.8.5,0,1-.2,1.4-.4Z"/>
  <path class="st0" d="M70.8,80.1c0,0-.1.2-.2.2l-1.8,1.8c-.1.1-.3.4-.3.5,0-.1.2-.4.3-.6l1.8-1.8c0,0,.2-.2.2-.2Z"/>
  <path class="st0" d="M71.5,79.5h0c0,0-.2.1-.2.2,0,0,.1-.1.2-.2Z"/>
  <path class="st0" d="M71.7,79.1l-.2.2s0,0,0,0l.2-.2Z"/>
  <path class="st0" d="M25.9,71.2h0c0,0-.1,0-.2,0,0,0,0,0,.2,0Z"/>
  <path class="st0" d="M26,71.6c.2.2.5.3.8.4-.3-.1-.6-.2-.8-.4Z"/>
  <path class="st0" d="M41.4,71.1c.2-.2.4-.3.6-.5-.2.2-.4.3-.6.5Z"/>
  <path class="st0" d="M76.1,23.1c-4.1.1-5.7,1.2-9.1,2.5l-.8.4-.4.2h0s0,0,0,0l-1.2.9h0l-2.9,1h0c-.3,0-.5.2-.6.4h0l-2.3.5s0,0,0-.1c0,0,0,0,0,0-.3,0-.6.1-.8.2h0c-.5,0-1.1.2-1.6.2h0s0,0,0,0c-.5,0-.9,0-1.4,0-.3,0-.6,0-.9,0-.3,0-.5,0-.8-.1-.3,0-.5,0-.8-.2,0,0,0,0,0,0-.3,0-.6-.1-.9-.2-.2,0-.4-.1-.6-.2-.3-.1-.7-.2-1-.4-.9-.3-1.8-.7-2.7-1.1-.3-.1-.6-.2-.9-.3-.1,0-.3,0-.4-.1-.1,0-.3,0-.4-.1-.2,0-.4,0-.6-.1-.2,0-.4,0-.6,0-.1,0-.2,0-.3,0-.2,0-.5,0-.8,0-.5,0-1,0-1.6,0,.2-.2.4-.4.6-.5.7-.5,1.3-1,2-1.5.5-.3.9-.6,1.4-.9.2-.1.5-.3.7-.4.2-.1.5-.2.7-.4.2,0,.4-.2.6-.3.4-.2.8-.3,1.2-.5.2,0,.4-.2.6-.2.4-.1.8-.2,1.2-.3h0c.1,0,.3,0,.4-.1,0,0,.2,0,.2,0,.2,0,.3-.1.5-.2,0,0,.2,0,.2,0,.2,0,.3,0,.5-.1h0c2.7-.8,5.5-1,8.4-1.2-.7-.1-1.4-.2-2.1-.3-1,0-1.9,0-2.9,0-.3,0-.6,0-.9,0-.6,0-1.2.1-1.8.2-.2,0-.5,0-.7.1-.2,0-.3,0-.5,0-.2,0-.4,0-.6.1-.6.1-1.2.3-1.8.5-.3,0-.5.2-.8.3-.3,0-.6.2-.9.3-.2,0-.4.2-.6.2-.3,0-.5.2-.8.3-.3.1-.6.3-.9.4-.2,0-.4.2-.6.3-.2.1-.5.2-.7.4-.4.2-.9.5-1.3.8-.8.5-1.5,1-2.2,1.6-.7.5-1.4,1.1-2,1.8,0,0-.1.1-.2.2-.3.2-.5.5-.8.8h0c-.4.5-.9,1-1.2,1.5h0c-.2.3-.4.6-.6.9-.2.3-.4.6-.6.9-.4.6-.7,1.2-1,1.8-.2.3-.3.6-.5.9h0c-.1.3-.2.5-.3.8-.4,1-.7,2-1,3-.1.6-.3,1.2-.4,1.8,0,.6-.2,1.2-.2,1.9h0c-.7,6.5,1.7,12.7,6.7,17,1.2,1.1,2.6,1.8,4.2,2.8-.2.3-.6.6-.9.8l-1.8,3.2h0c0,0,0,.1,0,.2,0,0,0,.1,0,.2,0,.2,0,.4-.1.6,0,.2,0,.5,0,.8,0,.1,0,.3,0,.4,0,.3,0,.7,0,1,0,.2,0,.4,0,.6,0,0,0,.2,0,.2,0,.4,0,.7-.2.9,0,0,0,.1-.1.2,0,0,0,0,0,0,0,0,0,0,0,0-.1,0-.3.1-.4.2h0c-.2.1-.4.2-.7.4-.2.1-.4.3-.6.4-.4.3-.8.6-1.1,1h0s-.1.6-.1.6c0,.2-.6.2-.8.2-.7,0-1.4,0-2-.1-.2,0-.4,0-.6-.1-.2,0-.5-.1-.7-.2-.6-.2-1.1-.4-1.7-.7,0,0-.1,0-.2-.1-.1,0-.3-.2-.4-.3s-.1-.1-.2-.2c-.2-.2-.4-.5-.4-.8-.5-3,.6-3.9,0-5.3l-.3.2h0c0,.1-.1.2-.2.3,0,0,0,.1,0,.2,0,0,0,0-.1.1,0,.3-.2.6-.2.9,0,.3-.1.6-.2.9,0,.2,0,.4-.1.6,0,.2,0,.3,0,.5,0,.1,0,.2,0,.3,0,.2,0,.4,0,.6,0,.5,0,1.1.2,1.6-.7,0-1.1,0-1.5,0h-1c0,0-.1,0-.2,0,0,0-.1,0-.1,0,0,0,0,0,0,0,0,0,0,0,0,0,0,0,0,0,0,0,0,0,0,0,.2,0,.2,0,.5,0,.7,0,.4,0,.8.2,1.2.3.4.1.8.3,1.1.4.4.2.7.3,1.1.5.4.2.7.3,1,.5.2,0,.4.2.5.2.2,0,.4.2.5.2,1.4.5,3,.8,5.1.3.4-.6.7-1.1,1-1.4,0,0,.2-.2.2-.2.1-.1.2-.2.3-.3,0,0,.1,0,.2-.1,0,0,0,0,.1-.1,0,0,0,0,0,0,.2-.1.5-.3.8-.5.2-.1.4-.3.7-.5,0,0,0,0,0,0,.2-.2.5-.4.8-.6h0c0,0,.2-.1.2-.2,0,0,.2-.1.2-.2,0,0,0,0,0,0,0,0,0,0,.1,0,.2,0,.3,0,.5,0,0,0,0,0,0,0,0,0,0,0,0,0,0,.2.1.4.2.6h0s0,0,0,.1c0,0,0,0,0,0,0,0,0,.1,0,.2h0c0,.1,0,.2,0,.3,0,.5-.4,1-.7,1.5,0,.1-.2.2-.2.3h0c0,.1-.1.2-.2.4,0,0,0,.2,0,.3,0,0,0,.2,0,.2,0,.2,0,.4.2.6h0c1.4.7,3,1,4.7.5l2.5-.8c.2,0,.7,0,.8,0,.2.1.2.4.3.6h0c0,1.4-2.6,2.2-3.1,2.5h0l-1.6.7s0,.1,0,.2c0,0,0,.1,0,.2,0,0,0,0,0,0h.4c1.8.2,3.2-.7,4.8-1.6,0,.3,0,.5-.2.8,0,0,0,0,0,0-.1.3-.3.6-.5.8-.1.1-.2.3-.3.4-.4.4-.8.7-1.3,1-.3.2-.6.4-1,.5h0c-.2,0-.4.2-.5.2h0c.2.5.3.5.4.6.3,0,.4.5.1.7,0,0,0,0-.1,0,0,0,0,0,0,0-.1,0-.2.1-.3.2-.2,0-.3.1-.5.2-.3.1-.7.2-1,.3-.2,0-.4,0-.5.1-.2,0-.4,0-.5,0-.2,0-.4,0-.5,0-.2,0-.5,0-.7,0s-.5,0-.7,0c-.5,0-1-.1-1.6-.2-.3,0-.6-.1-.8-.2-.2,0-.3,0-.5-.1-1.1-.3-2-.5-3.1-.2-2.7.6-5.4.5-8,0,0,0-.2,0-.3,0-2.4-.5-4.4-1.6-5.8-3.1-.4-.4-.7-.8-1-1.2-.1-.2-.3-.4-.4-.7,0,0,0,0,0,0-.1-.2-.2-.5-.3-.7-.1-.2-.2-.5-.3-.8,0-.3-.2-.5-.2-.8,0-.3-.1-.6-.2-.9,0-.3,0-.6,0-.9h.4s-.4,0-.4,0c-.2-2.4,0-4.8.8-7.1,0-.3.2-.5.2-.8,0-.1,0-.3.1-.4.1-.3.3-.7.4-1,0-.2.2-.4.3-.7h0c.1-.2.2-.4.3-.6,0-.2.2-.4.3-.5.1-.3.3-.5.5-.8.1-.2.2-.4.4-.5.3-.4.6-.8.9-1.1h0s.2-.7.2-.7h0s0,0,0,0h0c-.2,0-.4,0-.5,0h0c0,0-.1,0-.2,0h0c0,0-.1,0-.2.1,0,0-.2.1-.2.2,0,0,0,0-.1.1,0,0,0,0-.1.1,0,0,0,0-.1.1,0,0-.2.2-.2.2h0c-.2.2-.4.3-.5.3,0-.3-.1-.7-.2-.9l-.5-2.5h0c-.5-2.3-.2-11.8.7-14.9l.4-1.3c0-.7.3-1.6.5-2.6.2-.5.3-1.1.5-1.6.3-.9.7-1.9,1.1-2.8.2-.5.5-.9.7-1.4.5-.9.9-1.7,1.3-2.3h0s0,0,0,0c0,0,0,0,0,0,0,0,.1-.2.2-.3h0c0-.2.3-.5.4-.6h0s0,0,0,0c0,0,0,0,0,0,0-.1.1-.2.2-.4.1-.2.2-.4.4-.6.1-.2.2-.3.4-.5.1-.2.3-.4.4-.5.3-.4.6-.8,1-1.2,0,0,0-.1.2-.2.3-.3.6-.7.9-1h0c.2-.2.5-.5.7-.7,0,0,0,0,0,0,0,0,.2-.2.3-.3.1,0,.2-.2.3-.3.2-.2.4-.4.6-.5.3-.3.5-.5.8-.8.3-.2.5-.4.8-.7.1-.1.3-.2.4-.3,0,0,0,0,0,0,.4-.3.7-.6,1.1-.8.4-.3.8-.5,1.2-.8.2-.2.5-.3.7-.4,1.6-1,3.2-1.8,4.9-2.4.2,0,.5-.2.7-.3.2-.1.5-.2.8-.3.3,0,.6-.2.8-.3.3,0,.6-.2.8-.2.4-.1.8-.2,1.2-.3.3,0,.6-.2.9-.2.4,0,.7-.1,1.1-.2.1,0,.2,0,.3,0,.2,0,.5,0,.7-.1,0,0,.1,0,.2,0,.3,0,.5,0,.8-.1h0c2-.2,4.2-.3,6.1-.1h0c.3,0,.7,0,1,.1.4,0,.9,0,1.3.2,1.2.2,2.3.5,3.5.8.4.1.8.2,1.1.3,1.1.4,2.2.8,3.3,1.3.6.3,1.2.6,1.7.9,1.2.6,2.2,1.4,3.3,2.2.5.4,1.1.9,1.6,1.4,0,0,.1.1.2.2.2.2.5.5.6.7.1.2.3.4.3.6,0,0,0,0-.1,0,0,0,0,0,.1,0h0s0,0,.2,0c0,0,0,0,.1.1s.1.1.2.2c.3.3.5.7.6,1Z"/>
  <path class="st5" d="M75.1,50.6c-.3-2.8-1-5.4-1.6-8,0-.2,0-.3-.1-.5,0-.3-.2-.6-.3-1-.2-.5-.3-1-.5-1.4-.1-.3-.2-.6-.3-.9,0,0,0,0,0,0h0c-.1-.5-.3-1-.5-1.5h0c-.2-.5-.3-1-.5-1.5-.4-1-.8-2-1.4-2.9l-2.1-3.5h0s-1.1-1.8-1.1-1.8c-1.1.5-3.1,1.5-4.5,1.9h0s-.1,0-.2,0c-.2,0-.5.2-.8.3,0,0-.1,0-.2,0h0l-.7.3h0c0,0,0,0-.2,0-.5.2-1,.2-1.6.3-.1,0-.3,0-.4,0-1.4.3-2.8.3-4.2,0-.2,0-.4,0-.7,0,0,0-.2,0-.2,0,0,0-.1,0-.2,0-.4,0-.8-.1-1.2-.2,0,0-.2,0-.3,0-.6-.1-1.1-.3-1.6-.6l-.4-.2h0s-3.9-1.5-3.9-1.5h0c-.1,0-.3-.1-.4-.2-.2,0-.3,0-.5-.1,0,0,0,0-.2,0,0,0-.2,0-.3,0-.2,0-.3,0-.5,0-.2,0-.4,0-.6,0s-.4,0-.6,0c-.5,0-.9.1-1.3.2-.2,0-.4.1-.6.2h0c-.2,0-.4.2-.6.3,0,0-.2,0-.3.2,0,0-.2.1-.3.2-.4.2-.7.5-1,.9-.2.2-.4.4-.5.6-.7.9-1.3,1.9-1.9,2.9-.3.5-.5,1-.7,1.5h0c-.1.3-.3.7-.4,1-.1.3-.2.7-.4,1-.4,1.4-.7,2.8-.9,4.2,0,.7-.1,1.4-.1,2.1s0,.6,0,1c0,0,0,0,0,0t0,0s0,0,0,0h0c0,.2,0,.3,0,.5,0,.2,0,.5,0,.8,0,.2,0,.4,0,.6,0,.3,0,.6.2.9,0,0,0,.2,0,.2,0,.3.1.6.2,1,0,.3.1.5.2.8,0,.2.1.4.2.6,0,0,0,.2,0,.2,0,.2.2.4.3.7,0,.2.2.5.3.7,0,0,0,0,0,0,0,.2.2.4.3.6.1.2.2.4.3.6.1.2.2.4.4.6,0,.1.2.3.3.4,0,.2.2.3.3.5,0,.1.2.2.2.3.2.3.5.6.7.8.1.1.3.3.4.4.1.2.3.3.4.4,1,1,2,1.8,3.2,2.5.6.4,1.2.7,1.8,1,.3.2.6.3.9.4.5-.2.9-.4,1.3-.6.1,0,.3-.1.4-.2h0c1.4-.4,2.8-.5,4.2-.4.1,0,.3,0,.5,0,.2,0,.4,0,.6,0,.2,0,.3,0,.5.1.7.2,1.4.4,2,.8.1,0,.2.1.3.2.1,0,.3.1.4.2.3.2.5.3.8.5.2.2.5.4.7.7.1.1.3.2.4.4.2,0,.4,0,.6,0,.2,0,.3,0,.5,0,.3,0,.5,0,.8-.1.2,0,.5,0,.7-.2.1,0,.2,0,.4,0,.2,0,.5-.1.7-.2s.5-.2.7-.3c.2,0,.4-.1.5-.2.3-.1.6-.3.9-.4.2,0,.3-.2.5-.3.2-.1.4-.2.6-.4.6-.4,1.2-.8,1.8-1.3.4-.3.8-.6,1.1-1,.2-.2.3-.4.5-.5.5-.5,1.1-1,1.7-1.3h0c.1,0,.2-.1.4-.2,0,0,.1,0,.2,0,.1,0,.2-.1.4-.2h0c0,0,.2,0,.2,0,0,0,0,0,0,0,0,0,.1,0,.2,0,.2,0,.4-.1.6-.2.2,0,.4,0,.6,0,.2,0,.4,0,.7,0h0c.2,0,.3,0,.5,0h0s0,0,0,0c0,0,.1,0,.2,0,.1,0,.2,0,.4,0,0,0,.2,0,.3,0,.1,0,.3,0,.5.1,0,0,0,0,0,0,0,0,.1,0,.2,0,0,0,.1,0,.2,0,.1,0,.3,0,.4.2.4.2.8.3,1.1.4,0-1.5-.2-3-.4-4.6ZM68.6,33.9c-.1.6-2.5-.7-5.2-.9-.1,0-.2,0-.3,0-.1,0-.2,0-.3-.2,0,0,0,0-.1-.1,0,0-.1-.2-.2-.2,0,0,0,0,0-.1,0-.1,0-.2,0-.4,0,0,0,0,0,0,.1-.3.4-.6.7-.7,2.3-.8,5.6,1.3,5.3,2.8ZM51.8,31.9h0s0,0,0,0h0s0,0,0,0ZM41.3,33.3c0,0,.2-.2.3-.2.2-.1.3-.3.5-.4.2-.1.3-.2.5-.3.2,0,.3-.2.5-.2,0,0,.2,0,.3-.1,0,0,0,0,.1,0,0,0,0,0,.1,0,.1,0,.2,0,.4-.1.7-.2,1.4-.2,2,0,.1,0,.3,0,.4.1s.3.1.4.2h0s0,0,0,0c0,.4,0,.9-.1,1.4-.5.2-1.1.3-1.7.4-.2,0-.4,0-.6.1-.1,0-.2,0-.3,0-.2,0-.4.1-.6.2-.2,0-.3.1-.5.2s-.3.1-.4.2c-.3.1-.5.2-.7.3-.1,0-.2,0-.3.1,0,0-.2,0-.3.1-.1,0-.2,0-.3,0,0,0-.2,0-.2,0s-.1,0-.2,0h0s0,0,0,0c0,0,0,0,0,0,0,0,0-.1,0-.2,0,0,0-.2,0-.3,0,0,0,0,0,0,0,0,0,0,0-.1,0,0,0,0,0,0,0,0,.1-.2.2-.3.1-.2.3-.4.4-.5,0-.1.2-.2.3-.3ZM45.1,47.4s-.6,0-3.6-1.4l-.3-.3h0s0,0,0,0c0,0-.2,0-.3,0-1.1-1.4-1.9-3.6-1.2-5.4-.8-1.6,2.5-4.4,4.2-4.6h0c.6,0,1.9,0,2.8.3,0,0,.2,0,.3.1,0,0,.2,0,.2.1.2.1.4.3.4.5,0,.1,0,.3,0,.5.1.1.3.2.4.4,0,0,0,0,.1.1,0,0,.2.2.2.3,0,.1.2.2.3.4,0,0,0,.1.1.2,0,.1.1.2.2.3h0s0,0,0,0l.4.6h0c.3.5.5,1.3.6,1.7h0c0,0,0,.1,0,.2,0,.1,0,.3-.1.4,0,0,0,0,0,0h0s0,0,0,0c0,.2,0,.4,0,.6,0,.3,0,.6,0,.9,0,0,0,0,0,.1,0,0,0,.2,0,.3,0,.1,0,.3-.1.5,0,.1,0,.3-.1.5,0,.2-.2.4-.3.5,0,0-.1.2-.2.3-.9,1.3-2.6,1.8-4,1.7ZM50.8,53.1c.3,0,.4,0,.6,0-.1,0-.3,0-.6,0ZM59,54.1s0,0,0,0c0,.2-.2.4-.4.5-.1,0-.2.2-.4.2,0,0-.1,0-.2,0-.2,0-.4.1-.6.2-.1,0-.3,0-.4,0-.1,0-.2,0-.4,0-.3,0-.6,0-.8,0-.1,0-.2,0-.3,0-.1,0-.3,0-.4-.1-.1,0-.2,0-.3-.1,0,0-.2-.1-.2-.2,0,0,0,0,0,0,0,0,0,0,0-.1,1.8,0,3.2,0,4.7-.7,0,.1,0,.2,0,.3ZM61.8,50.2c0,.1-.1.2-.2.3,0,.1-.2.2-.3.3-.1.1-.3.2-.4.3,0,0,0,0-.1,0-.1,0-.2.1-.3.2-.2.1-.5.2-.7.3-.2,0-.4.2-.6.3h0c-2.2.9-4.4.8-6.5.1-.3,0-.5-.2-.8-.3-.8-.3-1.5-.7-2.2-1.1l-1.4.4h0s0,0,0-.1h0c0-.3,0-.6,0-.8,0-.2,0-.3.2-.5,0,0,0,0,0-.1,0,0,.1-.1.2-.2,0,0,.1-.1.2-.2,0,0,.2-.2.3-.2,0,0,.2-.1.3-.2,0,0,.2,0,.2,0,.1,0,.3,0,.4,0,.1,0,.3,0,.4,0,0,0,.1,0,.2,0,0,0,0,0,.1,0l-.2,1c3.6,2.1,7.9,1.9,11.5-.6,0,.4-.2.7-.3,1ZM70.2,41.5c0,.2,0,.5-.1.7,0,.3-.2.5-.3.8,0,0,0,.2-.1.2,0,0-.1.2-.2.3,0,0-.2.2-.2.3,0,.2,0,.3-.2.4-.1.2-.7.8-1.3,1.3.1,0,.3,0,.5,0h-.5s0,0,0,0c-.2.2-.5.4-.6.5-.9.5-1.8.4-2,.3-.4,0-.7,0-1-.2h0c0,0-.1,0-.2,0-.2,0-.5-.1-.6-.2-.2,0-.3-.2-.5-.2s-.1-.1-.2-.2c0,0-.1-.1-.2-.2s-.1-.1-.2-.2c-.1-.1-.2-.3-.3-.4,0-.1-.1-.2-.1-.3,0,0,0-.2-.1-.2,0,0,0-.1,0-.2,0,0,0-.1,0-.2,0,0,0-.2,0-.2s0-.2,0-.2c-.5-1.3-.7-2.8-.4-4.2,0-.3.2-.6.3-.9.1-.3.3-.5.5-.8,0-.1.2-.3.3-.4h0s-.3-.4-.3-.4c0,0,.1-.2.4-.5,0,0,.1-.1.2-.2,0,0,0,0,0,0,.1,0,.2-.2.4-.3.2-.1.3-.2.5-.3.3-.2.6-.3.9-.4.1,0,.3,0,.4-.1.1,0,.2,0,.3,0,.3,0,.6,0,.9,0,0,0,.2,0,.2,0,.2,0,.3,0,.5.1.3,0,.5.2.8.3.1,0,.2.1.3.2.1,0,.3.2.4.3,0,0,.1.1.2.2.1.1.3.2.4.4.2.2.3.4.5.6,0,0,0,.1.1.2,0,0,0,.1.1.2.1.2.2.4.3.5,0,0,0,.1,0,.2,0,.1,0,.3,0,.4,0,0,0,.1-.1.2h0s0,0,0,0c0,.1,0,.3.1.4.1.5.2,1,.2,1.5,0,.2,0,.3,0,.5s0,.2,0,.3Z"/>
  <path class="st5" d="M33.5,40.7c0,.7-.1,1.4-.1,2.1,0-.7,0-1.4.1-2.1Z"/>
  <path class="st5" d="M34.4,36.5c-.4,1.4-.7,2.8-.9,4.2.1-1.4.4-2.8.9-4.2Z"/>
  <polygon class="st5" points="49.3 29.5 49.3 29.5 45.4 28 49.3 29.5"/>
  <path class="st5" d="M54,30.6c-.2,0-.4,0-.7,0,0,0-.2,0-.2,0,0,0,.1,0,.2,0h0c.2,0,.4,0,.7.1Z"/>
  <path class="st5" d="M58.2,30.6c-1.4.3-2.8.3-4.2,0,1.4.2,2.8.2,4.2,0Z"/>
  <path class="st5" d="M60.3,30.1h0c0,0,0,0-.2,0,0,0,.1,0,.2,0h0Z"/>
  <path class="st5" d="M61.2,29.8c0,0-.1,0-.2,0h0l-.7.3.7-.3h0c0,0,.1,0,.2,0Z"/>
  <path class="st5" d="M66.6,27.6c-1.1.5-3.1,1.5-4.5,1.9h0c1.3-.4,3.4-1.4,4.4-1.9h0Z"/>
  <path class="st0" d="M39.9,94.9h0c0,0,.1,0,.2-.1,0,0-.1,0-.2.1ZM41.4,91.9h0s0,0,0,0c0,0,0,0,0,0,0,.1,0,.2.1.3,0,0,0-.2,0-.3ZM41.3,101.8h0s.3,0,.3,0h-.2ZM42.2,95.7h0s0,0,0,0c0,0,0,0,0,0ZM42.3,100.8c0,0,0,.1-.1.2,0,0,0,0,.1-.2h0ZM44,91.5h0c.2.4.4.7.6,1.1-.2-.4-.4-.7-.6-1.1Z"/>
  <path class="st0" d="M78.8,59.8h0s.4,0,.4,0h-.4Z"/>
  <path class="st0" d="M26.8,77.8c0,0-.2-.2-.3-.2.1,0,.2.2.3.2Z"/>
  <polygon class="st0" points="44 91.5 44 91.5 44 91.5 44 91.5"/>
  <path class="st0" d="M44.3,91.4s0,0,0,0h-.3c0,.1.3,0,.3,0h0Z"/>
  <path class="st0" d="M44.5,91.5c0,0-.1,0-.2,0,0,0,0,0,.2,0Z"/>
  <path class="st0" d="M48.8,94.4c0-1.7,0-3.4.2-5.2l-4-1.5s0,0,0,.2c0,0,0-.1,0-.2h0s0,0,0,0h0s4,1.5,4,1.5c-.2,1.8-.2,3.5-.2,5.2Z"/>
  <path class="st0" d="M42.2,25.6c-.2.2-.4.4-.6.5h0c.2-.2.4-.4.7-.5Z"/>
  <path class="st0" d="M44.2,24.1c-.7.5-1.4,1-2,1.5.7-.6,1.3-1.1,2-1.5Z"/>
  <path class="st0" d="M50.7,21.2h0c-.4.1-.8.2-1.2.3.4-.1.8-.2,1.2-.3Z"/>
  <path class="st0" d="M101.4,54.4h0c0,.2-.1.3-.2.5h0c-.2.3-.3.6-.6.9h0c-.2.2-.4.4-.6.7-.2.2-.4.4-.7.6-.2.1-.3.3-.5.4-.3.2-.7.4-1,.6-.2.1-.4.2-.6.3-.3.1-.7.3-1,.4,0,0-.2,0-.3.1-.3.1-.7.2-1,.3-.2,0-.4,0-.6.1-.2,0-.4,0-.5,0-.9.1-1.6.1-2.7.2h0s0,0,0,0l1.2.9-1,1h0s0,0,0,0c-.1.1-.2.2-.3.4-.1.1-.3.2-.4.4-1.6,1.5-3.9,3.6-6,4.8-.5.3-.9.5-1.4.7h0c0,0-1.2.3-2.3.6-.2,0-.5,0-.7.1,0,0-.2,0-.2,0-.2,0-.4,0-.6,0-.2,0-.3,0-.4,0,0,0-.1,0-.2,0-.1,0-.2,0-.3,0,0,0,0,0-.1,0,0,0,0,0,0,0,0,0,0-.2,0-.3,0-.2,0-.4,0-.6,0-.3,0-.7.1-1.1,0-.3,0-.5,0-.8,0-.3,0-.5,0-.8,0-.6,0-1.1,0-1.7,0-.2,0-.4,0-.6,0-.8,0-1.5,0-2.1h0c0-.3,0-.6,0-.8h.4s.1,0,.2,0h1.3c.2,0,.4,0,.6,0,.2,0,.3,0,.5-.1.2,0,.4-.1.5-.2.3-.1.6-.3.9-.4,2-.4,3.4-2.1,5-3.4,0-.3.2-.7.2-1,0-.3.2-.6.3-1h0c0-.2.1-.5.2-.7,0,0,0,0,0,0,0-.2.2-.5.3-.7.6-.8.9-1.4,1.1-2,0,0,0-.2,0-.2,0-.2.1-.4.2-.5.1-.3.2-.6.3-.9.1-.3.3-.5.5-.5,0,0,.1,0,.2,0,0,0,0,0,.1,0,0,0,0,0,.1,0,0,0,.2,0,.2,0,0,0,0,0,0,0,0,0,0,0,0,0,0,0,0,.1,0,.2,0,0,0,0,0,.1,0,0,0,0,0,0,0,0,0,0,0,.2,0,0,0,.1,0,.2,0,0,0,.1,0,.2,0,.2,0,.4,0,.6h0s-.3,1.8-.3,1.8h0c0,0,0,.2,0,.2,0,0,0,.2.1.3,0,.1.2.3.3.4,0,.2.2.3.2.5,0,.1,0,.2,0,.3h0s0,0,0,0c.1,0,.2,0,.3,0,0,0,0,0,0,0,0,0,0,0,0,0,0-.2.1-.4.2-.5h0c0-.3-.2-.8,0-.9.2-.1.8-.3,1-.3h0l3.7-2.2c.5-.3,1.5-.5,2,0h0s0,0,0,0c0,.2-.4.4-.6.5h0l-2.7,2.1-.8-.2h-.5c0,0,.6,1,.6,1h0s0,0,.1.1c0,0,0,0,.1.1.3.3.5.6.6,1,0,.1,0,.3.2.4.1.4.2.8.4,1.2h0c.2-.2.5-.3.7-.5.2-.2.5-.3.7-.5.2-.1.3-.2.5-.3.3-.2.7-.4,1-.6.2,0,.3-.2.5-.3.2,0,.4-.2.5-.2.2.4.1.8,0,1.2Z"/>
  <path class="st0" d="M78.6,66.5c0,.4,0,.7-.1,1.1,0-.3,0-.7.1-1.1Z"/>
  <polygon class="st0" points="92.3 60.5 91.4 61.5 92.3 60.5 92.3 60.5"/>
  <path class="st0" d="M93.8,59.4h0c-.9.1-1.6.1-2.7.2h0c1.1,0,1.9,0,2.7-.2Z"/>
  <path class="st0" d="M63.1,90.2l-.9,3.3c-.1.4-.2,1.1-.2,1.5,0,0,0,0,0,0,0-.4.1-1,.2-1.4l.9-3.3s0,0,0,0Z"/>
  <path class="st0" d="M74,104.3h0c0,0,0-.1,0-.2,0,0,0,.1,0,.2Z"/>
  <path class="st0" d="M74.7,103.7h0c-.2-.2-.4-.3-.6-.5.2.1.4.3.6.5Z"/>
  <path class="st0" d="M74.8,104c0,0,0-.2,0-.2h0c-.2-.2-.4-.3-.6-.5.2.1.4.3.6.5,0-.1,0-.3,0-.4,0,0,0-.2-.1-.3,0-.1-.1-.2-.2-.3,0,0-.1-.2-.2-.3,0-.1-.2-.2-.3-.3-.2-.2-.4-.4-.7-.5-.1,0-.3-.2-.4-.3-.1,0-.3-.2-.5-.2,0,0,0,0,0,0-.2,0-.3-.2-.5-.2-.2,0-.3-.2-.5-.2-.1,0-.3-.1-.5-.2-.2,0-.3-.1-.5-.2-.3-.1-.6-.2-.8-.3-.2,0-.5-.2-.6-.3l-3.1-1.4h0s0,0,0,0l-1.9-1.2c-.3-.4-.6-.9-.7-1.3-.1-.3-.2-.6-.2-1,.2.2.4.4.6.6,0,0,0,0,0,0,0,0,0,0,0,0,.1.2.3.2.5.3.3.3.6.6,1,.9-.4-1.8-.4-3.2,0-5l.6-3h0c.2-1,.7-1.9,1-3.1-.8.5-1.7.9-2.5,1.3-.9.4-1.7.7-2.6,1-.9.3-1.8.5-2.7.8-.5,0-.9.2-1.4.3-.3,0-.7.1-1,.1-.2,0-.3,0-.5,0,0,.7,0,1.5.2,2.2h0s-1,8.4-1,8.4c0,.1,0,.3,0,.4s0,.2,0,.3c0,.1,0,.2,0,.3,0,0,0,.2,0,.2,0,.1,0,.3.1.4.1.3.3.5.6.8.1.1.2.2.4.3.1,0,.3.2.4.3.1,0,.2.1.4.2.1,0,.2,0,.4.1,1.8.5,3.6.9,5.3,1.8.9.5,2.3,1.6,3.2,1.8.2,0,.5,0,.7,0,.2,0,.4-.5.3-.7,0,0,0,0,0-.1h0c.2-1.6-2-4.6-3.6-4.8,0,0-.1,0-.2-.1,0,0,0,0-.1,0,0,0,0,0-.1,0-.1,0-.2,0-.3-.1,0,0,0,0-.1,0-.4-1-1-.5-1-1.7,0,.2.3.4.5.6,0,0,.1.1.2.1,0,0,.2.1.3.2,0,0,.1,0,.2,0,0,0,.1,0,.2,0,0,0,.1,0,.2,0,.2,0,.4,0,.6.1.1,0,.2,0,.3,0,0,0,.2,0,.3.1.3.2.7.3,1,.5,0,0,0,0,0,0,.1,0,.2,0,.3.1.1,0,.2,0,.3,0,0,0,0,0,0,0,0,0,0,0,0,0l1.7,2c0,0,.2,0,.3,0,.3,0,.5,0,.8,0,.8,0,1.7.2,2.5.4.4,0,.8.2,1.3.4.2,0,.4.2.6.2.3.2.8.2,1.1,0,0,0,0-.1,0-.2,0,0,0,.1,0,.2,0,0,0,0,0,0,0,0,.1,0,.2,0,0,0,.1,0,.2,0,0,0,.1,0,.2,0,0,0,0,0,0,0s0,0,0,0c0,0,0,0,0,0,0,0,0-.2,0-.3ZM59.6,92.3c0,.5,0,1-.1,1.4,0,.3-.1.6-.2.8,0,.1,0,.3-.1.4,0,.2-.1.3-.2.5-.5,1.2-1,2.4-.8,4.3-.4-.5-.6-1.1-.5-1.9,0-.6.1-1.1.3-1.5,0,0,0-.2,0-.3.3-.9.7-1.7.8-3v-1c0,0,0,0,0,0,0-.4,0-.8.1-1.3.2.3.3.7.5,1,0,.2.1.4.1.5h0ZM62.2,93.5c-.1.4-.2,1.1-.2,1.5,0,0,0,0,0,0-.7-1,0-3,.4-4,0,0,.1-.1.2-.2,0,0,.1-.1.2-.2,0,0,.1-.1.2-.2,0,0,.1-.1.2-.2,0,0,0,0,0,0l-.9,3.3Z"/>
  <path class="st0" d="M56.2,91.5h0c-.2-.7-.3-1.5-.2-2.2,0,.7,0,1.5.2,2.2Z"/>
  <path class="st0" d="M56.5,89.2c-.2,0-.3,0-.5,0h0c.2,0,.3,0,.5,0Z"/>
  <path class="st0" d="M59.6,92.3h0c0-.2,0-.3-.1-.5,0,.2.1.4.1.5Z"/>
  <path class="st0" d="M61.6,88.1c-.9.3-1.8.5-2.7.8.9-.2,1.8-.5,2.7-.8Z"/>
  <path class="st0" d="M66.8,85.7h0s0,0,0,0c-.8.5-1.7.9-2.5,1.3.9-.4,1.7-.8,2.6-1.3Z"/>
  <path class="st0" d="M72.7,55.7c-.1,0-.2,0-.3,0-2,0-3.5.5-4.9,1.9-2.7,2.8-6.1,4.7-10,5.2h0c3.9-.6,7.3-2.5,10-5.2,1.4-1.5,2.9-1.9,4.9-1.9.1,0,.2,0,.3,0Z"/>
  <path class="st0" d="M76.5,58.3s0,0,0,0c0,0-.2-.2-.2-.3.1,0,.2.2.2.3,0,0,0,0,0,0Z"/>
  <path class="st0" d="M75.5,55.2h0c0-1.5-.2-3-.4-4.6-.3-2.8-1-5.4-1.6-8h0c.6,2.6,1.3,5.2,1.6,8,.2,1.6.3,3.1.4,4.6Z"/>
  <path class="st0" d="M77,56.3h0c-.1,0-.3,0-.4-.2.1,0,.3.1.4.2Z"/>
  <path class="st0" d="M26,71.6c.2.2.5.3.8.4-.3-.1-.6-.2-.8-.4Z"/>
  <path class="st0" d="M26.5,71.3c-.2,0-.4,0-.7,0h0c.2,0,.5,0,.7,0Z"/>
  <path class="st0" d="M40,71.1c-.3.2-.5.3-.8.5.2-.2.5-.3.8-.5Z"/>
  <path class="st0" d="M41.5,70c-.3.2-.6.4-.8.6.2-.2.5-.4.8-.6Z"/>
  <path class="st0" d="M41.4,71.1c.2-.2.4-.3.6-.5-.2.2-.4.3-.6.5Z"/>
  <path class="st0" d="M42,69.6s0,0,0,0c0,0-.2.1-.2.2,0,0,.2-.1.2-.2,0,0,0,0,0,0Z"/>
  <polygon class="st0" points="38.5 86.2 37.1 85.8 37.1 85.8 38.5 86.2"/>
  <path class="st0" d="M40.1,94.7c0,0-.1.1-.2.1h0c0,0,.1,0,.2-.1Z"/>
  <path class="st0" d="M40.2,88.1h0c0,0-.1,0-.2,0,0,0,.1,0,.2,0Z"/>
  <path class="st0" d="M41.4,91.9h0s0,0,0,0c0,0,0,0,0,0Z"/>
  <polygon class="st0" points="41.4 91.9 41.4 91.9 40.2 88.1 41.4 91.9"/>
  <path class="st0" d="M31.2,103.5c0,0-.1.2-.2.3h0c0,0,.1-.2.2-.3Z"/>
  <path class="st0" d="M34.7,101c-.7.4-1.3.7-1.9,1,.6-.4,1.3-.7,1.9-1Z"/>
  <path class="st0" d="M51.9,77.6c0,0,0,.1-.1.2h0s0-.1.1-.2Z"/>
  <path class="st0" d="M53,76.7c-.2,0-.4.2-.6.2,0,0,0,0-.1,0,0,0,0,0,.1,0,.2,0,.4-.1.6-.2Z"/>
  <path class="st0" d="M78.5,68.6c0,0-.1,0-.1,0,0,0,0,0,.1,0Z"/>
  <path class="st0" d="M84.7,67c-.5.3-.9.5-1.4.7h0c.4-.2.9-.4,1.4-.7Z"/>
  <path class="st0" d="M91.4,61.5l-.4.4c.1-.1.2-.2.3-.4h0Z"/>
  <path class="st0" d="M74.7,103.8h0c-.2-.2-.4-.3-.6-.5.2.1.4.3.6.5,0-.1,0-.3,0-.4,0,.1,0,.3,0,.4h0Z"/>
  <path class="st0" d="M67.8,103.2h-.3c0,0,.2,0,.3,0Z"/>
  <path class="st0" d="M74,104.3h0c-.3.1-.8,0-1.1,0-.2,0-.4-.2-.6-.3.2,0,.4.2.6.2.3.2.8.2,1.1,0,0,0,0-.1,0-.2,0,0,0,.1,0,.2Z"/>
  <path class="st7" d="M76.4,69.9s0,0,0,0h0s0,0,0,0h0Z"/>
  <path class="st0" d="M41.6,101.9h-.3s0,0,0,0c-.1,0-.2.2-.3.3,0-.1.2-.2.3-.3h.3Z"/>
  <path class="st7" d="M58.2,30.6c-1.4.3-2.8.3-4.2,0-.2,0-.4,0-.7,0h0s.2-.5.2-.5c0-.1.4.1.6.2.7.3,2-.5,4,.3Z"/>
  <path class="st11" d="M45.9,73.2c0,0-.2,0-.2,0-.1,0-.3,0-.4,0-.1,0-.2,0-.3,0-.2,0-.4,0-.6,0h0c0,0-.1,0-.2,0,0,0-.1,0-.2,0,0,0-.1,0-.2,0-.1,0-.2-.2-.3-.3.2-.3.4-.8.6-1.1,0,0,0-.1,0-.2l1.9,1.6Z"/>
  <path class="st3" d="M71.6,79.7c-.2.3-.3.6-.6.9-.5.5-1,1-1.6,1.4-.3.2-.6.4-.8.7,0-.1.2-.4.3-.6l1.8-1.8c0,0,.2-.2.2-.2,0,0,.1-.2.2-.2,0,0,.1-.1.2-.2,0,0,.1-.1.2-.2h0s0,0,0,0h0Z"/>
  <path class="st7" d="M76.9,58c-.1,0-.2.2-.4.2,0,0,0,0,0,0,.1,0,.2-.1.4-.2Z"/>
  <path class="st11" d="M54.3,72.4c0,.3-.3.6-.6.9-.3.3-.7.5-1,.6l-1,.3c0,0,0-.3,0-.4,0,0,0,0,.1,0,.9-.2,1.7-.8,2.5-1.3Z"/>
  <path class="st11" d="M55.3,73.4c-.1.1-.2.2-.3.3-.3.3-.6.5-1,.8,0-.3.2-.6.5-.8.1,0,.3-.2.4-.2.1,0,.3,0,.4,0Z"/>
  <path class="st11" d="M53,75.1l-1.3.6v-.6c.1,0,.2,0,.3,0,.2,0,.4,0,.6,0h.3Z"/>
  <path class="st11" d="M56.8,70.9h0c-.2.4-.3.8-.5,1.2,0-.5,0-1.1.5-1.2h0Z"/>
  <path class="st1" d="M58.4,71.5c0,.1,0,.2,0,.3,0,0,0,.1,0,.2h0c0,.1-.1.3-.2.4h-.2s0,0,0,0l.5-1s0,.1,0,.2Z"/>
  <polygon class="st7" points="60.3 30.1 60.2 30.1 60.2 30.1 60.3 30.1"/>
  <path class="st7" d="M61,29.8l-.7.3s0,0,0-.1c0,0,0-.1.1-.2,0,0,0,0,0,0,0,0,0,0,0,0h0s0,0,0,0c0,0,.1,0,.2,0,0,0,.1,0,.2.1h0Z"/>
  <path class="st0" d="M77.6,61.2l-.2.3h-.2v-.2s.1-.5.1-.5h0s.1,0,.2.1h0s0,0,0,0c0,0,0,0,0,0,0,0,0,0,0,.1Z"/>
  <path class="st7" d="M61.6,28.1s0,.1,0,.2c0,0,0,0,0,0s0,0,0,0c0,0-.2,0-.2,0s-.2,0-.2,0c.1-.2.3-.3.6-.4Z"/>
  <path class="st7" d="M49.8,29.6l-.4-.2h0l.2-.2s.2,0,.2,0v.3Z"/>
  <polygon class="st7" points="79.2 59.8 78.8 59.8 78.8 59.8 79.2 59.8"/>
  <polygon class="st0" points="77.5 61.7 77.2 61.5 77.4 61.5 77.5 61.7"/>
  <path class="st5" d="M45.9,47c-.5.4-1,.1-1.7-.1-1.1-.3-1.9-.6-2.7-.9,3,1.3,3.6,1.4,3.6,1.4,1.3,0,3-.4,4-1.7-.8,1-2,1.5-3.1,1.3ZM46.8,32.1h0c0,.4,0,.9-.1,1.3,0,0,0,0,0,0,.1-.4.2-.9.1-1.4ZM47.6,36.8c0,.1,0,.3,0,.5h0c0-.2,0-.3,0-.5ZM49.8,42.5c0,.3,0,.6,0,.9,0-.3,0-.6,0-.9ZM49.7,44.4c0-.2.1-.4.1-.5,0-.1,0-.2,0-.3,0,.3,0,.6-.1.9ZM50.8,48.8s0,0-.1,0c0,0,0,0,.1,0l-.2,1,.2-1ZM61.6,43.2c0,0,0,.1,0,.2,0,0,0-.1,0-.2,0,0,0,0,0,0ZM51.8,31.9h0,0s0,0,0,0h0ZM66.8,45.5l.4-.2s0,0,0,0c-.9-.2-1.4.7-2.5.7h-.3c0,0-.1,0-.2,0,.3.1.6.2,1,.2.3,0,1.1.1,2-.3.2-.1.4-.3.6-.5h-1ZM69.2,43.8c-.2.2-.4.5-.5.8l-1.5.8c.2,0,.4,0,.6,0,.6-.5,1.2-1.1,1.3-1.3,0,0,.1-.2.2-.4,0,0,0,0,0,0ZM69.8,43c.1-.2.2-.5.3-.8,0,.3-.2.5-.3.8ZM70,38c0,.1,0,.3,0,.4,0-.1,0-.3,0-.4ZM71.8,37.3c.2.5.3,1,.5,1.5h0c-.1-.5-.3-1-.5-1.5Z"/>
  <path class="st0" d="M77,56.3c-.1,0-.3,0-.4-.2-.1,0-.3-.1-.4-.2-.1,0-.2-.2-.4-.3-.1,0-.2-.2-.3-.3h0c0-1.5-.2-3-.4-4.6-.3-2.8-1-5.4-1.6-8h0c0,0,0-.2,0-.3-.1-.4-.2-.8-.4-1.2-.2-.5-.3-1-.5-1.4-.1-.3-.2-.6-.3-1h0s0,0,0,0h0s0,0,0,0c-.1-.5-.3-1-.5-1.5h0c-.2-.5-.3-1-.5-1.5-.4-1-.8-2-1.4-2.9l-2.1-3.5h0s-1.1-1.8-1.1-1.8h0s0,0,0,0l.6-.2h0c2.8,2.1,5.5,7.9,6.8,12.4.5,1.5.8,2.9.9,3.9,1.3,4.1,1.3,8.6,2,12.7Z"/>
  <path class="st0" d="M72.3,38.8h0c-.1-.5-.3-1-.5-1.5.2.5.3,1,.5,1.5Z"/>
  <path class="st0" d="M72.6,39.7c-.1-.3-.2-.6-.3-.9h0c0,.3.2.6.3.9Z"/>
  <path class="st0" d="M73.5,42.6h0c0-.2,0-.3-.1-.5,0,0,0,.2,0,.3,0,0,0,.2,0,.2Z"/>
  <path class="st0" d="M74.8,24.5c-.2,0-.4.2-.6.2-.2,0-.4.2-.6.3-.2,0-.4.2-.6.3-.2.1-.5.2-.8.4-.1,0-.3.2-.4.2-.1,0-.3.2-.4.2-.4.3-.9.6-1.3.9-.2.2-.4.3-.7.5l-.8-1.2,3.3-1.4c.8-.4,1.8-.5,2.8-.4Z"/>
  <path class="st9" d="M71.4,26.1c-.4.3-.9.6-1.3.9.5-.3.9-.6,1.3-.9Z"/>
  <polygon class="st0" points="92.4 50 92.1 51.7 92.4 50 92.4 50"/>
  <path class="st0" d="M94.4,59.3c-.2,0-.4,0-.5,0h0c.2,0,.4,0,.5,0Z"/>
  <path class="st0" d="M101.4,54.4c0,.2-.1.3-.2.5,0-.2.1-.3.2-.5h0Z"/>
  <path class="st0" d="M92.4,50s0,0,0,0c0-.2,0-.4,0-.6,0,.2,0,.5,0,.6Z"/>
  <path class="st0" d="M101.9,51.4h0c0,1.5-.5.5-2.3,1.7l-1.7,1.2-.4-1.2v-.3q0,0,0,0s0,0,0,0c.4-.2,2-1.6,3.2-2,0,0,.2,0,.3,0,0,0,0,0,.1,0,.5,0,.8.1.8.8Z"/>
  <path class="st0" d="M95.9,51.9h0s-.5,0-.5,0h0s.5,0,.5,0h0Z"/>
  <path class="st0" d="M100,49.5s0,0,0,0c0,0,0,0,0,0h0Z"/>
  <path class="st0" d="M100,49.6c0,.2-.4.4-.6.5,0,0,0,0,0,0h0c.2,0,.6-.3.6-.5Z"/>
  <path class="st0" d="M99.4,50l-2.7,2.1-.8-.2h0s.8.1.8.1l2.7-2.1s0,0,0,0Z"/>
  <path class="st2" d="M80,97.8c0,0,0,0,0,0s0,0,0,0,0,0,0,0,0,0,0,0Z"/>
  <path class="st10" d="M48.6,43.2h0c.1,1-.7,1.7-1.4,2.1-.4.2-.7.3-1,.3s-.2,0-.3,0c0,0-.2,0-.3,0-.1,0-.2,0-.3-.1,0,0-.1,0-.2-.1,0,0-.2,0-.2-.1,0,0-.2-.1-.3-.2h0c0,0-.2-.1-.2-.2h0c-.2-.1-.3-.2-.4-.4-.4-.4-.8-.8-.7-1.5,0,0,0-.2,0-.3l1.4.3s0,0,.1,0c.1,0,.3,0,.5,0,.2,0,.3,0,.4,0,0,0,0,0,.1,0,0,0,0-.1.1-.2,0-.1.1-.3.2-.4,0-.2,0-.3.1-.4.6-.1,1.4-.4,1.8-.8,0-.2-.2-.4-.3-.6-.2-.2-.5-.4-.8-.5-.2,0-.4-.2-.6-.2-.1,0-.2,0-.3-.1,0,0,0-.2,0-.4t0,0c0-.2,0-.4.1-.5,0,0,0-.1,0-.2,0,0,0-.1,0-.1,0,0,0,0,0,0h0c1-.6,2.1.5,2.5.8,0,0,0,0,0,0,0-.1-.1-.2-.2-.3,0,0,0-.1-.1-.2,0-.1-.2-.2-.3-.4,0,0-.2-.2-.2-.3,0,0,0-.1-.1-.1-.1-.1-.3-.2-.4-.4h-.2s0,.5,0,.5c0,0,0,0,0,0s0,0-.1,0c0,0,0,0,0,0,0,0,0,0,0,0h0s0-.4,0-.4h0c0,0,0-.1,0-.2,0,0,0,0-.1-.1-.2-.1-.4-.2-.7-.3,0,0-.2,0-.2,0-.2,0-.3,0-.5,0-.4,0-.8,0-1.3,0,0,0-.1,0-.2,0-.3,0-.7.2-1,.3-.1,0-.3.1-.4.2-.2,0-.4.2-.6.3s-.4.2-.5.4c-.7.6-1.3,1.4-1.8,2.5-.7,1.8.1,4,1.2,5.4.2,0,.3,0,.3,0,0,0,0,0,0,0h0s0,0,0,0h0c-.5-.5-.4-1.3-.6-1.9h0c-.2-.7-.2-1.4,0-2,0-.1,0-.3,0-.4,0-.1,0-.3.2-.4,0-.1.1-.3.2-.4,0-.1.1-.3.2-.4.2-.2.3-.5.5-.7,0-.1.2-.2.3-.3,0,0,.2-.2.3-.3,0,0,.2-.1.3-.2,0,0,0,0,.1,0,.3-.2.7-.4,1.1-.5.3,0,.7-.1,1-.1,0,0,0,0,0,0-.1,0-.3.1-.4.2-.1,0-.3.2-.4.3-.1,0-.2.2-.3.2-.2.2-.4.4-.5.6,0,0,0,.1-.1.2,0,.1-.1.2-.2.4-.1.2-.2.5-.3.8h0c0,.2,0,.3,0,.5h0c0,0,0,.2,0,.2,0,.4,0,.8,0,1.2.2.9.6,1.8,1.4,2.5.2.2.5.4.7.5s.5.2.8.3c.8.1,1.6,0,2.2-.5.3-.2.6-.5.8-.8.3-.5.6-1,.6-1.6h0s-.6,0-.6,0ZM44.1,39.5c.3-.2.8-.2,1.2-.1,0,0,.2,0,.2.2s0,0,0,0c.4.8.1,1.5-.4,1.9h0s0,0,0,0c0,0,0,0,0,0,0,.1,0,.3,0,.4,0,0,0,0,0,0h-1.7l.3-.8c-.2-.7-.2-1.4.3-1.8Z"/>
  <path class="st4" d="M49.8,43.5s0,0,0,.1c0,0,0,.2,0,.3,0,.1,0,.3-.1.5,0,.1,0,.3-.1.5,0,.2-.2.4-.3.5,0,0-.1.2-.2.3-.9,1.3-2.6,1.8-4,1.7,0,0-.6,0-3.6-1.4l-.3-.3h0s0,0,0,0c-.5-.5-.4-1.3-.6-1.9h0s.6-1.7.6-1.7c0,0,0-.1,0-.2,0,0,0-.1,0-.2,0,0,0-.2.1-.2,0-.1.2-.2.3-.3,0,0,.1-.1.2-.2.2,0,.3-.2.5-.2,0,0,.2,0,.2,0h0c0,.2,0,.3,0,.5h0c0,0,0,.2,0,.2,0,.4,0,.8,0,1.2.2.9.6,1.8,1.4,2.5h0c.2.2.5.4.7.5s.5.2.8.3c.8.1,1.6,0,2.2-.5.3-.2.6-.5.8-.8.3-.5.6-1,.6-1.6v-.3l.3-1h.2s0,0,0,0c0,.2,0,.4,0,.6,0,.3,0,.6,0,.9Z"/>
  <path class="st10" d="M46.7,33.5c-.5.2-1.1.3-1.7.4-.2,0-.4,0-.6.1-.1,0-.2,0-.3,0-.2,0-.4.1-.6.2-.2,0-.3.1-.5.2s-.3.1-.4.2c-.3.1-.5.2-.7.3-.1,0-.2,0-.3.1,0,0-.2,0-.3.1-.1,0-.2,0-.3,0,0,0-.2,0-.2,0s-.1,0-.2,0h0s0,0,0,0c0,0,0,0,0,0,0,0,0-.1,0-.2,0,0,0-.2,0-.3,0,0,0,0,0,0,0,0,0,0,0-.1,0,0,0,0,0,0,0,0,.1-.2.2-.3.1-.2.3-.4.4-.5,0-.1.2-.2.3-.3,0,0,.2-.2.3-.2.2-.1.3-.2.5-.4.2-.1.3-.2.5-.3.2,0,.3-.2.5-.2,0,0,.2,0,.3-.1,0,0,0,0,.1,0,0,0,0,0,.1,0,.1,0,.2,0,.4-.1.7-.2,1.4-.2,2,0,.1,0,.3,0,.4.1s.3.1.4.2h0s0,0,0,0c0,.4,0,.9-.1,1.4Z"/>
  <path class="st8" d="M47.6,37.2h0s-.2,0-.2,0h-.4s0,0,0,0c0,0,0-.1,0-.2s0,0-.1-.1c-.2-.1-.4-.2-.7-.3,0,0-.2,0-.2,0-.2,0-.3,0-.5,0-.4,0-.8,0-1.3,0,0,0-.1,0-.2,0-.3,0-.7.2-1,.3-.1,0-.3.1-.4.2-.2,0-.4.2-.6.3s-.4.2-.5.4c-.7.6-1.3,1.4-1.8,2.5-.8-1.6,2.5-4.4,4.2-4.6.6,0,1.9,0,2.8.3,0,0,.2,0,.3.1,0,0,.2,0,.2.1.2.1.4.3.4.5,0,.1,0,.3,0,.5Z"/>
  <path class="st8" d="M59.1,53.8c0,.1,0,.2,0,.3s0,0,0,0c0,.2-.2.4-.4.5-.1,0-.2.2-.4.2,0,0-.1,0-.2,0-.2,0-.4.1-.6.2-.1,0-.3,0-.4,0-.1,0-.2,0-.4,0-.3,0-.6,0-.8,0-.1,0-.2,0-.3,0-.1,0-.3,0-.4-.1-.1,0-.2,0-.3-.1,0,0-.2-.1-.2-.2,0,0,0,0,0,0,0,0,0,0,0-.1,1.8,0,3.2,0,4.7-.7Z"/>
  <path class="st3" d="M71.7,79.1s0,0,0,.1c0,0,0,0,0,0,0,0,0,0,0,0l.2-.2Z"/>
  <path class="st7" d="M42.6,94.7c0,.1,0,.2-.1.3,0,0,0,0,0,0,0,.1-.1.2-.2.4t0,0c0,0,0,.1-.1.2h0s0,0,0,0c0,0,0,0,0,0,0,0,0,0,0-.1,0-.1,0-.2,0-.3,0-.1,0-.3,0-.4h0c0,0,0,0,0-.1,0,0,0-.2,0-.2,0,0,0-.1,0-.2,0,0,0-.1,0-.2,0-.3-.2-.5-.3-.8,0,0,0,0,0,0,0,0,0-.1,0-.2,0,0,0-.1,0-.2,0,0,0-.1,0-.2,0,0,0-.2-.1-.3,0,0,0-.2-.1-.3h0s-1.2-3.8-1.2-3.8h0c0-.1,0-.4,0-.6,0,0,0,0,0,0,0-.2,0-.3,0-.4s0,0,0,0h0s0,0,0,0l.4.7c.2,1,.4,2.2,1.2,2.9l.4,1.3c0,0,0,.2,0,.2,0,.2.1.3.2.5,0,.1,0,.2,0,.3,0,.1,0,.2,0,.3,0,.5,0,.9,0,1.4Z"/>
  <path class="st2" d="M45,68.2c0,0,0-.1,0-.2,0,0,0,0,0,.2Z"/>
  <path class="st10" d="M41.7,97.2c0,0-.1.2-.2.2-1,1.1-3.2,2.8-3.3,2.6h0s1.3-1.9,1.3-1.9l2.5-1.6c0,.1,0,.3-.3.6Z"/>
  <path class="st7" d="M46,95c0,0,0,.1,0,.2,0,.2,0,.5,0,.7,0,0,0,.2,0,.3,0,.2,0,.3-.1.5,0,.2,0,.3-.2.5-.2.5-.5.9-.8,1.3-.1.1-.2.2-.4.4.2-.4.4-.8.5-1.2,0-.2.1-.3.1-.5,0-.3.1-.5.1-.8,0-.5,0-1,0-1.5,0-.3,0-.5-.1-.8,0-.3-.2-.7-.3-1,0-.1-.1-.2-.2-.4-.2-.4-.4-.7-.6-1.1h0s0,0,0,0l.3-.2h0s0,0,.2,0c0,0,.1.1.2.2,0,0,.1.2.2.3,0,0,.1.2.2.3,0,.2.2.3.3.5,0,.1.1.2.2.4,0,0,0,0,0,0,0,.1,0,.2.1.3,0,.2.2.5.2.8,0,.1,0,.2,0,.3,0,.2,0,.3,0,.5h0Z"/>
  <path class="st7" d="M63.1,90.2l-.9,3.3c-.1.4-.2,1.1-.2,1.5,0,0,0,0,0,0-.7-1,0-3,.4-4,0,0,.1-.1.2-.2,0,0,.1-.1.2-.2,0,0,.1-.1.2-.2,0,0,.1-.1.2-.2,0,0,0,0,0,0Z"/>
  <path class="st10" d="M59.6,92.3h0c0,.5,0,1-.1,1.5,0,.3-.1.6-.2.8,0,.1,0,.3-.1.4,0,.2-.1.3-.2.5-.5,1.2-1,2.4-.8,4.3-.4-.5-.6-1.1-.5-1.9,0-.6.1-1.1.3-1.5,0,0,0-.2,0-.3.3-.9.7-1.7.8-3v-1c0,0,0,0,0,0,0-.4,0-.8.1-1.3.2.3.3.7.5,1,0,.2.1.4.1.5Z"/>
  <path class="st0" d="M57.9,96.3c-.2.4-.3.9-.3,1.5h0c0-.6.1-1.1.3-1.5Z"/>
  <path class="st10" d="M70.2,40.6c0-.5-.1-1-.2-1.5,0-.2,0-.3-.1-.4,0,0,0,0,0,0h0c0-.2-.2-.4-.3-.6h0c-.2-.2-.3-.4-.5-.7,0,0-.2-.2-.3-.3-.3-.2-.5-.5-.8-.7h-.2c0-.2-.1-.2-.2-.3-.2,0-.3-.2-.5-.2,0,0,0,0,0,0-.1,0-.3-.1-.4-.1-.9-.3-1.9-.2-2.8,0-.2,0-.5.2-.7.3-.2.1-.4.3-.6.4,0,0-.1,0-.2.2,0,0,0,0-.2.2h0c-.1.1-.2.3-.3.4-.2.3-.3.5-.5.8-.1.3-.2.6-.3.9-.3,1.4-.1,2.9.4,4.2,0,0,0,0,0,0,.2.3.5.7.8,1,.3.3.6.6,1,.8,1.2.4,2.3,0,3-.7.2-.2.5-.5.6-.9,0,0,0-.2.1-.3l-.5-.2s0,0,0,0c0,.1,0,.2,0,.3,0,.1,0,.2-.1.3,0,0,0,0,0,0-.3.6-1.1,1-1.9,1-.6,0-1.1,0-1.5-.3-.1,0-.2-.2-.3-.2,0,0-.1,0-.2-.2,0,0,0,0-.1-.1,0,0,0,0,0,0,0,0,0-.1-.1-.2,0,0,0-.1-.1-.2,0-.2-.2-.5-.3-.7,0-.1,0-.3,0-.4,0,0,0-.1,0-.2,0,0,0,0,.1,0,0,0,.1,0,.2,0,.8-.3,1.6-.4,2.5-.5.2-.2.4-.5.6-.8,0-.2.1-.3.2-.5,0-.2,0-.3,0-.4-.2-.3-.3-.6-.4-.8,0,0,0-.1,0-.2h0s0,0,0,0c0-.1,0-.3.2-.5,0,0,0,0,0,0,.1,0,.2-.1.4-.2.7,1.3.8,3,.3,4.3h0s.1,0,.1,0h.1s0,0,0,0c.1-.2.2-.5.2-.7,0-.3,0-.6.1-.8,0,0,0-.1,0-.2,0,0,0-.1.1-.2,0,0,0,0,0,0,0,0,.1,0,.2-.1,0,0,0,0,0,0,0,0,0,0,.1,0h0l-.3-1.1h0c0,0-.2-.2-.2-.3-.1-.2-.3-.3-.4-.4,0,0,0,0,0,0-.1-.1-.3-.2-.5-.4t0,0s0,0,0,0c-.1,0-.3-.2-.4-.2-.2,0-.4-.2-.6-.3.2,0,.4,0,.6,0,.2,0,.4,0,.6,0,0,0,0,0,.1,0,0,0,.2,0,.3,0,0,0,.2,0,.3,0,.3,0,.5.2.8.4,0,0,.1,0,.2.1,0,0,0,0,0,0,0,0,.2.1.2.2.1,0,.2.2.3.3.1.1.2.3.3.4,0,0,0,.1.1.2.1.2.2.3.3.5.1.3.3.5.3.8,0,.1.1.3.1.4,0,.1,0,.3,0,.4.1.5.1,1.1,0,1.5,0,0,0,0,0,0h0c0,.3,0,.7-.2.9v.3c.1,0,.1,0,.1,0,0,0,.2-.2.2-.3,0,0,.1-.2.2-.3,0,0,0-.2.1-.2.1-.2.2-.5.3-.8,0-.2,0-.5.1-.7,0-.1,0-.2,0-.3,0-.2,0-.3,0-.5ZM62.2,39.4s0,0,0,0c0,0,0,0,0,0,0,0,0,0,0-.1,0,0,0-.2.1-.2,0,0,0-.1.1-.2,0,0,0,0,.1-.1s0,0,0,0c0,0,0,0,.1,0,.2,0,.5,0,.7,0,0,0,.1,0,.2,0,0,0,.1,0,.2.1,0,0,0,0,.1.1,0,0,0,0,0,.2.2.5,0,1.2-.4,1.4-.3.1-.6.1-.9,0,0,0-.2,0-.2-.1,0,0-.1-.1-.2-.2,0,0,0,0,0,0,0,0,0,0,0,0,0,0,0-.2,0-.3s0-.2,0-.2Z"/>
  <path class="st10" d="M62.1,49.1c0,.4-.2.7-.3,1,0,.1-.1.2-.2.3,0,.1-.2.2-.3.3-.1.1-.3.2-.4.3,0,0,0,0-.1,0-.1,0-.2.1-.3.2-.2.1-.5.2-.7.3-.2,0-.4.2-.6.3h0c-2.2.9-4.4.8-6.5.1-.3,0-.5-.2-.8-.3-.8-.3-1.5-.7-2.2-1.1l-1.4.4s0,0,0-.1h0c0-.3,0-.6,0-.8,0-.2,0-.3.2-.5,0,0,0,0,0-.1,0,0,.1-.1.2-.2,0,0,.1-.1.2-.2,0,0,.2-.2.3-.2,0,0,.2-.1.3-.2,0,0,.2,0,.2,0,.1,0,.3,0,.4,0,.1,0,.3,0,.4,0,0,0,.1,0,.2,0,0,0,0,0,.1,0l-.2,1c3.6,2.1,7.9,1.9,11.5-.6Z"/>
  <path class="st7" d="M49.2,42.8s0,0,0,0v.3h-.6c0,0,0,0,0,0l-.8-.3c0,0,0,.2-.1.2,0,0,0,0,0,.1-.4.6-.9.9-1.5.9h-.1c-.1,0-.3,0-.4,0,0,0-.2,0-.3,0,0,0-.2,0-.3-.1l-.2.5-.2.6h0c0,0-.2,0-.2-.2h0c-.2-.1-.3-.2-.4-.4-.4-.4-.8-.8-.7-1.5,0,0,0-.2,0-.3h0l1.4.3s0,0,.1,0c.1,0,.3,0,.5,0,.2,0,.3,0,.4,0,0,0,0,0,.1,0,0,0,0-.1.1-.2,0-.1.1-.3.2-.4,0-.2,0-.3.1-.4.6-.1,1.4-.4,1.8-.8,0-.2-.2-.4-.3-.6-.2-.2-.5-.4-.8-.5-.2,0-.4-.2-.6-.2-.1,0-.2,0-.3-.1,0,0,0-.2,0-.4t0,0c0-.2,0-.4.1-.5,0,0,0-.1,0-.2,0,0,0-.1,0-.1,0,0,0,0,0,0h0c1-.6,2.1.5,2.5.8,0,0,0,0,0,0h0l.4.6-.4,2.7s0,0,0,.1c0,0,0,0,0,.1,0,.1.1.3.2.3Z"/>
  <path class="st10" d="M68.6,33.9c-.1.6-2.5-.7-5.2-.9-.1,0-.2,0-.3,0-.1,0-.2-.1-.3-.2,0,0,0,0-.1-.1,0,0-.1-.2-.2-.2,0,0,0,0,0-.1,0-.1,0-.2,0-.4,0,0,0,0,0,0,.1-.3.4-.6.7-.7,2.3-.8,5.6,1.3,5.3,2.8Z"/>
  <path class="st4" d="M69.3,42.4s0,0,0,0h0c0,.3,0,.9,0,1.2,0,.2,0,.3-.2.4-.1.2-.7.8-1.3,1.3h0s0,0,0,0c-.2.2-.5.4-.6.5-.9.5-1.8.4-2,.3-.4,0-.7,0-1-.2h0c-.4-.2-.7-.4-.8-.9,0,0,0,0,0-.2h0c1.1.3,2.3,0,3-.7s.5-.5.6-.9c0,0,0-.2.1-.3h0c.3-1,.5-2.1.2-3.1l-.4-1.1h0c0,0,.2,0,.2.1.2.1.3.2.4.3.1.1.2.2.3.4.1.1.2.3.3.4.4.7.7,1.5,1,2.3Z"/>
  <path class="st8" d="M70,38.4c0,0,0,.1-.1.2,0-.2-.2-.4-.3-.6h0c-.2-.2-.3-.4-.5-.7,0,0-.2-.2-.3-.3-.3-.3-.5-.5-.8-.7,0,0-.1-.1-.2-.1,0,0-.1,0-.2-.1-.2,0-.3-.2-.5-.2,0,0,0,0,0,0-.1,0-.3-.1-.4-.1-.9-.3-1.9-.2-2.8,0-.2,0-.5.2-.7.3-.2.1-.4.3-.6.4,0,0-.1,0-.2.2,0,0,0,0-.2.2l-.3-.4s.1-.2.4-.5.1-.1.2-.2c0,0,0,0,0,0,.1,0,.2-.2.4-.3.2-.1.3-.2.5-.3.3-.2.6-.3.9-.4.1,0,.3,0,.4-.1.1,0,.2,0,.3,0,.3,0,.6,0,.9,0,0,0,.2,0,.2,0,.2,0,.3,0,.5.1.3,0,.5.2.8.3.1,0,.2.1.3.2.1,0,.3.2.4.3,0,0,.1.1.2.2.1.1.3.2.4.4.2.2.3.4.5.6,0,0,0,.1.1.2,0,0,0,.1.1.2.1.2.2.4.3.5,0,0,0,.1,0,.2,0,.1,0,.3,0,.4Z"/>
  <path class="st11" d="M64.3,46c0,0-.1,0-.2,0h0c0,0-.1,0-.2,0-.2,0-.5-.1-.6-.2-.2,0-.3-.2-.5-.2s-.1-.1-.2-.2c0,0-.1-.1-.2-.2s-.1-.1-.2-.2c-.1-.1-.2-.3-.3-.4,0-.1-.1-.2-.1-.3,0,0,0-.2-.1-.2,0,0,0-.1,0-.2,0,0,0-.1,0-.2,0,0,0-.2,0-.2s0-.2,0-.2c0,0,0,0,0,0,.2.3.5.7.8,1,.3.3.6.5,1,.8h0c0,0,0,.1,0,.2.1.8.9.4,1,.9Z"/>
  <path class="st10" d="M49.9,41.3h0s0,0-.1.1c-.1.1-.2.3-.3.5l-.3,1h0s0,0,0,0c0,0-.1-.2-.2-.3,0,0,0,0,0-.1,0,0,0-.1,0-.1l.4-2.7c.3.5.5,1.3.6,1.7Z"/>
  <path class="st7" d="M49.9,41.3h0c0,0,0,.1,0,.2,0,.1,0,.3-.1.4,0,0,0,0,0,0h0s-.2,0-.2,0c0-.2.1-.4.3-.5,0,0,0,0,.1-.1Z"/>
  <path class="st2" d="M42.7,40.7c-.7,0-1.3.6-1.5,1.3l-.6,1.7c-.8-2.8,1.5-5.8,4.4-5.7-1.1.5-2,1.5-2.2,2.7h0Z"/>
  <path class="st11" d="M45.1,41.5c-.5,0-1,0-1.4-.2-.2-.7-.2-1.4.4-1.8.4-.3,1.3-.2,1.5.1.4.8.1,1.5-.4,1.9h0Z"/>
  <path class="st7" d="M45.1,41.5c0,.1,0,.6,0,.6h-1.7l.3-.8c.5.2.9.3,1.4.2h0Z"/>
  <path class="st7" d="M47.5,37.3v.5c0,0-.3,0-.3-.1v-.4c0,0,.3,0,.3,0h0Z"/>
  <path class="st7" d="M65.9,42c-.2.5-.8.9-1.2,1.1-.5.2-1.3,0-1.7-.3l-.9.4c-.2-.4-.7-1.2,0-1.5.9-.3,1.6-.5,2.5-.5.3-.3.9-1.3.9-1.7-.2-.4-.4-.7-.5-1,0-.3.3-.8.7-.8.7,1.3.8,3,.3,4.3h0Z"/>
  <path class="st3" d="M65.9,42h.3s.4.8.4.8c0,1-1,1.6-2.1,1.7-1.1,0-1.9-.4-2.3-1.3l.9-.4c.5.3,1.3.6,1.7.3.4-.2,1-.6,1.2-1.1Z"/>
  <path class="st2" d="M69.3,42.4c-.6-1.3-1-2.9-2.3-3.6-.6-.8-1.4-1.3-2.3-1.7,3-.8,5.2,3,4.7,5.3Z"/>
  <path class="st11" d="M62.8,38.5c.5-.2,1.2,0,1.3.4.2.5,0,1.2-.4,1.4-.5.2-1.2,0-1.4-.5-.2-.4,0-1.2.6-1.4h0Z"/>
  <path class="st7" d="M67.3,39.9c.3,1,.1,2.1-.2,3.1l-.5-.2-.4-.7c.5-.9,0-2.1,1.1-2.1h0Z"/>
  <path class="st3" d="M48.6,43.2c.1,1-.7,1.7-1.4,2.1-1,.5-1.8.2-2.6-.4l.4-1.1c1.2.6,2.2.2,2.8-1l.8.3h0Z"/>
  <path class="st4" d="M57.5,67.8c0,.3,0,.6,0,.9,0,.2,0,.3,0,.5,0,0,0,.1,0,.2,0,0,0,.1,0,.2,0,0,0,0,0,0,0,.2,0,.3-.2.5,0,.2-.2.5-.3.7h0s0,0,0,0c-.5,0-.6.7-.5,1.2h0c-.2.3-.3.5-.5.7-.2.2-.3.4-.5.6-.1,0-.3,0-.4,0-.2,0-.3.1-.4.2-.2.2-.4.5-.5.8-.3.2-.6.5-1,.6h-.3c-.2,0-.4,0-.6,0-.1,0-.2,0-.3,0h0s0-.9,0-.9l1-.3c.3,0,.7-.3,1-.6.3-.3.5-.6.6-.9,0-.2.3-.4.4-.5,0,0-.2,0-.3,0,0,0,0,0-.1,0,0,0,0,0-.1,0-.6,0-1.3-.1-1.8-.5-.6-.5-1.2-.5-1.8-.4h0c-.4,0-.9.2-1.4.4-.2,0-.3,0-.5.1-1.9.2-3.6-1.5-3.7-3.4h0c0,0,0-.1,0-.1h0s0,0,0,0c0-.2.1-.7.2-.9l.4-.3h.2c0-.1,0,0,0,0h0c.4-.3.8-.4,1.3-.5,0,0,0,0,.1,0,.5,0,1,0,1.5-.1,0,0,.2,0,.2,0,.8-.1,1.6-.5,2.7-1.5.7-.7,1.4-1.2,2.2-1.9-1.6-1-3.6-1.4-5.4-1.1-1.1.2-2.2.7-3.2,1.5-1.5,1.3-2.5,3.3-2.3,5.2h0s-.1,0-.2,0h0c0,0-.1,0-.2,0-.1,0-.3,0-.4,0h0c-.3,0-.5,0-.9.2,0-.5,0-1,0-1.5,0-.3,0-.6.2-.9,0-.2,0-.4.2-.6.2-.8.6-1.5,1.1-2.2.2-.3.5-.6.8-.9.1-.1.3-.3.4-.4.4-.4.9-.7,1.4-1,.2,0,.4-.2.5-.3,0,0,.1,0,.2-.1.2,0,.3-.1.5-.2,3.4-1.2,7.3-.2,9.4,2.8.2.4.5.7.7,1.1h0c0,.2.2.4.3.6,0,.2.2.4.2.6s.1.4.2.6c0,.2,0,.3,0,.5,0,.1,0,.3,0,.5,0,.1,0,.3,0,.4,0,.2,0,.3,0,.5Z"/>
  <path class="st9" d="M54.4,71.9s0,0,0,0c0,.1-.3.4-.3.5-.7.5-1.5,1-2.3,1.2,0,0,0,0-.1,0,0,0-.2,0-.2,0-1.1-1.2-1.9-1.4-2.7-1.3,0,0-.1,0-.2,0-.6.1-1.3.4-2.3.6-.1,0-.2,0-.3,0,0,0-.2,0-.2,0l-1.8-1.5h-.2c.5-1.4.1-2.9-.9-3.6h0c-.3-1.9.7-3.9,2.3-5.2,1-.8,2.2-1.3,3.4-1.5,1.7-.3,3.6.1,5.2,1.1-.8.7-1.6,1.2-2.2,1.9-.9.9-1.7,1.3-2.4,1.4,0,0-.2,0-.2,0-.5,0-1.1,0-1.5.1,0,0,0,0-.1,0-.5,0-.9.2-1.3.5,0,0-.1,0-.2.1h-.1c0-.1,0-.1,0-.1.7-1.6,1.9-2.8,3.5-3.4-2.3-.6-3.9,2.3-4,3.8,0,.2-.1.7-.2.9,0,0,0,.1,0,.2.1,1.9,2,3.7,3.9,3.3,0,0,.2,0,.2,0,.6-.2,1.1-.4,1.6-.4h0c.5,0,1,0,1.6.5.5.4,1.4.5,2,.4,0,0,0,0,.1,0,0,0,0,0,.1,0Z"/>
</svg>