<svg
  width="104"
  height="109"
  viewBox="0 0 104 109"
  fill="none"
  xmlns="http://www.w3.org/2000/svg"
>
  <path
    d="M55.8375 0.0140313C56.1041 0.898039 56.2865 1.91301 56.2163 2.85315C55.9871 5.87468 54.916 9.05524 52.0395 10.5005C50.8421 11.1039 49.2425 11.0992 47.872 11.1694C47.7271 11.3939 47.5166 11.8476 47.395 12.1563L49.916 12.0066C50.2996 12.2732 50.8234 12.5398 51.2116 12.7129L50.8655 13.1198C42.0395 14.2002 33.9103 18.5969 28.5502 25.8046C28.0029 26.5389 27.5025 27.1376 27.2125 27.8766C27.0488 27.9608 26.857 28.2695 26.7868 28.452C26.7307 28.5595 26.6325 28.7513 26.567 28.8448C24.9019 31.263 22.6428 36.6466 22.3761 39.5512L21.9973 40.8701C21.0899 44.0414 20.7718 53.4614 21.2676 55.786L21.7962 58.2697C21.8429 58.4989 21.9458 58.9572 21.9599 59.2145L21.0946 59.9394L20.1919 60.3651C20.0702 60.1078 19.3967 59.1864 19.1488 58.8496C18.4051 57.844 16.7774 56.8945 15.5473 57.554C14.7147 58.6766 13.5174 60.0985 11.9037 60.1312C10.29 60.164 8.56411 59.5653 7.25447 58.5316C7.74091 57.6382 8.218 56.8103 8.85879 56.2865C10.5941 54.8693 13.0075 54.5465 14.9159 55.8422C15.5473 56.2678 16.277 56.4408 16.9505 56.0058C15.6783 54.6494 14.364 53.6064 12.6988 52.8674C11.7166 52.4324 7.87188 54.6027 4.63519 52.526C2.82508 51.366 0.374183 47.8299 0 45.6597C0.44902 45.2621 1.17868 45.3931 1.59963 45.2621L1.77737 45.5802C1.90834 45.8187 1.34238 45.669 1.39383 46.2163C1.42657 46.5671 1.88494 47.1518 1.9551 47.4979C2.16558 48.4941 3.70909 49.9254 4.40601 50.6644C5.64549 51.974 9.00846 53.3117 11.1132 51.6747C10.9121 51.4455 10.1591 50.7439 9.59312 50.7673C8.42847 49.757 7.00658 49.0928 5.58 48.3632C6.29095 48.4286 7.13286 48.4988 7.69414 48.7514L11.4266 50.4212C11.4126 49.8646 11.0852 49.2191 10.5473 49.0554C10.3649 47.4792 8.08703 46.6653 6.9598 46.0713L7.15157 45.4586C7.36673 45.3697 7.81575 45.3183 8.05429 45.4165C10.0515 46.2397 11.4874 47.6709 12.3574 49.6214L13.1759 51.4595L15.6689 52.9984C15.1684 51.684 14.7756 50.6644 14.4201 49.3875C14.2423 48.7514 13.8962 48.2275 13.2975 47.9001C10.0562 46.1087 8.55476 42.8954 8.76056 39.3547C8.88685 37.1564 9.4949 35.0656 10.5333 33.1105C10.7531 33.162 10.9308 33.3865 11.16 33.4239L13.6343 35.1872C14.9112 36.2537 16.2723 37.6475 16.8944 39.2004C18.1105 42.2172 17.7035 45.5474 15.6175 48.1387C16.1179 51.3286 17.61 54.1443 19.8598 56.1509C19.2003 50.786 19.4903 45.7392 20.3462 40.6784L20.5333 39.5839C20.8701 39.0133 21.0338 38.3117 21.0946 37.6288L21.2583 37.0815L21.6558 35.7345L22.175 34.3968L22.3949 33.8074C25.4398 25.6362 31.4174 19.2938 39.0647 15.0936L40.1732 14.4856L40.7579 14.2049L45.5241 12.6755C45.4539 12.4697 45.2668 12.0908 45.1031 11.9505C44.8879 11.7681 41.0713 12.9374 39.06 11.4968C37.3248 10.2526 36.2537 8.19461 35.4538 6.10854C38.6438 4.95325 41.5717 4.95793 44.1162 6.91303C44.3126 7.29657 44.6541 7.74091 44.9534 8.05429L46.0994 11.146C47.1985 10.9261 45.9497 9.10201 45.9824 7.85317C46.0058 7.03465 46.0947 5.6829 46.5063 4.93922C48.4286 1.43593 52.1471 1.6277 54.8973 0C55.1406 0 55.5896 0.0654815 55.8141 0.0140313H55.8375ZM47.4932 5.96354L47.4464 6.50144L47.2406 6.68852C46.974 7.23109 47.0722 8.41912 47.3014 8.96169C47.5914 8.65299 47.9001 8.38638 48.0217 8.20397C48.0919 8.47993 48.2275 8.76524 48.3959 8.9804L48.1714 9.94392C49.3781 10.5192 50.4305 9.67264 51.4174 9.37329C53.0077 8.89621 53.9806 7.49302 54.4998 5.90742C54.8459 4.85503 55.0938 3.81199 55.0891 2.6988V1.2348L51.0292 2.60525C49.5231 3.11508 47.6242 4.40601 47.4979 5.95887L47.4932 5.96354ZM43.438 7.79236C42.6569 7.01126 41.5998 6.46401 40.3931 6.46869L38.6578 6.47805C38.1059 6.47805 37.6381 6.53417 36.9412 6.72594C38.162 9.79892 40.4211 12.1516 44.177 10.8279L41.6934 8.72782L44.4904 9.60247L43.4333 7.79236H43.438ZM10.3789 36.8617C10.0608 37.6381 10.117 38.3444 10.0047 39.1489C9.85037 40.234 9.92988 41.1134 10.1731 42.2078C10.5987 44.1209 11.8429 45.9076 13.929 46.9039C13.9477 46.1835 13.7559 45.2247 13.4753 44.6681C13.4332 43.4473 13.3162 42.0862 12.7129 41.0479L12.7503 39.3547C13.0075 39.9487 13.4799 40.6456 13.667 41.2397L14.5744 44.0881C14.8223 44.8692 14.9018 45.7392 15.1451 46.67C15.9121 45.8608 16.16 45.0283 16.3191 44.1396C17.0721 39.9908 14.4622 36.6512 11.0431 34.5652C10.5379 35.3556 10.6455 36.2396 10.3883 36.8617H10.3789ZM10.7765 58.859C12.1422 59.0601 13.8354 58.7467 14.2704 57.1237L11.7353 57.3436L13.5922 56.4595C11.7447 55.7159 9.71941 56.4315 8.57347 58.2416C9.40135 58.5503 10.0842 58.7561 10.7765 58.859Z"
    fill="#1A4D3C"
  />
  <path
    d="M83.3166 67.6711C83.1762 67.7272 78.4475 68.9807 78.3961 68.4943C78.3867 68.4194 78.3774 68.2838 78.3867 68.2043C78.6159 66.31 78.9854 62.643 78.7749 60.5943C78.7515 60.3418 78.6907 59.9535 78.7562 59.7992L78.8638 59.4063C78.8825 59.3315 79.1678 59.4484 79.1725 59.5232L79.1912 59.8085C79.2333 59.8085 79.3222 59.8366 79.3596 59.8366H80.702C81.3615 59.7618 82.6243 59.4203 83.1763 59.0181L82.6103 57.9376L81.8479 58.0592C80.8844 58.4241 79.6028 58.4802 78.4522 58.1902L78.237 55.9685C78.1575 55.1827 78.1575 54.425 78.2136 53.7047C78.1622 53.5971 78.0499 53.4007 78.0453 53.2837C77.5214 53.7608 77.6898 54.3735 77.7038 55.0377L77.7319 56.497L77.0163 56.3052C76.4409 56.1556 75.9124 55.7253 75.5382 55.2295C75.2202 55.1313 74.8039 54.9909 74.4578 54.8319C71.7262 53.5971 68.845 54.28 66.7823 56.4081C64.004 59.2753 60.4727 61.179 56.4221 61.4456C53.7093 58.4568 49.8178 57.8768 46.1181 58.8544C45.6223 59.1303 45.0563 59.4297 44.4156 59.6308C39.35 57.4278 35.3977 53.2182 34.0413 47.7926C32.5072 41.6513 33.9478 35.075 37.7598 30.1031C39.6073 27.6896 42.6709 26.9646 45.3978 27.9889L49.3407 29.4716L49.5325 29.2658C49.5699 29.2191 49.6869 29.2705 49.7009 29.336L49.7523 29.626C50.8375 30.2668 52.1378 30.3369 53.3305 30.5427L53.5456 30.0657C53.6017 29.9394 53.9432 30.1732 54.1396 30.2668C54.8599 30.6035 56.1228 29.7429 58.1528 30.5661C58.845 30.4071 59.5887 30.3557 60.2575 30.1031C60.3464 29.9534 60.4774 29.7523 60.5662 29.6307C60.6364 29.5324 60.9311 29.7663 61.0153 29.8131C61.2819 29.8645 61.6701 29.64 61.9741 29.5091C62.0957 29.4576 62.1752 29.3453 62.1846 29.2144L62.1986 29.0133C62.208 28.887 62.2828 28.7747 62.3951 28.7233L63.9339 28.003C64.0835 27.9281 64.5653 27.872 64.5653 27.7177L64.556 27.0956L61.6233 28.1199C61.6233 28.2181 61.5531 28.4193 61.4549 28.4333C61.3286 28.4473 61.1041 28.4567 61.0012 28.4801L58.7187 29.032C54.3875 30.075 51.1088 28.9057 47.0302 27.1049C45.2996 26.3425 43.6485 26.1227 41.5858 26.1788C44.3127 23.7607 47.409 21.9973 50.7065 21.1928C51.2584 21.0572 52.0442 20.7999 52.5915 20.6269C55.2809 19.7897 58.0639 19.5979 61.0433 19.4108C52.5915 17.9749 43.859 21.118 38.0404 27.4323C34.4997 31.2677 32.6756 35.8749 32.1704 40.8889C31.5109 47.4371 33.8636 53.5644 38.8402 57.9142C40.0891 59.004 41.4735 59.7524 43.0732 60.6832C42.8861 60.9591 42.4838 61.324 42.1611 61.5204L40.3837 64.7524C39.6634 66.0621 40.4212 69.4905 39.5512 69.8787C38.4614 70.3605 37.6054 71.1042 36.7916 71.8619L36.6513 72.4372C36.6092 72.629 36.0198 72.6617 35.8187 72.6664C33.9758 72.7412 32.4043 72.3296 30.814 71.5018C30.2527 71.2071 29.7195 70.8142 29.6026 70.1126C29.0881 67.0724 30.1498 66.165 29.6681 64.7665L29.3313 64.9255C29.2471 65.1313 29.0787 65.4119 28.9571 65.585C28.4754 67.3203 28.031 69.0929 28.4847 70.9171C27.8252 70.8703 27.3996 70.8329 27.002 70.8423L26.0198 70.8703C25.7251 70.9358 25.4538 71.1276 25.8841 71.2398C30.1872 71.773 32.0535 74.9162 37.2266 73.8451H37.2312C38.8075 71.2445 39.1817 71.9555 41.9459 69.6121C42.0816 69.4999 42.6335 69.3221 42.6896 69.4858C42.7458 69.6495 42.8206 69.9255 42.8674 70.1126C43.2416 71.6047 41.1087 72.774 41.8805 73.9527C43.3211 74.687 44.9207 74.9442 46.5671 74.4204L49.018 73.6393C49.2332 73.5691 49.7243 73.6065 49.8739 73.7094C50.0236 73.817 50.1125 74.1538 50.1265 74.3456C50.2247 75.7674 47.54 76.6 47.0302 76.8152L45.4352 77.4934C45.3276 77.5355 45.3323 77.9471 45.4492 77.9611L45.7252 77.9938C47.2219 78.1622 48.8262 77.8488 49.8973 76.7871C50.206 76.4831 50.6223 76.8198 50.4726 77.1613C49.9114 78.4616 48.2229 79.4859 46.829 79.9817C46.4502 80.1173 46.5718 80.6833 46.9694 80.6459C46.9787 80.6459 46.9881 80.6459 46.9974 80.6459C47.3622 80.6131 47.5166 81.1183 47.1939 81.2913C44.8131 82.5635 42.0348 82.4279 39.4951 81.6889C38.424 81.3755 37.5072 81.1978 36.4127 81.4504C33.597 82.0911 30.8467 81.9929 28.1573 81.4129C23.3771 80.3746 20.2153 77.2221 19.8317 72.2174C19.4669 67.4465 20.9028 62.2407 24.0881 58.6579L24.3172 57.9236C23.3303 57.4933 22.6007 59.2192 21.8757 59.2145L21.0993 59.9535L19.9299 59.8226L20.5801 61.1883C18.5548 65.3979 17.465 70.8844 18.929 75.2763C19.3219 76.4597 19.8037 77.8816 20.7064 78.7048L23.4099 81.1837L23.9431 81.3661C24.0927 81.4176 24.1208 81.6515 24.2939 81.7076C24.3734 81.7216 24.6213 81.7591 24.6961 81.7871C26.5904 82.5261 30.4866 83.7282 32.6054 83.1809L35.0282 84.7245C36.5764 88.0126 39.0507 94.6403 36.7542 97.8536C36.5951 98.0828 30.9075 101.675 29.7289 102.961C29.7008 103.078 29.5745 103.275 29.4997 103.359L29.2658 103.939L29.1348 105.473C29.7008 106.343 30.8748 106.946 31.9459 106.624C33.9992 106.006 35.5427 105.038 37.9141 104.996L37.8065 106.567C37.7457 107.386 38.2181 108.265 38.8543 108.607C40.7813 109.654 42.7224 107.381 44.3781 106.207C46.2724 104.86 50.931 104.94 50.496 99.9116L50.4072 98.8452V98.7984L50.2294 97.0772C49.9909 94.5187 50.1686 92.0491 50.5334 89.4485L54.4062 89.4345C54.743 91.9555 54.5185 94.4672 54.0227 97.0397L53.9245 98.8452L53.8543 100.122C53.6626 103.71 56.8992 104.556 59.6869 105.234C62.353 105.88 63.1808 106.74 65.4634 108.256C66.2351 108.42 66.9881 108.326 67.7365 108.069C68.0873 107.704 68.5925 107.091 68.672 106.6C68.7141 106.324 68.7094 105.758 68.6626 105.482L68.5036 104.58C71.2445 104.617 73.3118 106.436 75.5289 105.613C76.1837 105.37 76.4129 104.233 76.3801 103.7C76.3801 103.63 76.3568 103.499 76.3427 103.424C75.9077 102.61 73.9526 101.38 73.6533 101.062C73.4101 100.805 67.3904 97.9238 66.8946 96.5112C65.4493 93.8873 67.7459 87.1192 68.9105 84.3409C73.1856 81.2633 76.0714 76.8292 77.4372 71.8713L77.1659 71.8105C77.1004 71.7964 76.9742 71.5532 77.0443 71.5438L77.4653 71.4643C77.47 71.3147 77.5775 71.0481 77.6383 70.8984L77.1238 71.0106C76.7263 71.0948 77.5682 69.6776 77.3156 69.5794L76.9929 69.4578C76.8292 69.397 76.6421 69.4671 76.5626 69.6262L76.441 69.8741C76.4269 69.9068 76.4176 69.9349 76.4082 69.9723C76.02 72.5541 73.6393 78.1482 71.5625 79.701C70.9638 81.0341 69.57 81.8105 68.4942 82.7366C62.0817 88.2418 53.1948 88.6347 45.3089 87.3999C45.1078 87.3671 45.033 87.5916 45.0376 87.6711L49.032 89.21C48.7046 92.9237 48.6859 96.4785 49.1303 100.117C49.2425 101.015 49.0227 102.157 48.3492 102.741C46.4081 104.435 44.5652 103.686 41.4268 106.731C40.8655 107.274 40.1873 107.592 39.5933 107.203C39.3968 107.077 39.0601 106.937 39.0975 106.74C39.1536 106.479 39.2472 106.184 39.2612 106.015C39.3313 104.837 40.3136 102.755 41.3239 101.862C41.6326 101.586 41.9459 101.189 42.2967 100.768C41.6793 100.899 40.9544 101.118 40.51 101.446C39.7897 101.974 39.2238 102.783 38.6064 103.602C36.4501 103.691 34.4529 104.177 32.4744 105.066C31.8056 105.361 30.9543 105.379 30.4632 105.015L30.6316 104.706C30.7017 104.355 30.8561 104.084 31.0385 103.784C32.9983 100.58 37.8159 101.474 39.2004 95.8938C39.1162 93.5926 39.0601 91.2306 38.2743 89.0603L37.0909 85.7815L38.4801 86.1884C38.9712 86.3334 39.481 86.4223 40.1171 86.3849L35.1873 83.2043L37.8767 82.6664C40.3603 83.5177 42.9235 83.8498 45.4492 83.4288C47.699 83.05 48.9151 81.6468 50.192 79.9302L51.787 77.788C51.9553 77.5588 52.0115 77.049 52.3763 76.9321C54.874 76.137 56.5017 74.3689 57.8815 72.3296L58.3398 71.3006C58.9526 68.7843 59.1677 66.1276 57.9937 63.7889L57.4979 62.8114C61.3894 62.236 64.8179 60.3698 67.5354 57.5775C68.9386 56.1322 70.4119 55.6598 72.4278 55.6878C73.7281 55.7112 75.7815 57.236 76.5251 58.2603C77.035 57.975 77.3858 57.6429 77.8582 57.1331C77.947 57.3904 77.9985 58.0686 77.8021 58.3118C77.6243 58.5316 77.1987 58.7749 76.9087 58.8684L77.2033 59.4344L77.6337 59.5045C77.6991 59.5185 77.5916 59.7571 77.5214 59.7664L77.2455 59.7945L77.3203 60.8983C77.3951 60.9404 77.6991 61.1275 77.6337 61.2304L77.4372 61.5345L77.4559 61.7262C77.7459 64.5326 77.0864 65.8703 77.0069 68.4054C77.2735 68.5176 77.629 68.8638 77.8395 69.093L79.7384 69.1304C79.9115 69.1304 80.0565 69.266 80.0752 69.4391V69.5046C80.0986 69.6729 79.673 69.7992 79.8413 69.8039C81.2211 69.8366 83.2979 69.1117 84.2754 68.6252L83.3119 67.6898L83.3166 67.6711ZM55.2715 99.8976L56.2257 91.5112C56.0573 90.8236 55.9451 90.0285 56.0012 89.2988C59.9301 88.8451 63.3633 87.6711 66.773 85.7441C66.5157 86.9181 65.9638 87.8629 65.7767 88.8498L65.2014 91.876C64.8787 93.6019 64.8881 95.0706 65.3043 96.8246C64.9255 96.558 64.5606 96.2399 64.2706 95.9453C64.1023 95.8424 63.9105 95.7582 63.7748 95.5992C62.2968 93.8639 63.106 95.66 63.237 95.992C63.4053 96.4177 63.6673 96.8152 63.9386 97.2081L65.8329 98.3494L68.976 99.7432C70.3698 100.365 74.4812 101.497 74.7291 103.742C74.7525 103.92 74.977 104.383 74.7945 104.402C74.6121 104.421 74.2146 104.364 74.0321 104.327C73.7702 104.425 73.2744 104.411 72.933 104.266C71.1556 103.499 69.4578 103.2 67.5447 103.223L65.8188 101.24C64.9114 101.011 64.0836 100.328 63.0312 100.202C62.3951 100.127 61.7964 99.6497 61.5578 99.1352C61.6093 100.239 61.9039 100.033 62.2922 100.805C62.3389 100.894 62.5073 100.796 62.6102 100.824C62.8581 100.889 63.2884 101.062 63.4615 101.221C65.1313 101.399 67.339 104.439 67.1144 106.015C67.1144 106.048 67.1191 106.104 67.1285 106.146C67.2267 106.357 67.0723 106.857 66.8665 106.843C66.642 106.829 66.3193 106.806 66.1603 106.764C65.2763 106.521 63.8169 105.454 62.9376 104.958C61.2351 104.004 59.4671 103.658 57.657 103.144C56.1322 102.709 55.0798 101.558 55.2669 99.8929L55.2715 99.8976ZM56.8244 70.875C56.6373 71.2632 56.483 71.6748 56.2725 72.0443C55.9872 72.5448 55.6831 72.9517 55.2856 73.382C54.874 73.8217 54.4717 74.1397 53.9759 74.4718C53.6439 74.6963 53.3445 74.9255 52.9703 75.1033L51.6841 75.7066C51.6841 75.2763 51.6841 75.1921 51.6841 75.0658L51.7308 74.1678C51.7355 74.0602 51.6934 73.8591 51.6747 73.7422C49.4577 71.4924 48.859 72.6664 45.8842 73.2183C45.0563 73.368 44.1583 73.7469 43.3257 72.9237C43.5222 72.5167 43.8356 71.9976 43.9712 71.628C44.4389 70.3652 44.0881 68.9012 43.0498 68.1715C42.5213 68.1575 41.9974 68.2417 41.2958 68.4054C41.0292 64.8319 43.279 61.4409 46.525 60.2576C49.9722 58.9994 53.859 60.0705 55.9685 63.0826C57.6008 65.4166 57.9703 68.4147 56.8244 70.875Z"
    fill="#154939"
  />
  <path
    d="M61.773 12.4229H62.1565C62.1425 12.7783 62.7131 12.8485 63.0545 13.0543C63.9292 13.5781 64.6869 13.8447 65.5943 13.5875L65.9732 13.7278C65.9077 13.9477 66.3193 14.2376 66.5391 14.2423C66.7122 14.2423 67.0022 14.2096 67.1331 14.1628C70.6037 15.6268 76.6514 19.6773 77.6945 23.4566C77.8769 24.1114 77.0396 24.6306 76.6701 25.0048L75.8937 25.3977L75.1079 25.8139C73.3539 26.3986 71.7543 27.4744 70.3511 28.7419C71.0293 29.7616 71.5625 30.6596 72.2361 31.408L72.4512 31.8897C72.802 32.6802 73.4662 34.2237 74.0181 34.9721C76.1182 39.7102 77.7974 48.597 78.0453 53.3023C77.5214 53.7747 77.6898 54.3922 77.7038 55.0563L77.7319 56.5157L77.0162 56.3239C76.2819 52.2125 76.3193 47.6756 75.0003 43.5829C74.4484 39.4669 71.5766 32.2405 68.6813 29.233C68.4475 28.7279 68.0031 28.3537 67.6991 27.9234L67.3343 27.4042C67.1565 27.147 64.0087 28.9805 62.1705 29.4529L62.208 28.8261L63.9339 28.0123C64.0882 27.9421 64.5653 27.8813 64.5653 27.7269L64.556 27.1049L65.7861 26.1834L66.1743 26.0104L66.9741 25.6362C70.3979 24.3125 71.9975 23.2321 76.0995 23.0917C75.8937 22.6334 75.3839 21.9224 74.9957 21.74C74.7945 21.277 74.4671 20.8513 74.0134 20.4163C69.3689 15.9776 63.3492 13.5501 57.0162 13.0075C57.1612 12.5912 57.657 12.479 58.134 12.4743L61.7823 12.4369L61.773 12.4229ZM69.4063 27.5398C71.2679 26.0899 72.816 25.2386 74.7852 24.5136C73.7889 24.364 72.8254 24.5043 71.9882 24.8644L68.6626 26.2957L69.411 27.5398H69.4063Z"
    fill="#1A4D3C"
  />
  <path
    d="M93.658 48.5596L93.7328 50.4633C94.7571 50.0003 95.4166 49.6775 95.9919 49.1022L96.5813 48.8777C96.8105 48.7888 97.1332 48.5363 97.3109 48.3726L98.817 48.0358C100.197 47.7271 100.679 48.6345 101.567 49.2051C102.456 49.7757 103.377 50.0798 103.237 51.4455C103.214 51.6841 103.2 52.1004 103.195 52.3342C102.33 52.7692 103.462 53.714 102.386 55.4727C100.997 57.7458 98.8544 59.3595 96.2913 60.0985L93.948 60.772C91.3334 64.1677 87.657 67.2828 83.8123 68.817L83.3118 67.6664C85.9638 66.614 89.5934 63.2931 91.3801 61.4736L92.3437 60.4914L91.1135 59.5466C92.222 59.4858 92.9564 59.4858 93.8544 59.3688C96.6795 58.9993 100.501 57.1378 101.39 54.4203C101.502 54.0742 101.605 53.6532 101.361 53.2743C99.8601 53.8684 98.6861 54.8412 97.4466 55.7346C97.1566 54.6448 96.8526 53.4895 96.0294 52.9048L95.3886 51.9787L95.9311 51.9179L96.7122 52.0957L99.3923 50.019C99.5841 49.9909 100.047 49.6915 99.963 49.5091C99.4625 49.1303 98.5364 49.2706 97.9938 49.584L94.2613 51.7496C94.0321 51.7028 93.4802 51.8852 93.2698 52.0115C93.0593 52.1378 93.237 52.6616 93.2557 52.9142C93.2043 52.9937 93.1388 53.2369 93.0873 53.396C93.0499 53.5129 92.933 53.5082 92.7365 53.4521C92.947 52.9142 92.035 52.2173 92.1098 51.7262L92.3811 49.9581C92.4466 49.5278 92.3296 48.7608 92.0677 48.4427C91.9461 48.2884 91.4643 48.1387 91.2866 48.148C90.4494 48.1901 90.9311 49.7757 89.1537 52.2126C88.8263 52.6616 88.7889 53.2416 88.6673 53.6626C88.4802 54.294 88.2885 54.9348 88.1341 55.5849C86.5766 56.8899 85.1734 58.5503 83.1668 58.9947L82.6009 57.9142C88.9339 54.6121 86.048 53.8076 88.5784 50.6457C89.135 49.9535 89.3034 48.7748 89.6449 47.9516C90.0377 46.9974 90.9592 46.7261 91.9554 46.9179C92.657 47.0536 93.1902 47.8113 93.6486 48.5409L93.658 48.5596ZM97.5074 53.1013L97.947 54.2893L99.6168 53.12C101.371 51.8946 101.895 52.8487 101.89 51.3894C101.89 48.9245 97.3905 52.9282 97.4138 52.7552L97.5027 53.106L97.5074 53.1013Z"
    fill="#1A4D3C"
  />
  <path
    d="M57.3576 11.5155C57.7458 11.5155 58.3071 11.6652 58.7795 11.6044L59.4811 11.8195C60.0002 11.9786 61.0386 12.1469 61.6139 12.1984C61.6607 12.1984 61.7449 12.1937 61.7823 12.2077L61.7729 12.4229L58.1246 12.4603C57.6476 12.465 57.1518 12.5772 57.0068 12.9935C55.0283 12.8205 52.8393 12.8766 50.8608 13.1198L51.2069 12.7129C50.8187 12.5445 50.2995 12.2779 49.9113 12.0066C50.6363 11.7915 51.6092 11.4874 52.3903 11.4921L57.3482 11.5155H57.3576Z"
    fill="#154939"
  />
  <path
    d="M65.599 13.5875C64.6916 13.8447 63.9292 13.5781 63.0592 13.0543C62.7131 12.8485 62.1471 12.7783 62.1612 12.4229H62.3529L64.1303 12.9607C64.7009 13.1338 65.1921 13.3349 65.6037 13.5828L65.599 13.5875Z"
    fill="#154939"
  />
  <path
    d="M67.1378 14.1582C67.0068 14.205 66.7169 14.2424 66.5438 14.2377C66.324 14.2377 65.9123 13.943 65.9778 13.7232C66.3801 13.8401 66.7589 13.9992 67.1378 14.1582Z"
    fill="#154939"
  />
  <path
    d="M57.0115 12.9936C63.3446 13.5408 69.3642 15.9637 74.0088 20.4024C74.4625 20.8374 74.7899 21.263 74.991 21.7261C74.8413 21.6559 74.4671 21.5577 74.3175 21.4454C71.338 19.2378 68.3025 17.3248 64.7898 16.0619C59.1958 14.0507 53.3258 13.7513 47.526 14.9534C40.9076 16.3238 35.0984 19.8037 30.7579 24.9441C30.061 25.7719 29.2331 26.4829 28.6905 27.3108C28.321 27.3763 27.5726 27.6896 27.2125 27.8674C27.5025 27.1237 28.003 26.5297 28.5502 25.7953C33.915 18.5876 42.0395 14.1956 50.8655 13.1105C52.8394 12.8673 55.0283 12.8159 57.0115 12.9842V12.9936Z"
    fill="#117D6F"
  />
  <path
    d="M24.3172 57.9142C23.335 57.4839 22.6054 59.2098 21.8804 59.2051C21.8663 58.9479 21.8523 58.5035 21.8009 58.2744C21.7915 58.3773 22.1142 57.9376 22.0909 57.83L21.6559 55.7907L21.4828 50.2809C21.4126 48.0638 21.8663 45.9965 22.2171 43.9478C22.4697 43.9385 22.9374 43.9665 23.1386 44.0928C23.3397 44.2191 23.4332 44.7523 23.4707 45.047C23.5548 45.772 23.7606 46.3473 23.9103 47.0302L25.1311 52.5868C25.3462 53.5737 26.698 56.2491 26.4454 57.5026L24.3219 57.9236L24.3172 57.9142Z"
    fill="#117D6F"
  />
  <path
    d="M38.6578 6.48273C39.1769 7.27787 40.7485 6.23483 43.2743 7.93269L43.4426 7.79704L44.4997 9.60716L41.7027 8.7325L44.1863 10.8326C40.4305 12.1563 38.1667 9.8036 36.9506 6.73062C37.6475 6.53885 38.1152 6.4874 38.6671 6.48273H38.6578Z"
    fill="#4D9271"
  />
  <path
    d="M7.89992 47.3435C8.667 47.7317 9.61181 48.0545 10.0328 48.8964C9.43875 49.4062 8.65764 48.3725 7.70815 48.7561C7.14688 48.5035 6.30496 48.4333 5.59401 48.3678C7.02059 49.0975 8.44248 49.7617 9.60713 50.772C7.28719 50.8515 7.08607 51.1602 4.53695 50.0844L4.42002 50.6691C3.71842 49.9301 2.17959 48.4988 1.96912 47.5025L2.15153 47.2874C2.1983 47.2266 2.4462 47.3809 2.53975 47.4277C3.32085 47.1705 4.57905 47.0348 5.39289 47.3809L6.2769 47.7551C6.95043 48.0404 7.46493 47.8954 7.9046 47.3482L7.89992 47.3435Z"
    fill="#6FAA74"
  />
  <path
    d="M15.3555 39.9768C14.8223 40.4352 14.2517 40.8468 13.6576 41.2397C13.4706 40.6503 12.9981 39.9534 12.7409 39.3547L12.7035 41.0479C12.1141 41.0994 10.9495 41.2631 10.6735 40.6691C10.4116 40.1125 10.4584 39.322 10 39.1443C10.1169 38.3398 10.0561 37.6335 10.3742 36.8571L11.2722 36.9927L11.4125 35.8514C12.3948 35.5989 14.8737 39.1349 15.3508 39.9721L15.3555 39.9768Z"
    fill="#84BB83"
  />
  <path
    d="M54.4951 5.90738C53.9712 7.49766 52.9984 8.89617 51.4128 9.37326C51.2771 9.13471 49.3781 8.11974 49.1723 8.19458C49.7336 7.17961 50.51 6.22544 51.4361 5.52852C52.8159 5.38353 52.5821 6.66511 54.4951 5.90271V5.90738Z"
    fill="#6FAA74"
  />
  <path
    d="M28.6904 27.3154C27.3293 29.3875 26.1179 31.5671 25.0936 33.8262C24.7194 34.6447 24.2143 35.6223 23.9757 36.4829C22.9327 36.4268 23.5548 39.3969 22.3808 39.5512C22.6474 36.6466 24.9018 31.2631 26.5716 28.8449L27.7643 28.7233C27.2826 28.4941 27.0955 28.466 26.7868 28.4473C26.8616 28.2602 27.0487 27.9562 27.2124 27.872C27.5679 27.6896 28.3209 27.3762 28.6904 27.3154Z"
    fill="#117D6F"
  />
  <path
    d="M55.0844 2.69881C55.0844 3.81201 54.8412 4.85504 54.4951 5.90743C52.5867 6.66515 52.8206 5.38357 51.4361 5.53325L51.8664 4.79892C52.2359 4.58376 52.119 4.42941 51.6045 4.53231C51.2584 4.3078 50.9076 3.99442 50.6784 3.67636L53.0685 2.70817C53.6345 2.47898 54.308 2.15157 54.7897 1.92706L55.0844 2.70349V2.69881Z"
    fill="#84BB83"
  />
  <path
    d="M23.9758 36.4828C23.2929 38.9431 22.6475 41.4361 22.2125 43.9431C21.8617 45.9918 21.408 48.0638 21.4781 50.2762L21.6512 55.786H21.2677C20.7719 53.4614 21.0899 44.0413 21.9973 40.8701L22.3762 39.5511C23.5549 39.3968 22.9281 36.4267 23.9711 36.4828H23.9758Z"
    fill="#117D6F"
  />
  <path
    d="M50.6784 3.67169C50.9076 3.98975 51.2537 4.30313 51.6045 4.52764C52.119 4.42006 52.2359 4.57908 51.8664 4.79424C50.4819 5.24326 48.728 7.11418 48.017 8.20399C47.8954 8.3864 47.5867 8.653 47.2967 8.9617C47.0675 8.41914 46.9693 7.23578 47.2359 6.68854C47.292 6.6558 47.437 6.57161 47.4417 6.50145L47.4885 5.96356C49.5558 4.33119 47.9749 4.77085 50.6737 3.67637L50.6784 3.67169Z"
    fill="#6FAA74"
  />
  <path
    d="M9.74742 50.5802C10.3134 50.5615 10.9214 51.4502 11.1225 51.6794C9.01776 53.3164 5.6548 51.9787 4.41531 50.6691L4.53225 50.0844C7.08137 51.1602 7.42748 50.6597 9.74742 50.5802Z"
    fill="#4D9271"
  />
  <path
    d="M12.7035 41.0526C13.3069 42.0909 13.4285 43.452 13.4659 44.6728L12.6473 43.7794C10.4116 42.9983 11.5903 42.2125 10.1684 42.2125C9.92516 41.118 9.84565 40.2387 10 39.1536C10.4584 39.3313 10.4116 40.1218 10.6735 40.6784C10.9495 41.2724 12.1141 41.1087 12.7035 41.0572V41.0526Z"
    fill="#6FAA74"
  />
  <path
    d="M16.3097 44.1349C16.2068 44.0414 16.015 43.7327 16.0525 43.5783C16.2676 42.6709 15.87 40.8936 15.3555 39.9768C14.8831 39.1349 12.3995 35.6035 11.4173 35.8561L11.2769 36.9974L10.3789 36.8617C10.6362 36.2397 10.5286 35.3556 11.0337 34.5652C14.4528 36.6513 17.0627 39.9908 16.3097 44.1396V44.1349Z"
    fill="#9DCA87"
  />
  <path
    d="M13.4706 44.6681C13.7559 45.2247 13.9477 46.1835 13.9243 46.9038C11.8382 45.9076 10.5941 44.1208 10.1684 42.2078C11.5903 42.2078 10.4116 42.9936 12.6474 43.7747L13.4659 44.6681H13.4706Z"
    fill="#4D9271"
  />
  <path
    d="M16.0524 43.5783C15.276 43.452 15.5753 44.3875 14.565 44.0881L13.6577 41.2397C14.2517 40.8515 14.8223 40.4399 15.3555 39.9768C15.87 40.8889 16.2676 42.6663 16.0524 43.5783Z"
    fill="#6FAA74"
  />
  <path
    d="M2.93267 46.0339C5.17777 46.6466 5.36018 46.0572 7.89995 47.3435C7.46029 47.8907 6.94579 48.0357 6.27226 47.7504L5.38825 47.3762C4.5744 47.0301 3.31621 47.1658 2.5351 47.423C2.44156 47.3809 2.19834 47.2266 2.14689 47.2827L1.96447 47.4979C1.88963 47.1517 1.43594 46.5671 1.4032 46.2163C1.88496 46.1367 2.45559 46.0385 2.93735 46.0292L2.93267 46.0339Z"
    fill="#84BB83"
  />
  <path
    d="M11.7354 57.3436C11.4828 58.3118 10.7344 57.9704 10.7765 58.859C10.0843 58.7561 9.4014 58.5504 8.57352 58.2417C9.71478 56.4315 11.7447 55.7159 13.5922 56.4596L11.7354 57.3436Z"
    fill="#6FAA74"
  />
  <path
    d="M55.0844 2.6988L54.7898 1.92236C54.308 2.14687 53.6345 2.47428 53.0685 2.70347L50.6784 3.67167C47.975 4.77084 49.5559 4.32649 47.4932 5.95887C47.6242 4.40133 49.5185 3.1104 51.0245 2.60525L55.0798 1.2348V2.6988H55.0844Z"
    fill="#9DCA87"
  />
  <path
    d="M5.97291 44.8832C6.34241 44.9019 7.79705 45.1919 8.07301 45.4211L6.97852 46.076C6.62305 46.0572 6.03371 45.9871 5.62679 45.9964L2.93734 46.0385C2.46026 46.0479 1.88963 46.1461 1.40319 46.2256C1.35174 45.6737 1.92237 45.8234 1.78673 45.5895L1.609 45.2715C2.99815 44.8505 4.49956 44.8224 5.97291 44.8879V44.8832Z"
    fill="#154939"
  />
  <path
    d="M6.97852 46.0759C8.10107 46.6699 10.3836 47.4838 10.566 49.06L10.0375 48.901C9.61651 48.0591 8.6717 47.7317 7.90463 47.3481C5.36486 46.0619 5.18245 46.6512 2.93735 46.0385L5.62679 45.9964C6.03371 45.9917 6.62773 46.0572 6.97852 46.0759Z"
    fill="#9DCA87"
  />
  <path
    d="M10.7765 58.859C10.7344 57.975 11.4781 58.3118 11.7353 57.3436L14.2704 57.1237C13.8354 58.7467 12.1422 59.0554 10.7765 58.859Z"
    fill="#4D9271"
  />
  <path
    d="M51.4081 9.37329C50.4211 9.67263 49.3688 10.5145 48.162 9.94392L48.3865 8.9804L49.1676 8.19461C49.3734 8.11977 51.2724 9.13474 51.4081 9.37329Z"
    fill="#4D9271"
  />
  <path
    d="M51.4361 5.52853C50.51 6.22544 49.7289 7.17961 49.1723 8.19458L48.3912 8.98037C48.2228 8.76989 48.0919 8.4799 48.017 8.20394C48.728 7.11413 50.482 5.24321 51.8664 4.79419L51.4361 5.52853Z"
    fill="#154939"
  />
  <path
    d="M16.0525 43.5783C16.015 43.7373 16.2068 44.046 16.3097 44.1349C16.146 45.0283 15.9028 45.8608 15.1357 46.6653C14.8925 45.7345 14.813 44.8692 14.5651 44.0835C15.5754 44.3828 15.2807 43.4473 16.0525 43.5736V43.5783Z"
    fill="#4D9271"
  />
  <path
    d="M10.0328 48.9011L10.5613 49.0601C11.0946 49.2238 11.4266 49.8692 11.4407 50.4258L7.70819 48.756C8.65768 48.3725 9.43879 49.4062 10.0328 48.8964V48.9011Z"
    fill="#4D9271"
  />
  <path
    d="M43.438 7.79233L43.2696 7.92798C40.7486 6.23012 39.177 7.27315 38.6531 6.47801L40.3884 6.46866C41.5951 6.46398 42.6522 7.00655 43.4333 7.79233H43.438Z"
    fill="#84BB83"
  />
  <path
    d="M21.6558 55.7907L22.0908 57.83C22.1142 57.9376 21.7915 58.3773 21.8008 58.2743L21.2723 55.7907H21.6558Z"
    fill="#4D9271"
  />
  <path
    d="M26.567 28.8495C26.6324 28.7559 26.7307 28.5595 26.7868 28.4566C27.0955 28.4706 27.2826 28.4987 27.7643 28.7326L26.5716 28.8542L26.567 28.8495Z"
    fill="#117D6F"
  />
  <path
    d="M47.2359 6.6887L47.4419 6.5014C47.4373 6.57633 47.2921 6.65593 47.2359 6.6887Z"
    fill="#9DCA87"
  />
  <path
    d="M4.17696 52.732C4.22869 52.732 4.27061 52.6901 4.27061 52.6383C4.27061 52.5866 4.22869 52.5447 4.17696 52.5447C4.12524 52.5447 4.08331 52.5866 4.08331 52.6383C4.08331 52.6901 4.12524 52.732 4.17696 52.732Z"
    fill="#D2EACD"
  />
  <path
    d="M74.991 21.7306C75.3792 21.913 75.889 22.624 76.0948 23.0824C71.9929 23.2227 70.3886 24.3031 66.9695 25.6268C66.9695 25.5099 66.4596 25.3836 66.3895 25.5333L66.1696 26.001L65.7814 26.1741C65.8937 26.1834 65.44 25.9683 65.3511 25.9963L61.7917 27.1048C60.4587 27.5211 58.7936 27.7924 57.5073 27.61C56.6233 26.8476 55.6551 26.2442 54.8132 25.4538L53.1715 23.9056L51.4596 22.6521L54.2659 21.3752C53.5176 21.1319 52.8768 21.0711 52.5868 20.6268C55.2762 19.7896 58.0592 19.5978 61.0386 19.4107C52.5821 17.9748 43.8543 21.1179 38.0357 27.4276C34.495 31.2676 32.6709 35.8701 32.1658 40.8841L31.829 40.9356C31.7775 41.7307 31.5998 42.6475 31.5998 43.3771L31.1835 43.307C31.0759 43.2883 31.0338 42.9375 31.0292 42.8205L30.9824 41.4969L29.0226 40.0469C28.8075 39.5184 28.6391 38.8027 28.2041 38.6156C27.6194 38.3584 27.147 38.4426 26.408 38.5595L26.1975 37.2733L25.7953 34.5979C25.7392 34.2143 25.4351 33.7934 25.0937 33.8261C26.118 31.567 27.3294 29.3873 28.6905 27.3153C29.2331 26.4874 30.061 25.7718 30.7579 24.9486C35.0984 19.8083 40.9076 16.3284 47.526 14.9579C53.3258 13.7559 59.1958 14.0552 64.7898 16.0664C68.3072 17.3293 71.338 19.2423 74.3175 21.45C74.4671 21.5576 74.8367 21.6558 74.991 21.7306Z"
    fill="#117D6F"
  />
  <path
    d="M31.5998 43.3819C31.5904 46.3847 32.1424 49.3922 33.4941 52.1611C34.7149 54.6588 36.2256 56.9788 38.4427 58.4848V58.8263L37.0862 59.6121L37.9235 62.4652C38.2696 63.6439 39.453 64.1631 40.3791 64.7477C39.6541 66.062 40.4165 69.4858 39.5418 69.874C38.452 70.3605 37.5961 71.0995 36.7822 71.8572C32.858 70.4213 32.1938 68.4568 30.7438 64.9208C30.6737 64.7524 30.6877 64.2847 30.5895 64.1397C30.4913 63.9947 29.9908 63.9479 29.9253 64.1069L29.6634 64.7571L29.3266 64.9208L28.7373 63.99C28.8262 62.9049 28.4473 62.2547 27.7504 61.5064C27.4791 61.2117 27.2219 60.3978 26.843 60.1733C26.3612 59.8833 25.5006 59.9582 25.0516 60.0751C24.4342 62.5541 22.7036 64.121 22.8439 66.4315L23.0216 69.3455C23.19 72.1285 26.7027 74.8834 29.2097 75.9265C31.5904 76.918 34.1629 76.7122 36.7448 76.8525L38.7888 76.9601C40.8281 77.0677 42.4184 77.9377 43.9619 77.3296L45.772 76.6187C46.2303 76.4363 46.6794 76.4737 47.0161 76.8058L45.4212 77.484C45.3136 77.5308 45.3183 77.9377 45.4352 77.9517L45.8468 77.9985C47.6476 78.2043 49.0414 77.2361 50.6551 76.3147C50.5943 78.4943 47.0956 80.1454 45.5194 80.2857C45.0096 78.8451 42.8861 81.4924 38.5689 79.3736C36.6934 78.4522 34.8318 80.2249 29.5418 79.1631C27.2452 78.7048 27.3481 78.0687 26.2911 77.4887C22.0581 75.1641 21.0198 71.9274 21.0525 67.3062C21.0385 67.2594 20.8561 67.0209 20.8794 67.0536C21.4267 64.1818 22.7036 61.4549 24.4482 59.0508L24.0787 58.6392L24.3032 57.9049L26.4267 57.4839C26.6793 56.2304 25.3276 53.5597 25.1124 52.5681L23.8916 47.0115C23.7419 46.3286 23.5361 45.7533 23.452 45.0283C23.4145 44.7336 23.3257 44.1957 23.1199 44.0741C22.9141 43.9525 22.451 43.9198 22.1984 43.9291C22.6288 41.4221 23.2742 38.9291 23.9618 36.4688C24.2003 35.6082 24.7055 34.6353 25.0797 33.8121C25.4258 33.7794 25.7251 34.205 25.7812 34.5839L26.1835 37.2593L26.394 38.5456C27.133 38.4286 27.6054 38.3491 28.1901 38.6017C28.6204 38.7888 28.7887 39.5044 29.0086 40.0329L30.9684 41.4829L31.0151 42.8066C31.0151 42.9235 31.0619 43.2743 31.1695 43.293L31.5858 43.3632L31.5998 43.3819Z"
    fill="#117D6F"
  />
  <path
    d="M51.8384 31.8851L50.1078 33.0871C49.8646 33.2555 49.28 32.5305 49.1724 32.2405L48.2556 32.9094C48.0311 32.8767 48.0405 32.2172 48.1527 31.871C48.2182 31.6652 47.5587 31.3612 47.409 31.5109L46.8337 32.1002C44.8365 30.8561 41.6232 32.292 40.4025 34.3921C40.2949 34.5792 40.323 35.2387 40.5241 35.2621C41.4923 35.393 42.4231 34.2471 44.9722 33.8402C45.627 33.7373 46.1696 33.625 46.6981 33.4613C46.8384 33.6578 46.9974 33.9197 47.0723 34.1068C47.1565 34.3219 46.5671 34.799 46.3146 34.7943L43.8309 34.7616L43.8543 35.7204C42.1658 35.9449 38.8449 38.6765 39.6447 40.3042C38.9011 42.0816 39.7757 44.322 40.8375 45.6877C41.1181 45.7766 41.2397 45.7953 41.1789 45.6597L41.5157 46.0245C40.8889 46.3426 40.1593 46.5577 39.6635 47.0395C39.2565 47.4371 39.6868 48.2369 40.1078 48.597L41.7823 50.0236C43.3211 51.3332 46.5765 49.0554 46.8758 49.9581L47.2173 50.9871C47.367 51.4315 48.396 51.656 48.7842 51.946C51.2959 53.8122 51.4876 53.0171 51.8665 53.0264C53.7889 53.0732 55.6457 53.9198 57.6196 53.2603C58.092 53.1012 58.7281 53.2977 59.0882 53.2837L61.5812 53.1854L63.3773 52.4277C63.7047 52.2874 64.4578 51.9039 64.6636 51.6186L66.3754 49.2752C67.9143 49.6073 68.962 48.6765 70.1032 47.9235C71.165 47.2266 71.7637 46.2163 71.4035 44.902C72.643 42.0114 70.6318 42.3762 70.8329 41.3659L71.1556 39.7242L72.0443 39.4576L72.2782 38.7794C72.643 40.061 73.223 41.3332 73.5177 42.6522C74.107 45.2715 74.8226 47.8861 75.1407 50.641C75.3278 52.2406 75.4728 53.7374 75.5523 55.2341C75.2342 55.1359 74.818 54.9955 74.4672 54.8365C71.7356 53.6017 68.8544 54.2846 66.7917 56.4128C64.0181 59.2753 60.4868 61.1836 56.4315 61.4455C53.7187 58.4567 49.8272 57.8768 46.1275 58.8543L46.3754 58.148C44.7944 56.6513 43.1153 55.6738 41.4315 54.032C40.8281 53.4427 40.4773 52.6803 39.4623 52.6756C39.1396 52.6756 38.8075 52.0769 38.6298 51.815L37.2827 49.8692C37.0442 49.5231 37.0489 48.5877 36.8758 48.2041C35.3463 44.8037 36.4595 44.7008 34.7617 42.9001C34.7944 39.2003 35.8281 35.4679 38.0264 32.437C40.5101 29.0132 41.8992 28.19 45.8609 29.7008C47.8908 30.4725 49.7991 31.4641 51.8525 31.8897L51.8384 31.8851ZM59.0882 53.7748C57.6055 54.4764 56.1883 54.4623 54.4063 54.5091C55.0564 55.7159 59.0508 55.4025 59.0882 53.7748Z"
    fill="#9DCA87"
  />
  <path
    d="M76.6748 60.931L76.5017 64.3735C76.455 65.3417 76.338 66.2116 76.1603 67.0536C75.6926 66.5157 74.6449 68.2462 74.1163 68.5035C73.2323 68.9338 72.2548 69.2332 71.3006 69.5512C70.6972 69.9956 70.0471 70.2481 69.2894 70.4118L65.8375 71.1602C65.0237 71.3379 64.1116 71.5952 63.3165 71.8571L60.2669 72.8674C59.4951 73.12 58.7514 73.2135 57.9937 73.1481C58.0732 72.961 58.0639 72.5681 58.0592 72.3529C58.3492 72.0536 58.5035 71.6513 58.3445 71.2865C58.9572 68.7701 59.1724 66.1134 57.9937 63.7794C62.9423 62.5493 64.3034 61.5952 67.9142 58.1386C69.8881 56.249 72.8347 56.3145 74.9349 57.872C75.9592 58.6298 76.7356 59.6494 76.6701 60.9356L76.6748 60.931Z"
    fill="#117D6F"
  />
  <path
    d="M76.1603 67.0583C75.9685 67.9844 75.9171 69.2379 76.4222 69.9114C76.0574 72.4699 73.6579 78.1247 71.5672 79.6916L71.5111 79.5045C71.497 79.4531 71.4737 79.3502 71.5017 79.3174C71.5345 79.3174 71.6982 79.1724 71.7028 79.0882L71.7262 78.7795C71.9835 78.9807 74.6355 74.2379 73.7234 74.715L73.1715 75.005C71.2772 75.9919 70.8796 78.0826 66.1275 79.2707C65.3745 79.4578 64.4764 79.8179 63.7608 79.874L60.5989 80.1313C60.0938 80.1734 59.2425 80.019 58.8029 80.1734C57.8393 80.5055 57.1518 80.4026 56.207 80.2997C54.916 80.1593 53.6298 80.1126 52.4324 79.8273C52.6709 79.3221 52.8861 78.8076 53.0592 78.2978C55.1499 77.7786 57.2968 74.8413 57.9984 73.1574C58.7561 73.2229 59.4998 73.1294 60.2715 72.8768L63.3211 71.8665C64.1163 71.6046 65.0283 71.3427 65.8422 71.1696L69.294 70.4212C70.0564 70.2575 70.7019 70.005 71.3053 69.5606C72.2594 69.2426 73.237 68.9432 74.121 68.5129C74.6495 68.2557 75.6972 66.5251 76.165 67.0629L76.1603 67.0583Z"
    fill="#117D6F"
  />
  <path
    d="M53.0545 78.2931C52.8814 78.8076 52.6663 79.3175 52.4277 79.8226C51.1415 80.3511 51.1695 81.7403 49.4764 83.3914C52.5727 84.4297 57.7365 84.093 60.7907 83.0874C61.5952 82.8207 62.5587 82.6804 63.3118 82.339C65.1266 81.5111 66.7964 80.6505 68.5457 79.715C69.556 79.1725 70.6271 78.8965 71.7262 78.7749L71.7028 79.0836L71.5017 79.3128C71.4737 79.3455 71.4924 79.4484 71.5111 79.4999C71.1837 79.6823 70.9404 79.9723 70.6271 80.2997L68.8357 82.1566C68.7141 82.2829 68.5457 82.6009 68.5036 82.7272C62.091 88.2324 53.2042 88.6299 45.3183 87.3951C45.1171 87.3624 45.0423 87.5869 45.047 87.6664C45.061 87.8629 44.64 88.1669 44.4155 88.1575C42.25 88.078 41.525 86.2258 40.7345 87.6898L40.2715 86.9929C40.3276 87.0303 40.1639 87.8395 40.2294 88.0733C39.771 88.1388 39.5512 87.353 39.2471 87.1519L38.5689 86.7029C38.452 86.6281 38.4754 86.3381 38.4847 86.179C38.9759 86.324 39.4857 86.4176 40.1218 86.3802L35.1919 83.1996L37.8814 82.657C40.365 83.5083 42.9282 83.8451 45.4539 83.4194C47.7084 83.0406 48.9244 81.6421 50.2013 79.9208L51.7916 77.7786C52.2781 77.7365 52.8206 77.8862 53.0545 78.2978V78.2931Z"
    fill="#117D6F"
  />
  <path
    d="M29.3313 64.9255C29.2424 65.1313 29.0787 65.4119 28.9524 65.5803C28.6998 65.5662 28.2929 65.8562 28.204 66.1135L27.4416 68.2791C27.2966 68.6954 27.4136 69.5606 27.437 70.1547L26.9926 70.8376L26.0151 70.8609C25.7204 70.9311 25.4444 71.1229 25.8794 71.2304C25.8794 71.7543 26.4688 71.8011 26.9599 72.0303C30.6643 73.7421 32.4978 75.4119 37.1985 74.6121C38.1012 73.948 38.7326 72.802 39.626 72.2501C40.5193 71.6982 41.7074 71.0714 42.2733 70.3792C42.3902 70.2389 42.7972 70.0939 42.8626 70.1032C43.2368 71.5953 41.104 72.7646 41.8757 73.9433C41.6933 74.121 41.9646 74.6028 42.2452 74.7197C44.481 75.6598 46.8758 75.3699 49.0413 74.3315H50.1218C50.22 75.7581 47.5306 76.5906 47.0254 76.8058C46.684 76.4737 46.2396 76.4363 45.7813 76.6187L43.9712 77.3296C42.4277 77.9377 40.8374 77.0677 38.7981 76.9601L36.7541 76.8525C34.1722 76.7169 31.5997 76.918 29.219 75.9264C26.7073 74.8834 23.1993 72.1238 23.0309 69.3455L22.8532 66.4315C22.7129 64.1163 24.4435 62.5494 25.0609 60.0751C25.5052 59.9582 26.3659 59.8833 26.8523 60.1733C27.2312 60.3978 27.4884 61.2117 27.7597 61.5064C28.4519 62.2594 28.8308 62.9049 28.7466 63.99L29.3359 64.9208L29.3313 64.9255Z"
    fill="#117D6F"
  />
  <path
    d="M67.6991 27.9094C67.7786 28.1292 68.5878 28.7279 68.6814 29.219C65.4727 29.6025 62.9891 30.7906 60.0237 31.4735C57.2828 32.1049 54.5325 32.4417 51.8384 31.8851C49.7851 31.4594 47.8768 30.4678 45.8468 29.6961C41.8852 28.19 40.5007 29.0085 38.0124 32.4323C35.814 35.4632 34.7804 39.1957 34.7476 42.8954C36.4455 44.6915 35.3323 44.7944 36.8617 48.1994C37.0348 48.583 37.0254 49.5184 37.2687 49.8646L38.6157 51.8103C38.7981 52.0722 39.1256 52.6709 39.4483 52.6709C40.4586 52.6756 40.8141 53.438 41.4174 54.0273C43.1013 55.6691 44.7804 56.6419 46.3613 58.1434L46.1134 58.8496C45.6176 59.1256 45.0517 59.4249 44.4062 59.6261C39.3454 57.4277 35.3931 53.2135 34.0367 47.7878C32.5025 41.6466 33.9431 35.0703 37.7551 30.0983C39.6026 27.6849 42.6663 26.9599 45.3931 27.9842L49.3361 29.4622L49.743 29.6213C50.8328 30.262 52.1284 30.3275 53.3211 30.538C54.9161 30.814 56.5531 30.9309 58.1481 30.5614C58.8403 30.3977 59.584 30.3509 60.2529 30.0983L61.0106 29.8083C61.338 29.8738 61.8665 29.509 62.1659 29.4342C64.004 28.9617 67.1519 27.1283 67.3296 27.3855L67.6944 27.9047L67.6991 27.9094Z"
    fill="#9DCA87"
  />
  <path
    d="M41.3753 91.9087C41.7401 93.1342 42.5773 94.1351 42.147 95.6833C43.1246 94.4298 42.6569 93.0968 42.2406 91.8994L41.8851 90.5897C42.699 90.398 43.3351 91.0715 44.0273 91.5252C45.4913 93.7937 45.7579 96.3849 44.4249 98.7843C45.6176 97.8021 46.0947 96.3194 46.0292 95.0051C46.2163 95.0238 46.4034 95.0098 46.4314 95.1407L46.5577 95.702C47.1517 98.3681 48.1527 101.315 45.3042 102.704C42.9188 103.869 42.6943 104.837 40.2855 106.642C40.0095 106.848 39.7663 107.03 39.5979 107.194C39.4015 107.063 39.0647 106.923 39.1021 106.726C39.1582 106.464 39.2518 106.17 39.2612 106.006C39.3687 105.941 39.5839 105.721 39.6634 105.576L41.4922 102.217C41.5624 102.115 41.684 101.876 41.5904 101.867L41.3285 101.853C41.6419 101.577 41.9506 101.179 42.3014 100.758C41.6887 100.889 40.959 101.109 40.5147 101.432C40.0656 100.866 38.5128 101.937 37.7083 102.147C35.7158 102.662 33.9805 103.27 32.3154 104.481C31.9646 104.739 31.0478 104.706 30.6362 104.696C30.7017 104.341 30.8561 104.074 31.0385 103.775C31.3378 103.943 31.7635 103.504 32.1189 103.34C34.2471 102.372 36.2537 101.362 38.1012 100.052C38.2462 100.309 42.2359 97.1052 41.9506 96.5954L39.4202 98.1716L40.1498 94.9209C39.7663 95.3559 39.4997 95.6739 39.2003 95.8844C39.1162 93.5785 39.06 91.2212 38.2742 89.0509L38.77 89.1257C39.6915 90.8704 39.9394 92.7974 39.8739 94.8648C41.0058 94.1819 40.8888 92.1707 41.3659 91.9134L41.3753 91.9087ZM42.2874 96.006C42.2874 95.9546 42.2453 95.9125 42.1938 95.9125C42.1424 95.9125 42.1003 95.9546 42.1003 96.006C42.1003 96.0575 42.1424 96.0996 42.1938 96.0996C42.2453 96.0996 42.2874 96.0575 42.2874 96.006ZM42.0956 96.3849C42.0956 96.3334 42.0535 96.2913 42.002 96.2913C41.9506 96.2913 41.9085 96.3334 41.9085 96.3849C41.9085 96.4363 41.9506 96.4784 42.002 96.4784C42.0535 96.4784 42.0956 96.4363 42.0956 96.3849Z"
    fill="#117D6F"
  />
  <path
    d="M96.0294 52.9189C96.8526 53.4988 97.1566 54.6588 97.4466 55.7486C98.6814 54.8553 99.8601 53.8777 101.362 53.2884C101.605 53.6672 101.502 54.0882 101.39 54.4343C101.338 54.4296 101.015 54.5559 100.927 54.6448C98.9995 56.5531 96.4363 57.6757 93.8919 58.4381L92.5121 58.4801C91.7637 58.5035 91.006 58.3585 90.2436 58.1527C90.1126 59.3408 89.4859 60.3417 88.5457 60.9357L86.8432 61.4222L85.3184 61.8244L83.0593 62.4091C82.0303 62.6757 80.7721 63.3492 80.309 63.237C79.9769 62.54 80.3184 60.9731 78.7749 60.5896C78.7515 60.337 78.6907 59.9535 78.7562 59.7945L79.1912 59.8038C79.2332 59.8038 79.3174 59.8319 79.3595 59.8319C79.3736 60.0798 79.5279 60.5101 79.701 60.6831C80.0845 61.062 81.3661 60.6831 81.4503 60.4072C83.513 60.6785 87.8816 57.6382 88.3493 55.613C89.8881 53.6204 88.5457 53.6766 91.9742 52.9797C92.2829 53.3118 92.4793 53.4942 92.7459 53.4661C92.9424 53.5222 93.0546 53.5269 93.0967 53.41C93.1482 53.2509 93.2137 53.0124 93.2651 52.9282C93.6346 52.3202 95.0939 52.2781 95.2015 52.3529L96.0341 52.9142L96.0294 52.9189ZM95.1828 55.7673C94.0977 54.902 92.456 54.6588 91.4082 55.7018C92.6805 55.5615 93.7703 55.6177 95.1828 55.7673Z"
    fill="#117D6F"
  />
  <path
    d="M46.829 79.9769C46.9974 80.4447 47.0956 80.5008 47.2593 80.5289C47.5867 80.5803 47.6662 81.0153 47.3809 81.179C44.9581 82.5635 42.1003 82.4325 39.495 81.6795C38.4239 81.3708 37.5119 81.1884 36.4174 81.4409C33.6905 82.063 31.0291 81.9929 28.4239 81.4596C28.2836 81.4316 28.1853 81.3193 28.1526 81.179C27.9702 80.4213 26.2022 80.1266 24.3593 79.0696C21.885 77.6477 20.4117 75.0097 20.2339 72.1846C20.1264 70.4914 20.5801 68.714 20.8934 67.0629C20.8701 67.0302 21.0525 67.2688 21.0665 67.3155C21.0384 71.9367 22.0768 75.1687 26.3051 77.498C27.3621 78.078 27.2592 78.7141 29.5558 79.1725C34.8458 80.2342 36.7074 78.4568 38.5829 79.3829C42.9001 81.5064 46.3239 78.541 46.8337 79.9816L46.829 79.9769Z"
    fill="#117D6F"
  />
  <path
    d="M45.0423 87.6571L49.0367 89.1959C48.7046 92.9097 48.6905 96.4644 49.1349 100.103C49.2471 101.006 49.0273 102.143 48.3538 102.727C46.4174 104.421 44.5699 103.672 41.4314 106.717C40.8701 107.26 40.1919 107.582 39.5979 107.194C39.7616 107.03 40.0095 106.848 40.2855 106.642C42.6943 104.841 42.9188 103.869 45.3042 102.704C48.1527 101.315 47.1517 98.3681 46.5577 95.702L46.4314 95.1408C46.4034 95.0145 46.2163 95.0238 46.0292 95.0051C45.959 93.5271 44.5839 91.2399 44.3313 91.3709L44.0226 91.5299C43.3304 91.0762 42.6943 90.4073 41.8804 90.5944C41.1695 89.8554 40.9262 88.7048 40.7298 87.6852C41.5203 86.2212 42.2452 88.0734 44.4108 88.1529C44.6353 88.1622 45.0563 87.8582 45.0423 87.6618V87.6571Z"
    fill="#117D6F"
  />
  <path
    d="M50.7018 21.1928L51.0292 22.7035L48.8637 24.1769C48.7093 25.1731 49.5372 25.7344 50.2715 26.0946C51.9179 26.8991 53.5924 27.6053 55.4727 27.6755C56.1368 27.6989 56.8151 27.8345 57.2126 28.0824L56.483 28.5735L58.1621 28.6718L58.5737 28.6951C58.6813 28.6998 58.6906 28.9009 58.714 29.0272C54.3829 30.0703 51.1041 28.9009 47.0255 27.1002C45.2949 26.3378 43.6438 26.1179 41.5764 26.1741C44.3033 23.7512 47.3997 21.9926 50.6972 21.1834L50.7018 21.1928Z"
    fill="#117D6F"
  />
  <path
    d="M93.8919 58.4381L93.8545 59.3829C92.9564 59.4998 92.2221 59.4998 91.1136 59.5606L92.3437 60.5054L91.3802 61.4877C91.1744 61.338 90.6038 61.4409 90.4026 61.6748C89.2567 63.0452 88.0453 64.135 86.5392 65.0798C83.6814 66.8665 82.8816 67.1425 79.687 68.2089C79.3876 68.3072 78.6486 68.2136 78.3867 68.2136C78.6112 66.3193 78.9854 62.6523 78.7749 60.599C80.3231 60.9825 79.9816 62.5494 80.309 63.2463L80.1687 64.8319L83.1154 64.3548C83.3165 64.3221 83.7188 64.57 83.8872 64.6168C84.0883 64.6729 84.383 64.1303 84.5747 64.0508C85.5008 63.6532 86.4597 63.1762 87.1753 62.5073C87.7459 61.9694 88.2838 61.5531 88.5457 60.9451C89.4859 60.3511 90.1126 59.3455 90.2436 58.1621C91.006 58.3679 91.7637 58.5129 92.5121 58.4895L93.8919 58.4474V58.4381Z"
    fill="#117D6F"
  />
  <path
    d="M65.0283 89.3923C64.4905 91.441 63.7187 93.0781 64.3642 95.4167C64.4063 95.5617 64.3127 95.9172 64.2706 95.9405C63.859 95.7067 63.5269 95.3933 63.0452 94.9256C62.9984 95.7815 63.4521 96.5065 63.9385 97.2081C64.0134 97.4513 64.1864 97.8021 64.4016 97.9705L65.6645 98.9621C66.7823 99.8414 68.0358 100.435 69.4624 100.791C71.5391 101.31 73.1528 102.489 74.7291 103.738C74.7478 103.915 74.9769 104.378 74.7945 104.397C74.6121 104.416 74.2145 104.36 74.0321 104.322C74.6402 103.415 66.4456 101.394 65.8141 101.235C64.9114 101.006 64.0835 100.323 63.0265 100.197C62.3904 100.122 61.7917 99.645 61.5531 99.1351L61.4783 97.5215L60.5054 98.0126C60.1406 97.7039 59.8927 97.0538 60.2669 96.4738L61.1275 97.4186L61.5438 95.7581L62.0863 95.3793C62.1846 95.3091 62.0209 95.0566 61.9694 94.9583C62.0162 94.5608 62.0863 93.9246 62.2033 93.499L63.1294 90.2062C63.7047 89.8461 64.3642 89.5701 65.019 89.383L65.0283 89.3923Z"
    fill="#117D6F"
  />
  <path
    d="M58.8497 92.0677L58.7795 93.0313C58.4568 93.2371 57.9282 93.803 57.8674 94.1819L57.395 97.0912C57.3623 97.2876 57.4839 97.6992 57.5774 97.8208C57.5166 98.6019 57.7131 99.1866 58.0966 99.7198C58.5222 100.318 58.5877 101.338 59.3875 101.75L61.9086 103.045L63.4708 103.901C63.5924 104.079 63.8918 104.36 64.0648 104.514L65.7861 106.081C65.9545 106.235 66.1182 106.553 66.1556 106.764C65.2716 106.521 63.8169 105.454 62.9376 104.958C61.2351 104.004 59.4671 103.658 57.6569 103.139C56.1322 102.704 55.0798 101.553 55.2715 99.8882L56.2257 91.5065L57.0068 92.1519C57.3716 92.4513 58.3445 92.1519 58.8497 92.0631V92.0677Z"
    fill="#117D6F"
  />
  <path
    d="M52.5867 20.6268C52.8767 21.0712 53.5221 21.132 54.2658 21.3752L51.4595 22.6521L53.1713 23.9056L54.8131 25.4538C55.655 26.2443 56.6232 26.8476 57.5072 27.61C58.7934 27.7924 60.4586 27.5212 61.7916 27.1049L65.351 25.9964C65.4352 25.9683 65.8936 26.1834 65.7813 26.1741L64.5512 27.0955L61.6232 28.1198C61.3659 28.2087 61.1274 28.2929 61.0011 28.48L58.7186 29.0319C58.6952 28.9056 58.6859 28.7045 58.5783 28.6998L58.1667 28.6764L56.4875 28.5782L57.2172 28.0871C56.8196 27.8392 56.1367 27.7036 55.4772 27.6802C53.597 27.61 51.9225 26.9038 50.2761 26.0993C49.5418 25.7391 48.7139 25.1778 48.8682 24.1816L51.0338 22.7082L50.7064 21.1975C51.2583 21.0618 52.0441 20.8046 52.5914 20.6362L52.5867 20.6268Z"
    fill="#117D6F"
  />
  <path
    d="M62.3576 90.9592C62.0629 92.0022 61.2491 93.948 61.9787 94.9676C62.0255 95.0659 62.1939 95.3184 62.0957 95.3886L61.5531 95.7674L61.1368 97.4279L60.2762 96.4831C59.902 97.0677 60.1499 97.7132 60.5147 98.0219L61.4876 97.5308L61.5624 99.1445C61.6186 100.318 62.2266 99.8367 62.6148 100.828L62.1097 101.408C61.9834 101.549 61.9086 102.082 62.0629 102.194L62.5774 102.578L63.4801 103.906L61.9179 103.05L59.3969 101.754C58.597 101.343 58.5316 100.318 58.1059 99.7244C57.8393 96.5719 59.598 95.3091 59.5699 92.3109C60.323 92.3671 61.5671 90.8469 62.3623 90.9639L62.3576 90.9592Z"
    fill="#117D6F"
  />
  <path
    d="M65.7767 88.8498L65.0283 89.3924C64.3735 89.5795 63.7187 89.8554 63.1387 90.2156C62.8721 90.384 62.5681 90.7067 62.3529 90.9546C61.5625 90.8377 60.3183 92.3578 59.5606 92.3016C59.5606 91.9088 59.2332 91.268 58.99 90.7722C58.9245 91.2446 58.8777 91.6515 58.845 92.0631C58.3398 92.1473 57.3623 92.4513 57.0021 92.152L56.221 91.5065C56.0526 90.819 55.9357 90.0238 55.9965 89.2895C59.9254 88.8404 63.3586 87.6618 66.7636 85.7347C66.5064 86.9087 65.9544 87.8582 65.7674 88.8451L65.7767 88.8498Z"
    fill="#117D6F"
  />
  <path
    d="M36.7869 71.8619L36.6513 72.4372C36.6045 72.629 36.0199 72.6571 35.8187 72.6664C33.9712 72.7412 32.4043 72.325 30.814 71.4971C30.2528 71.2024 29.7195 70.8095 29.6026 70.1079C29.0881 67.0724 30.1499 66.1603 29.6681 64.7618L29.93 64.1116C29.9955 63.9526 30.496 63.9994 30.5942 64.1444C30.6924 64.2894 30.6831 64.7571 30.7485 64.9255C32.1985 68.4615 32.8627 70.426 36.7869 71.8619Z"
    fill="#377A65"
  />
  <path
    d="M76.5251 58.2463C76.6327 58.396 76.8245 58.6953 76.9087 58.8544L77.2033 59.4203L77.2454 59.7805L77.3203 60.8843L77.194 61.3427L76.6748 60.9311C76.7403 59.6448 75.9639 58.6299 74.9395 57.8675C72.8394 56.3099 69.8881 56.2444 67.9189 58.1341C64.3081 61.5906 62.947 62.5447 57.9984 63.7749L57.5026 62.7926C61.3941 62.222 64.8226 60.3511 67.5401 57.5587C68.9433 56.1181 70.4119 55.6411 72.4325 55.6738C73.7328 55.6925 75.7861 57.2173 76.5298 58.2463H76.5251Z"
    fill="#117D6F"
  />
  <path
    d="M75.0003 43.5689C76.3193 47.6616 76.2819 52.1939 77.0162 56.3099C76.4409 56.1555 75.9124 55.7252 75.5382 55.2294C75.4587 53.7327 75.309 52.236 75.1266 50.6363C74.8085 47.8814 74.0929 45.2668 73.5036 42.6475H74.4343L75.0003 43.5736V43.5689Z"
    fill="#117D6F"
  />
  <path
    d="M38.4474 58.8309C39.0694 59.2332 39.6868 59.7103 40.3463 60.192C41.0058 60.6738 41.6653 61.0199 42.1611 61.5251L40.3837 64.7524C39.4576 64.1677 38.2696 63.6485 37.9282 62.4699L37.0909 59.6167L38.452 58.8309H38.4474Z"
    fill="#117D6F"
  />
  <path
    d="M42.8627 70.1079C42.7972 70.0986 42.3856 70.2436 42.2734 70.3839C41.7074 71.0808 40.5241 71.6982 39.626 72.2548C38.728 72.8114 38.1012 73.948 37.1985 74.6168C32.4978 75.4166 30.6597 73.7468 26.9599 72.035C26.4688 71.8104 25.8842 71.759 25.8795 71.2351C30.1826 71.7684 32.0488 74.9115 37.2313 73.8404C38.8075 71.2351 39.177 71.9461 41.946 69.6028C42.0816 69.4905 42.6335 69.3128 42.6897 69.4765C42.7458 69.6402 42.8206 69.9161 42.8674 70.1079H42.8627Z"
    fill="#117D6F"
  />
  <path
    d="M32.1704 40.8889C31.5109 47.4371 33.8636 53.569 38.8403 57.9142L38.4474 58.4848C36.2303 56.9787 34.7149 54.6588 33.4988 52.1611C32.1471 49.3922 31.5951 46.3847 31.6045 43.3818C31.6045 42.6475 31.7822 41.7354 31.8337 40.9403L32.1704 40.8889Z"
    fill="#117D6F"
  />
  <path
    d="M38.4801 86.1743C38.466 86.3334 38.4473 86.6187 38.5642 86.6982L39.2424 87.1472C39.5465 87.3483 39.7663 88.1341 40.2247 88.0686L41.3753 91.9134C40.8982 92.1706 41.0105 94.1819 39.8832 94.8647C39.9487 92.8021 39.7008 90.8703 38.7794 89.1257L38.2836 89.0509L37.1003 85.7721L38.4894 86.179L38.4801 86.1743Z"
    fill="#117D6F"
  />
  <path
    d="M39.4202 98.1717L38.1012 100.047C36.2537 101.357 34.2471 102.367 32.119 103.335C31.7635 103.499 31.3379 103.939 31.0385 103.77C32.9983 100.566 37.8159 101.46 39.2051 95.8798C39.4997 95.674 39.771 95.3512 40.1545 94.9163L39.4249 98.167L39.4202 98.1717Z"
    fill="#117D6F"
  />
  <path
    d="M20.8888 67.0629C20.5754 68.714 20.1264 70.4961 20.2293 72.1846L19.8317 72.208C19.4669 67.4371 20.8981 62.2313 24.088 58.6485L24.4575 59.0601C22.7082 61.4642 21.436 64.1911 20.8888 67.0629Z"
    fill="#117D6F"
  />
  <path
    d="M40.5147 101.432C39.7944 101.96 39.2238 102.774 38.611 103.593C36.4548 103.681 34.4576 104.168 32.4744 105.057C31.8102 105.356 30.9543 105.37 30.4679 105.005L30.6362 104.696C31.0432 104.706 31.9646 104.738 32.3154 104.481C33.9805 103.27 35.7158 102.666 37.7083 102.147C38.5128 101.937 40.0657 100.866 40.5147 101.432Z"
    fill="#377A65"
  />
  <path
    d="M57.8861 72.3157L58.0592 72.3531C58.0638 72.5682 58.0732 72.9611 57.9937 73.1482C57.2921 74.8367 55.1499 77.7694 53.0545 78.2885C52.8159 77.8723 52.278 77.7273 51.7916 77.7694C51.96 77.5449 52.0161 77.0304 52.3856 76.9134C54.8833 76.1183 56.511 74.3503 57.8908 72.311L57.8861 72.3157Z"
    fill="#117D6F"
  />
  <path
    d="M91.3802 61.483C89.5934 63.2978 85.9685 66.6233 83.3118 67.6757C83.1762 67.7319 78.4475 68.9854 78.396 68.4989C78.3867 68.4241 78.3773 68.2838 78.3867 68.2089C78.6486 68.2089 79.3876 68.3025 79.6869 68.2043C82.8815 67.1378 83.6767 66.8666 86.5392 65.0752C88.0453 64.135 89.2613 63.0452 90.4026 61.6701C90.599 61.4315 91.1744 61.3333 91.3802 61.483Z"
    fill="#117D6F"
  />
  <path
    d="M74.7338 103.747C73.1528 102.498 71.5392 101.319 69.4671 100.8C68.0406 100.445 66.7871 99.8508 65.6692 98.9714L65.8422 98.3587L68.9854 99.7525C70.3792 100.37 74.4905 101.507 74.7384 103.752L74.7338 103.747Z"
    fill="#117D6F"
  />
  <path
    d="M20.2339 72.1846C20.4117 75.0097 21.885 77.6477 24.3593 79.0696C26.3752 80.2249 28.2929 80.4681 28.1619 81.4036C23.3817 80.3652 20.2199 77.2127 19.841 72.2127L20.2386 72.1893L20.2339 72.1846Z"
    fill="#117D6F"
  />
  <path
    d="M63.4614 101.226C62.9469 101.497 64.5559 102.241 65.6457 103.85L67.1144 106.02C67.1097 106.053 67.1191 106.109 67.1284 106.151L66.2491 106.179C65.9217 105.103 65.0844 104.294 64.0695 104.519C63.8964 104.36 63.5971 104.079 63.4755 103.906L62.5727 102.578L62.0582 102.194C61.9086 102.082 61.9834 101.553 62.105 101.408L62.6102 100.828C62.8861 100.866 63.2556 101.039 63.4614 101.226Z"
    fill="#117D6F"
  />
  <path
    d="M77.194 61.3426L77.2127 61.5203L77.4606 61.7121C77.7459 64.5184 77.0911 65.8561 77.0116 68.3912C76.8058 68.6157 77.0116 69.1069 76.9975 69.4483L76.4222 69.9067C75.9171 69.2331 75.9685 67.9796 76.1603 67.0535C76.338 66.2116 76.455 65.3416 76.5017 64.3734L76.6748 60.931L77.194 61.3426Z"
    fill="#117D6F"
  />
  <path
    d="M74.0367 104.332C73.7748 104.435 73.2743 104.421 72.9329 104.271C71.1602 103.504 69.4577 103.204 67.5446 103.232L65.8187 101.245C66.4502 101.404 74.6448 103.424 74.0367 104.332Z"
    fill="#117D6F"
  />
  <path
    d="M88.3493 55.6177C87.8816 57.643 83.513 60.6832 81.4503 60.4119L80.7019 59.8413C81.3614 59.7618 82.6243 59.4203 83.1762 59.0181C85.1828 58.5737 86.5906 56.9133 88.1435 55.6083L88.3493 55.6177Z"
    fill="#117D6F"
  />
  <path
    d="M65.7767 88.8498L65.2014 91.876C64.874 93.5972 64.888 95.0706 65.2996 96.8246C64.9207 96.558 64.5559 96.2399 64.2706 95.9452C64.3127 95.9172 64.4062 95.5617 64.3641 95.4214C63.714 93.0827 64.4858 91.4457 65.0283 89.397L65.7767 88.8545V88.8498Z"
    fill="#117D6F"
  />
  <path
    d="M50.1265 74.3409H49.0461C46.8805 75.3745 44.4857 75.6692 42.25 74.7291C41.9693 74.6122 41.698 74.1304 41.8805 73.9527C43.3211 74.687 44.9207 74.9442 46.5671 74.4204L49.018 73.6393C49.2332 73.5691 49.7243 73.6112 49.8739 73.7141C50.0236 73.817 50.1125 74.1538 50.1265 74.3455V74.3409Z"
    fill="#117D6F"
  />
  <path
    d="M42.1611 61.5204C41.6699 61.0153 40.9824 60.6505 40.3463 60.1874C39.7102 59.7243 39.0694 59.2286 38.4473 58.8263V58.4849L38.8355 57.9142C40.0843 59.0041 41.4688 59.7524 43.0685 60.6832C42.886 60.9592 42.4838 61.324 42.1611 61.5204Z"
    fill="#117D6F"
  />
  <path
    d="M28.9524 65.5849C28.4707 67.3249 28.031 69.0929 28.48 70.917C27.8205 70.8702 27.3949 70.8328 26.9973 70.8422L27.4417 70.1593C27.4183 69.5606 27.3013 68.6953 27.4463 68.2837L28.2087 66.1181C28.2976 65.8609 28.7045 65.5709 28.9571 65.5849H28.9524Z"
    fill="#117D6F"
  />
  <path
    d="M67.1144 106.02L65.6457 103.85C64.5559 102.236 62.947 101.497 63.4615 101.226C65.1313 101.404 67.3389 104.444 67.1144 106.02Z"
    fill="#117D6F"
  />
  <path
    d="M80.1172 69.7758C79.9161 69.8413 79.5513 69.9348 79.3501 69.9395V69.6402C79.3455 69.5653 79.0789 69.5607 78.99 69.5653L77.7926 69.6074L78.0171 69.9722L77.6429 70.889L77.1238 71.0013C76.7262 71.0901 77.5681 69.6682 77.3155 69.57L76.4128 69.9582C76.4222 69.6168 76.801 68.6158 77.0068 68.3913C77.2173 68.0265 77.6289 68.8497 77.8394 69.0789L80.0424 69.121L80.1125 69.7711L80.1172 69.7758Z"
    fill="#1A4D3C"
  />
  <path
    d="M39.2612 106.001C39.336 104.823 40.3135 102.737 41.3238 101.848L41.5858 101.862C41.6793 101.867 41.5577 102.105 41.4875 102.213L39.6587 105.571C39.5792 105.716 39.3687 105.936 39.2565 106.001H39.2612Z"
    fill="#117D6F"
  />
  <path
    d="M58.1528 30.5661C56.5625 30.9356 54.9254 30.8234 53.3258 30.5427L53.5456 30.061C53.6018 29.9394 53.9385 30.1732 54.135 30.2621C54.8553 30.5989 56.1182 29.7382 58.1528 30.5614V30.5661Z"
    fill="#1A4D3C"
  />
  <path
    d="M45.8842 73.2183C45.0516 73.3727 44.1536 73.7515 43.3257 72.9237C43.5221 72.5167 43.8355 71.9976 43.9712 71.6281L45.8842 73.2183Z"
    fill="#E7F4E3"
  />
  <path
    d="M71.5064 79.4952L71.5626 79.6823C70.9685 81.0153 69.57 81.7918 68.4989 82.7179C68.5364 82.5916 68.7047 82.2735 68.831 82.1472L70.6224 80.2904C70.9405 79.9629 71.1837 79.673 71.5064 79.4905V79.4952Z"
    fill="#377A65"
  />
  <path
    d="M80.7019 59.8412L81.4503 60.4119C81.3661 60.6878 80.0845 61.0667 79.701 60.6878C79.5279 60.5194 79.3782 60.0844 79.3595 59.8365H80.7019V59.8412Z"
    fill="#117D6F"
  />
  <path
    d="M76.9087 58.8543C76.8245 58.6906 76.6328 58.3912 76.5252 58.2462C77.035 57.9609 77.3858 57.6242 77.8582 57.119C77.9471 57.3809 77.9985 58.0545 77.8021 58.2977C77.6243 58.5175 77.2034 58.7608 76.9087 58.8543Z"
    fill="#1A4D3C"
  />
  <path
    d="M51.7261 74.1678C51.7308 74.0602 51.6934 73.8591 51.6747 73.7468C52.6569 73.5878 53.4614 72.9844 54.3127 72.4418C54.2238 72.9938 53.3679 73.7281 52.699 73.9058L51.7261 74.1678Z"
    fill="#E7F4E3"
  />
  <path
    d="M65.8375 98.354L65.6645 98.9668L64.4016 97.9752C64.1864 97.8068 64.0134 97.4513 63.9385 97.2128L65.8328 98.354H65.8375Z"
    fill="#117D6F"
  />
  <path
    d="M55.2809 73.382C54.8693 73.8216 54.467 74.1397 53.9713 74.4718C53.9993 73.8871 54.7056 73.3913 55.2809 73.382Z"
    fill="#E7F4E3"
  />
  <path
    d="M52.9656 75.1032L51.6841 75.7113C51.6841 75.281 51.6794 75.1968 51.6841 75.0658C51.9787 75.1266 52.3202 75.1453 52.6569 75.1219L52.9656 75.1032Z"
    fill="#E7F4E3"
  />
  <path
    d="M67.1284 106.151C67.2267 106.362 67.077 106.867 66.8712 106.848C66.642 106.829 66.3239 106.811 66.1602 106.768C66.1228 106.558 65.9591 106.235 65.7907 106.086L64.0695 104.519C65.0845 104.294 65.9217 105.103 66.2491 106.179L67.1284 106.151Z"
    fill="#117D6F"
  />
  <path
    d="M56.8197 70.875C56.6373 71.2679 56.4783 71.6795 56.2678 72.049C56.2351 71.5906 56.338 70.9171 56.8197 70.875Z"
    fill="#E7F4E3"
  />
  <path
    d="M58.0546 72.353L57.8815 72.3156L58.3399 71.2866C58.4942 71.6514 58.3399 72.0536 58.0546 72.353Z"
    fill="#4D9271"
  />
  <path
    d="M61.0105 29.8131L60.2528 30.1031C60.3417 29.9534 60.4726 29.7523 60.5615 29.6307C60.6317 29.5324 60.931 29.7663 61.0105 29.8131Z"
    fill="#1A4D3C"
  />
  <path
    d="M77.4418 61.5204H77.2127L77.1939 61.3426L77.3202 60.8843C77.3951 60.9264 77.6991 61.1135 77.6336 61.2164L77.4372 61.5204H77.4418Z"
    fill="#117D6F"
  />
  <path
    d="M61.6233 28.1198C61.614 28.218 61.5532 28.4192 61.4549 28.4332C61.3286 28.4519 61.1041 28.4613 61.0059 28.4846C61.1322 28.2929 61.3707 28.2134 61.628 28.1245L61.6233 28.1198Z"
    fill="#1A4D3C"
  />
  <path
    d="M49.7477 29.626L49.3408 29.4669L49.5279 29.2611C49.57 29.219 49.6869 29.2705 49.6962 29.3313L49.7477 29.6213V29.626Z"
    fill="#1A4D3C"
  />
  <path
    d="M77.4652 71.455L77.4418 71.8619L77.1706 71.8011C77.1051 71.787 76.9788 71.5438 77.0489 71.5345L77.4699 71.455H77.4652Z"
    fill="#1A4D3C"
  />
  <path
    d="M77.2501 59.7804L77.208 59.4202L77.6383 59.4904C77.7038 59.4997 77.5962 59.743 77.5307 59.7476L77.2548 59.7757L77.2501 59.7804Z"
    fill="#1A4D3C"
  />
  <path
    d="M79.1911 59.8085L78.7561 59.7991L78.859 59.4063C78.8777 59.3314 79.1677 59.4484 79.1724 59.5232L79.1911 59.8085Z"
    fill="#1A4D3C"
  />
  <path
    d="M77.4609 61.7124L77.2127 61.5204H77.4422L77.4609 61.7124Z"
    fill="#117D6F"
  />
  <path
    d="M68.6813 29.2191L67.8628 29.3407L69.874 32.8533C70.9732 34.771 71.6888 36.7401 72.2688 38.7654L72.0349 39.4436L71.1462 39.7102L70.8235 41.3519C70.627 42.3622 72.6383 41.9974 71.3941 44.888C71.7589 46.2023 71.1602 47.2126 70.0938 47.9095C68.9526 48.6579 67.9049 49.5933 66.366 49.2612L64.6541 51.6046C64.4483 51.8899 63.6953 52.2781 63.3679 52.4137L61.5718 53.1714L59.0788 53.2697C58.714 53.2837 58.0826 53.0873 57.6101 53.2463C55.641 53.9058 53.7794 53.0592 51.8571 53.0124C51.4782 53.0031 51.2865 53.8029 48.7747 51.932C48.3865 51.642 47.3528 51.4175 47.2079 50.9731L46.8664 49.9441C46.5671 49.0461 43.3117 51.3192 41.7728 50.0096L39.3453 48.3913C38.9244 48.0311 39.6026 46.0994 40.0095 45.7018C41.2911 45.8889 42.4931 46.3099 44.2471 46.8945C44.8832 47.1097 45.4492 47.3903 45.9169 47.0068C47.0816 47.2406 48.2369 46.7121 49.0647 45.7018C49.8926 44.6915 49.9487 43.1387 49.6868 41.8711C49.8178 41.7776 49.9441 41.4361 49.9254 41.2584C49.8833 40.8749 49.6026 40.033 49.3267 39.5605L48.9618 38.9291C48.6578 38.2743 48.1761 37.7224 47.6241 37.2266C47.9703 35.6363 44.7757 35.7158 43.8496 35.7064L43.8262 34.7476L46.3098 34.7804C46.5671 34.7804 47.1517 34.3126 47.0675 34.0928C46.9974 33.9057 46.8337 33.6438 46.6934 33.4473C46.843 33.031 46.8711 32.5353 46.829 32.0862L47.4043 31.4969C47.554 31.3425 48.2135 31.6512 48.148 31.857C48.0357 32.2032 48.0264 32.8627 48.2509 32.8954L49.1676 32.2265C49.2752 32.5165 49.8599 33.2415 50.1031 33.0731L51.8337 31.8711C54.5231 32.4277 57.2781 32.0909 60.0189 31.4595C62.9843 30.7766 65.468 29.5886 68.6766 29.205C68.5363 28.742 67.8066 28.1947 67.6944 27.8954C67.989 28.3257 68.4615 28.7046 68.6766 29.205L68.6813 29.2191ZM68.555 33.8496C68.8731 32.3762 65.5101 30.2855 63.2276 31.0572C62.7505 31.2163 62.3623 31.8009 62.4277 32.1704C62.4932 32.5399 63.0171 32.8954 63.3959 32.9235C66.0667 33.1106 68.4334 34.4202 68.555 33.8496ZM62.2313 36.9413C60.7018 38.6578 60.772 41.2023 61.5671 43.1901C61.3941 44.6073 62.844 46.0339 64.2753 46.0245H64.612C65.6972 46.0105 66.193 45.0517 67.1191 45.2996C67.4652 45.3884 67.802 45.3931 68.2744 45.365L66.7917 45.4913L68.6766 44.5231C68.7748 44.2659 68.9713 43.9432 69.1818 43.7607C70.4914 42.6242 70.3604 40.3042 69.8085 38.597C70.6551 37.8627 68.3913 35.7579 67.4745 35.2902C64.1677 33.6064 61.8618 36.4969 61.9179 36.5671L62.2266 36.9366L62.2313 36.9413ZM59.0507 51.9787C60.4446 51.4409 61.9553 50.6597 62.0863 49.1443C58.4848 51.6467 54.191 51.8852 50.5568 49.7851L50.7907 48.7608C50.0797 48.4942 49.308 48.7327 48.8075 49.2285C48.307 49.7243 48.0264 50.2902 48.162 51.1368L49.5605 50.7065C52.3903 52.5026 55.8047 53.2369 59.0461 51.9834L59.0507 51.9787Z"
    fill="#9DCA87"
  />
  <path
    d="M67.2361 27.2733C70.9779 30.0095 74.4484 39.4529 75.0004 43.5689L74.4344 42.6475H73.5036C73.209 41.3285 72.629 40.0563 72.2641 38.77C71.6888 36.7401 70.9685 34.7756 69.8694 32.8579L66.5906 27.5258L67.2314 27.2733H67.2361Z"
    fill="#117D6F"
  />
  <path
    d="M69.4063 27.5399L68.658 26.2957L71.9835 24.8645C72.8208 24.5043 73.7889 24.3593 74.7805 24.5137C72.8114 25.2387 71.2632 26.0899 69.4016 27.5399H69.4063Z"
    fill="#277369"
  />
  <path
    d="M66.9695 25.6269L66.1696 26.001L66.3895 25.5333C66.4596 25.3836 66.9695 25.5099 66.9695 25.6269Z"
    fill="#117D6F"
  />
  <path
    d="M92.3858 49.9769L92.1145 51.7449C92.0397 52.236 92.9518 52.9329 92.7413 53.4708C92.4747 53.4989 92.2735 53.3164 91.9695 52.9844C88.5457 53.6813 89.8835 53.6251 88.3446 55.6177L88.1388 55.6083C88.2932 54.9535 88.485 54.3127 88.672 53.6859C89.2661 53.5503 89.556 52.7832 89.9957 52.3062C90.8376 51.3894 91.1791 50.5475 91.5486 49.149C91.9461 49.3361 92.1987 49.6307 92.3811 49.9815L92.3858 49.9769Z"
    fill="#117D6F"
  />
  <path
    d="M101.385 54.4343C100.492 57.1518 96.6749 59.0133 93.8498 59.3828L93.8872 58.438C96.4317 57.6756 98.9902 56.5531 100.922 54.6447C101.011 54.5559 101.338 54.4249 101.385 54.4343Z"
    fill="#117D6F"
  />
  <path
    d="M92.3858 49.9769C92.2033 49.6261 91.9508 49.3361 91.5532 49.1444C91.1837 50.5429 90.8376 51.3848 90.0003 52.3015C89.5607 52.7833 89.2707 53.5504 88.6767 53.6813C88.803 53.2604 88.8404 52.6804 89.1631 52.2314C90.9405 49.7945 90.454 48.2042 91.2959 48.1668C91.4737 48.1574 91.9554 48.3071 92.077 48.4615C92.3343 48.7795 92.4559 49.5466 92.3904 49.9769H92.3858Z"
    fill="#117D6F"
  />
  <path
    d="M101.895 51.3893C101.895 52.8487 101.371 51.8945 99.6216 53.1199L97.9518 54.2893L97.5121 53.1012L98.9153 52.3856C99.8929 51.8851 100.866 51.511 101.899 51.3893H101.895Z"
    fill="#117D6F"
  />
  <path
    d="M99.3971 50.0423C99.3691 49.9254 98.7844 49.8833 98.616 49.9815L96.2961 51.3239C96.1464 51.4128 95.9359 51.815 95.9359 51.9366L95.3934 51.9974L94.2661 51.7729L97.9986 49.6073C98.5412 49.2939 99.4673 49.1536 99.9678 49.5325C100.052 49.7196 99.5889 50.0142 99.3971 50.0423Z"
    fill="#117D6F"
  />
  <path
    d="M101.895 51.3893C100.861 51.5156 99.8881 51.8898 98.9106 52.3856L97.5074 53.1012L97.4185 52.7504C97.3904 52.9235 101.89 48.9197 101.895 51.3846V51.3893Z"
    fill="#117D6F"
  />
  <path
    d="M99.3971 50.0422L96.717 52.119L95.9359 51.9412C95.9359 51.8196 96.1464 51.4174 96.2961 51.3285L98.616 49.9861C98.7844 49.8879 99.3691 49.93 99.3971 50.0469V50.0422Z"
    fill="#117D6F"
  />
  <path
    d="M94.2661 51.7682L95.3933 51.9928L96.0341 52.9189L95.2016 52.3576C95.094 52.2827 93.6347 52.3295 93.2652 52.9329C93.2418 52.6803 93.0781 52.1565 93.2792 52.0302C93.4803 51.9039 94.0369 51.7215 94.2708 51.7682H94.2661Z"
    fill="#117D6F"
  />
  <path
    d="M79.3502 69.9349L78.0172 69.9676L77.7927 69.6028L78.9901 69.5607C79.0836 69.5607 79.3456 69.5607 79.3456 69.6355V69.9349H79.3502Z"
    fill="#154939"
  />
  <path
    d="M80.0192 97.8164C80.0709 97.8164 80.1129 97.7745 80.1129 97.7227C80.1129 97.671 80.0709 97.6291 80.0192 97.6291C79.9675 97.6291 79.9256 97.671 79.9256 97.7227C79.9256 97.7745 79.9675 97.8164 80.0192 97.8164Z"
    fill="#D2EACD"
  />
  <path
    d="M47.0628 37.2593L47.147 37.6288C47.1704 37.7224 47.423 37.8486 47.4324 37.7551L47.4698 37.2733L47.6288 37.2406C48.1807 37.7364 48.6625 38.2883 48.9665 38.9431C48.5689 38.7981 47.409 37.4745 46.3753 38.1573C46.0759 38.3538 45.9497 39.2846 45.9824 39.5371C46.8758 39.902 47.6803 40.0329 48.0404 40.9918C47.6335 41.3613 46.7869 41.6419 46.2022 41.7635C46.118 42.0582 46.0105 42.6101 45.814 42.7879C45.6176 42.9656 45.0002 42.9516 44.7289 42.8908L43.2883 42.5914C42.9749 43.901 43.8496 44.3688 44.5792 44.9254C45.3089 45.482 46.0947 45.8374 47.1377 45.3136C47.8673 44.9488 48.6999 44.1957 48.5643 43.2135L49.205 43.1574C49.205 43.6812 48.9291 44.2378 48.5783 44.7196C47.4885 46.221 45.4445 46.5297 44.046 45.2154C42.8439 44.0835 42.3575 42.3248 42.6849 40.7205C42.9188 39.5746 43.8308 38.5923 44.9347 38.0544C42.0394 37.9515 39.8224 40.959 40.5801 43.7514C40.7438 44.3594 40.7064 45.1452 41.1788 45.655C41.2396 45.7907 41.1133 45.772 40.8374 45.6831C39.7803 44.3173 38.9057 42.0722 39.6447 40.2995C41.5483 35.7392 46.8009 36.0853 47.0675 37.2546L47.0628 37.2593ZM43.7092 41.249L43.452 42.0442H45.1311C45.234 42.0442 45.1919 41.5998 45.1358 41.4969C45.6597 41.0666 45.9309 40.3978 45.5427 39.6026C45.365 39.2378 44.4295 39.2238 44.06 39.4857C43.5549 39.8412 43.5175 40.5568 43.7092 41.2537V41.249Z"
    fill="#154939"
  />
  <path
    d="M42.685 40.7252C42.3622 42.3295 42.844 44.0881 44.0461 45.22C45.4446 46.5343 47.4885 46.221 48.5784 44.7242C48.9292 44.2425 49.2051 43.6812 49.2051 43.162V42.8533L49.5138 41.8851H49.6869C49.8178 42.5212 49.8786 43.2135 49.7991 43.8823C49.7664 44.1489 49.612 44.9721 49.0648 45.7158C48.1293 46.9927 46.4221 47.4838 45.0891 47.3856C45.0891 47.3856 44.4904 47.3435 41.5063 46.0292L41.1695 45.6644C40.6971 45.1499 40.7345 44.3688 40.5708 43.7607L41.1555 42.0442C41.3894 41.3519 42.0255 40.786 42.6803 40.7298L42.685 40.7252Z"
    fill="#FBFCF8"
  />
  <path
    d="M46.8384 32.1002C46.8852 32.5446 46.8525 33.045 46.7028 33.4613C46.1742 33.625 45.6317 33.7373 44.9769 33.8402C42.4277 34.2518 41.497 35.393 40.5288 35.2621C40.3323 35.234 40.2996 34.5792 40.4072 34.3921C41.6279 32.292 44.8365 30.8561 46.8384 32.1002Z"
    fill="#154939"
  />
  <path
    d="M47.6288 37.2405L47.4698 37.2733L47.0676 37.2592C46.801 36.0899 41.5484 35.7438 39.6447 40.3041C38.8449 38.6811 42.1658 35.9449 43.8543 35.7204C44.7804 35.7298 47.975 35.6502 47.6288 37.2405Z"
    fill="#6FAA74"
  />
  <path
    d="M59.0882 53.7748C59.0508 55.3978 55.0564 55.7112 54.4062 54.5091C56.1836 54.4623 57.6055 54.4764 59.0882 53.7748Z"
    fill="#6FAA74"
  />
  <path
    d="M71.7215 78.7702C70.6224 78.8919 69.5512 79.1678 68.541 79.7104C66.7963 80.6458 65.1265 81.5065 63.3071 82.3343C62.5587 82.6758 61.5905 82.8161 60.786 83.0827C57.7317 84.0883 52.568 84.4298 49.4716 83.3867C51.1648 81.7356 51.1368 80.3465 52.423 79.818C53.6204 80.0986 54.9067 80.15 56.1976 80.2904C57.1424 80.3933 57.8253 80.4915 58.7935 80.1641C59.2378 80.0144 60.0891 80.1641 60.5896 80.122L63.7514 79.8647C64.467 79.8039 65.3651 79.4484 66.1181 79.2614C70.8702 78.0686 71.2678 75.9826 73.1621 74.9957L73.714 74.7057C74.6261 74.2286 71.9788 78.9714 71.7168 78.7702H71.7215Z"
    fill="#117D6F"
  />
  <path
    d="M71.497 79.3084L71.6984 79.0789C71.6937 79.1585 71.5251 79.3084 71.497 79.3084Z"
    fill="#377A65"
  />
  <path
    d="M40.7298 87.6805C40.9262 88.7048 41.1741 89.8508 41.8804 90.5898L42.2359 91.8994C42.6521 93.0968 43.1199 94.4298 42.1423 95.6833C42.5773 94.1352 41.7401 93.1342 41.3706 91.9088L40.22 88.064C40.1498 87.8302 40.3135 87.0163 40.2621 86.9836L40.7251 87.6805H40.7298Z"
    fill="#1A4D3C"
  />
  <path
    d="M44.9955 68.2092C44.9861 68.1436 44.9674 68.0687 44.9768 68.0172C45.0002 68.05 45.0002 68.1155 44.9955 68.2092Z"
    fill="#D2EACD"
  />
  <path
    d="M38.1012 100.047L39.4202 98.1716L41.9506 96.5954C42.2359 97.1052 38.2462 100.304 38.1012 100.052V100.047Z"
    fill="#154939"
  />
  <path
    d="M42.1939 96.0997C42.2456 96.0997 42.2876 96.0578 42.2876 96.0061C42.2876 95.9543 42.2456 95.9124 42.1939 95.9124C42.1422 95.9124 42.1003 95.9543 42.1003 96.0061C42.1003 96.0578 42.1422 96.0997 42.1939 96.0997Z"
    fill="#154939"
  />
  <path
    d="M42.0022 96.4786C42.0539 96.4786 42.0958 96.4367 42.0958 96.385C42.0958 96.3333 42.0539 96.2913 42.0022 96.2913C41.9505 96.2913 41.9085 96.3333 41.9085 96.385C41.9085 96.4367 41.9505 96.4786 42.0022 96.4786Z"
    fill="#154939"
  />
  <path
    d="M46.0245 95.0051C46.0853 96.3194 45.6129 97.8021 44.4202 98.7843C45.7532 96.3849 45.4866 93.7937 44.0226 91.5252L44.3313 91.3662C44.5839 91.2352 45.959 93.5271 46.0292 95.0004L46.0245 95.0051Z"
    fill="#1A4D3C"
  />
  <path
    d="M88.5458 60.9357C88.2886 61.5485 87.746 61.9647 87.1754 62.4979C86.4551 63.1715 85.5009 63.6439 84.5748 64.0415C84.383 64.1256 84.0884 64.6635 83.8872 64.6074C83.7188 64.5606 83.3213 64.3127 83.1155 64.3455L80.1688 64.8226L80.3091 63.237C80.7722 63.3539 82.0304 62.6757 83.0594 62.4091L85.3185 61.8244L86.8433 61.4222L88.5458 60.9357Z"
    fill="#117D6F"
  />
  <path
    d="M95.1828 55.7673C93.7703 55.6176 92.6805 55.5615 91.4082 55.7018C92.4559 54.6634 94.093 54.9067 95.1828 55.7673Z"
    fill="#117D6F"
  />
  <path
    d="M63.1387 90.2202L62.2126 93.513C62.0957 93.934 62.0255 94.5701 61.9788 94.9723C61.2491 93.9527 62.063 92.0069 62.3576 90.9639C62.5728 90.7113 62.8721 90.3886 63.1434 90.2249L63.1387 90.2202Z"
    fill="#1A4D3C"
  />
  <path
    d="M59.5653 92.3063C59.5933 95.3044 57.83 96.5673 58.1013 99.7198C57.7177 99.1866 57.5213 98.6019 57.5821 97.8208C57.6756 95.9686 58.6251 95.1594 58.7795 93.036L58.8496 92.0724C58.8777 91.6608 58.9291 91.2539 58.9946 90.7815C59.2379 91.2773 59.5653 91.9181 59.5653 92.311V92.3063Z"
    fill="#154939"
  />
  <path
    d="M57.5821 97.8208C57.4886 97.6992 57.3669 97.2923 57.3997 97.0911L57.8721 94.1819C57.9329 93.803 58.4614 93.2371 58.7842 93.0312C58.6298 95.1547 57.6803 95.9639 57.5868 97.8161L57.5821 97.8208Z"
    fill="#117D6F"
  />
  <path
    d="M69.8085 38.597C70.3605 40.3043 70.4914 42.6242 69.1818 43.7608L69.0742 43.41C69.1584 43.1293 69.2005 42.699 69.266 42.4044C69.7758 40.1078 67.6009 36.2724 64.5981 37.1003C65.5335 37.554 66.352 38.0592 66.9367 38.8262L67.2875 39.9347C66.2585 39.9815 66.7403 41.1836 66.2024 42.0395L65.9404 42.0068C66.469 40.7346 66.3567 38.9993 65.6738 37.7037C65.295 37.7224 64.9068 38.2275 65.0003 38.4988C65.0892 38.7514 65.2763 39.0788 65.5101 39.4951C65.5335 39.9347 65.0003 40.8842 64.6589 41.2116C63.7515 41.2537 63.0031 41.3987 62.1472 41.7074C61.3754 41.9834 61.9226 42.7645 62.1238 43.1855C62.54 44.0554 63.3633 44.4904 64.4671 44.4624C65.5195 44.4343 66.5111 43.8262 66.5625 42.7926L67.0817 43.0171C66.5391 44.6167 64.9255 45.4446 63.3025 44.9254C62.5915 44.5091 62.0209 43.9011 61.5672 43.2042C60.772 41.2116 60.7019 38.6672 62.2313 36.9553C63.6626 35.351 66.2865 35.2247 67.9517 36.4548C68.6392 36.9647 69.5607 37.8487 69.8132 38.6111L69.8085 38.597ZM62.8066 38.5409C62.3109 38.7514 62.0489 39.5372 62.2454 39.9488C62.4886 40.4586 63.1902 40.6457 63.6953 40.4072C64.1537 40.1873 64.3221 39.5185 64.121 38.9853C63.9666 38.583 63.3118 38.3304 62.8066 38.5456V38.5409Z"
    fill="#154939"
  />
  <path
    d="M59.0508 51.9787C55.8095 53.2322 52.3951 52.4979 49.5653 50.7018L48.1668 51.1321C48.0311 50.2855 48.3211 49.7102 48.8123 49.2238C49.3034 48.7373 50.0845 48.4894 50.7954 48.756L50.5616 49.7804C54.1958 51.8805 58.4896 51.6419 62.0911 49.1396C61.9601 50.655 60.4493 51.4361 59.0555 51.974L59.0508 51.9787Z"
    fill="#154939"
  />
  <path
    d="M48.9665 38.9431L49.3314 39.5745L48.9619 42.2312C48.9431 42.3762 49.1536 42.8299 49.2051 42.8486V43.1573L48.5643 43.2135L47.7504 42.8814C47.1705 44.0554 46.1742 44.4249 44.9394 43.8589L44.5746 44.9253C43.8449 44.3688 42.9702 43.8963 43.2836 42.5914L44.7242 42.8907C45.0002 42.9469 45.6176 42.9656 45.8094 42.7878C46.0011 42.6101 46.1134 42.0582 46.1976 41.7635C46.7822 41.6466 47.6288 41.3613 48.0358 40.9917C47.6709 40.0329 46.8711 39.8973 45.9777 39.5371C45.9403 39.2845 46.0713 38.3538 46.3706 38.1573C47.4043 37.4791 48.5643 38.7981 48.9619 38.9431H48.9665Z"
    fill="#1A4D3C"
  />
  <path
    d="M68.555 33.8495C68.4334 34.4202 66.0667 33.1105 63.396 32.9234C63.0171 32.8954 62.4933 32.5259 62.4278 32.1704C62.3623 31.8149 62.7505 31.2209 63.2276 31.0572C65.5148 30.2854 68.8731 32.3762 68.555 33.8495Z"
    fill="#154939"
  />
  <path
    d="M69.2613 42.4043C69.1958 42.699 69.3642 43.9619 69.0555 44.1022C68.8871 44.3594 67.7739 45.5147 67.1237 45.8609C66.221 46.3473 65.3557 46.2491 65.0657 46.2023C64.0367 46.0947 63.3258 45.8796 63.2977 44.9114C64.9207 45.4352 66.5344 44.6073 67.077 43.003C67.4091 42.0255 67.5962 40.9357 67.2828 39.93L66.932 38.8215C68.2463 39.4997 68.686 41.076 69.2613 42.3997V42.4043Z"
    fill="#FBFCF8"
  />
  <path
    d="M69.8086 38.597C69.5607 37.8299 68.6393 36.9506 67.947 36.4408C66.2819 35.2106 63.6626 35.3369 62.2267 36.9412L61.918 36.5717C61.8572 36.5016 64.1678 33.611 67.4746 35.2948C68.3914 35.7625 70.6552 37.8673 69.8086 38.6017V38.597Z"
    fill="#6FAA74"
  />
  <path
    d="M63.2977 44.9113C63.3258 45.8795 64.2145 45.4446 64.2706 46.0199C62.8393 46.0339 61.3894 44.6026 61.5624 43.1854C62.0161 43.8823 62.5821 44.4904 63.2977 44.9067V44.9113Z"
    fill="#E7F4E3"
  />
  <path
    d="M49.9301 41.2724C49.743 41.4081 49.5933 41.6466 49.5185 41.8805L49.2098 42.8487C49.1536 42.83 48.9432 42.3763 48.9666 42.2313L49.3361 39.5746C49.612 40.047 49.888 40.8889 49.9348 41.2724H49.9301Z"
    fill="#154939"
  />
  <path
    d="M49.6915 41.8805H49.5185C49.5933 41.6419 49.743 41.4034 49.9301 41.2678C49.9488 41.4455 49.8225 41.7869 49.6915 41.8805Z"
    fill="#1A4D3C"
  />
  <path
    d="M42.6849 40.7251C42.0301 40.7813 41.394 41.3472 41.1601 42.0395L40.5755 43.756C39.8224 40.9637 42.0348 37.9562 44.93 38.0591C43.8309 38.597 42.9141 39.5839 42.6803 40.7251H42.6849Z"
    fill="#D2EACD"
  />
  <path
    d="M45.1406 41.4969C44.6541 41.5764 44.1677 41.4688 43.7093 41.249C43.5175 40.5567 43.555 39.8364 44.0601 39.481C44.4343 39.219 45.3651 39.2331 45.5428 39.5979C45.9263 40.393 45.6597 41.0619 45.1359 41.4922L45.1406 41.4969Z"
    fill="#E7F4E3"
  />
  <path
    d="M45.1405 41.4969C45.192 41.5998 45.2387 42.0488 45.1358 42.0488H43.4567L43.7139 41.249C44.1676 41.4689 44.6541 41.5718 45.1452 41.4969H45.1405Z"
    fill="#1A4D3C"
  />
  <path
    d="M47.4698 37.2686L47.4323 37.7504C47.4277 37.8439 47.1704 37.7176 47.147 37.6241L47.0628 37.2546L47.4651 37.2686H47.4698Z"
    fill="#1A4D3C"
  />
  <path
    d="M65.9311 42.0021C65.73 42.4839 65.1359 42.9188 64.7477 43.1153C64.2753 43.3585 63.4708 43.1013 63.0171 42.8019L62.1191 43.1714C61.918 42.7505 61.3707 41.974 62.1425 41.6934C62.9937 41.3847 63.7468 41.2397 64.6542 41.1976C64.9909 40.8702 65.5241 39.9254 65.5054 39.481C65.2716 39.0648 65.0798 38.7373 64.9956 38.4848C64.9021 38.2135 65.2903 37.7083 65.6691 37.6896C66.352 38.9852 66.4643 40.7205 65.9357 41.9927L65.9311 42.0021Z"
    fill="#1A4D3C"
  />
  <path
    d="M65.9311 42.002L66.193 42.0347L66.5579 42.7784C66.5064 43.8074 65.5148 44.4202 64.4624 44.4482C63.3586 44.4763 62.5354 44.046 62.1191 43.1713L63.0172 42.8018C63.4709 43.1012 64.2707 43.3584 64.7478 43.1152C65.136 42.9188 65.73 42.4838 65.9311 42.002Z"
    fill="#377A65"
  />
  <path
    d="M69.2613 42.4043C68.686 41.0807 68.2463 39.4997 66.932 38.8262C66.3473 38.0591 65.5288 37.5493 64.5933 37.1003C67.5961 36.2724 69.7711 40.1078 69.2613 42.4043Z"
    fill="#D2EACD"
  />
  <path
    d="M62.8066 38.5409C63.3164 38.3257 63.9713 38.5783 64.121 38.9805C64.3221 39.5184 64.1537 40.1873 63.6953 40.4024C63.1902 40.6456 62.4886 40.4539 62.2454 39.944C62.0489 39.5324 62.3108 38.7467 62.8066 38.5362V38.5409Z"
    fill="#E7F4E3"
  />
  <path
    d="M67.2827 39.9347C67.6008 40.9403 67.409 42.0301 67.0769 43.0077L66.5578 42.7832L66.1929 42.0395C66.7355 41.1835 66.2537 39.9815 67.2781 39.9347H67.2827Z"
    fill="#1A4D3C"
  />
  <path
    d="M48.5643 43.2088C48.6999 44.191 47.8674 44.9487 47.1377 45.3089C46.09 45.8327 45.3183 45.4913 44.5793 44.9207L44.9441 43.8543C46.1789 44.4202 47.1751 44.0507 47.7551 42.8767L48.569 43.2088H48.5643Z"
    fill="#377A65"
  />
  <path
    d="M56.8197 70.875C56.3379 70.9124 56.2397 71.5859 56.2678 72.049C55.9825 72.5495 55.6784 72.9564 55.2809 73.3867C54.7102 73.3961 53.9993 73.8919 53.9712 74.4765C53.6391 74.701 53.3351 74.9302 52.9656 75.1079L52.6569 75.1266C52.3201 75.1454 51.9787 75.1313 51.684 75.0705L51.7261 74.1725L52.699 73.9106C53.3679 73.7328 54.2238 72.9985 54.3127 72.4466C54.3407 72.2875 54.5839 72.0256 54.6681 71.9087C53.9338 72.1098 52.9796 71.9788 52.3716 71.5392C51.235 70.7253 50.3323 71.1276 49.1676 71.4737C47.1143 72.0911 45.1124 70.2015 44.9908 68.2089C44.9955 68.1154 44.9908 68.0499 44.9721 68.0172C45.0049 67.774 45.1124 67.3343 45.1311 67.1004L45.6877 66.7029L45.8094 66.8245C47.54 65.3745 49.1068 67.0677 51.6186 64.5419C52.2827 63.8731 53.0124 63.2978 53.859 62.6289C51.1929 60.9451 47.7177 61.0059 45.3136 63.0078C43.756 64.3034 42.7598 66.2725 43.0404 68.1762C42.5165 68.1622 41.988 68.2464 41.2864 68.4101C41.0198 64.8366 43.2743 61.4503 46.5156 60.2669C49.9628 59.0087 53.8543 60.0798 55.9591 63.092C57.5914 65.426 57.9609 68.4241 56.815 70.8844L56.8197 70.875Z"
    fill="#FBFCF8"
  />
  <path
    d="M45.4399 66.7402C46.1041 65.1733 47.381 63.99 48.9151 63.3726C46.6186 62.7926 45.0096 65.6738 44.888 67.1378C44.8693 67.3717 44.7617 67.8113 44.7289 68.0546C44.7243 68.106 44.7383 68.1808 44.7476 68.2463C44.8693 70.2388 46.8665 72.1238 48.9245 71.5111C50.0844 71.165 50.9872 70.758 52.1284 71.5766C52.7365 72.0115 53.6906 72.1472 54.425 71.9461C54.3361 72.063 54.0929 72.3249 54.0695 72.4839C53.2182 73.0218 52.4137 73.6252 51.4315 73.7889C49.2145 71.5391 48.6111 72.7131 45.641 73.2604L43.728 71.6701C44.191 70.4072 43.8449 68.9432 42.8019 68.2136C42.5213 66.3099 43.5175 64.3455 45.0751 63.0452C47.4792 61.0433 50.9497 60.9825 53.6205 62.6663C52.7739 63.3399 52.0442 63.9152 51.38 64.5793C48.8637 67.1051 47.3014 65.4072 45.5708 66.8618L45.4492 66.7402H45.4399Z"
    fill="#277369"
  />
</svg>
