<svg width="67" height="67" viewBox="0 0 67 67" fill="none" xmlns="http://www.w3.org/2000/svg">
<path d="M35.3689 59.6066C35.3689 63.5556 32.2004 66.7594 28.2951 66.7594C24.3897 66.7594 21.2212 63.5556 21.2212 59.6066C21.2212 55.6577 24.3897 52.4539 28.2951 52.4539C32.2004 52.4539 35.3689 55.6577 35.3689 59.6066Z" fill="currentColor"/>
<path d="M20.8025 30.9956L22.9246 45.3012H25.9369V30.9956H20.8025Z" fill="currentColor"/>
<path d="M56.5906 28.6113H63.8914L66.0165 16.69C66.0696 16.0253 65.8485 15.3667 65.4005 14.8779C64.9525 14.3862 64.3247 14.109 63.6644 14.109H56.5906L56.5906 28.6113Z" fill="currentColor"/>
<path d="M42.4429 14.1089H54.2326V28.6113H42.4429V14.1089Z" fill="currentColor"/>
<path d="M20.4493 28.6113H25.9374V14.1089H18.2976L20.4493 28.6113Z" fill="currentColor"/>
<path d="M28.2952 14.1089H40.0849V28.6113H28.2952V14.1089Z" fill="currentColor"/>
<path d="M35.4104 47.6853H20.8944L14.1212 2.02963C13.9473 0.86436 12.9569 0 11.7898 0H2.35795C1.05516 0 0 1.06693 0 2.38426C0 3.70159 1.05516 4.76852 2.35795 4.76852H9.75899L16.5322 50.4242C16.7061 51.5895 17.6965 52.4539 18.8636 52.4539H22.1235C23.7829 50.9875 25.9257 50.0696 28.2955 50.0696C30.6652 50.0696 32.808 50.9875 34.4674 52.4539H36.6957L35.4104 47.6853Z" fill="currentColor"/>
<path d="M61.8844 39.8681L63.4672 30.9956H56.5908V38.4076L61.8844 39.8681Z" fill="currentColor"/>
<path d="M54.2326 37.7577V30.9954H42.4429V34.5062L54.2326 37.7577Z" fill="currentColor"/>
<path d="M33.1763 39.4003C32.7313 37.7582 33.197 35.9849 34.3907 34.7749C35.2897 33.8748 36.4716 33.3801 37.7272 33.3801C38.1458 33.3801 38.5614 33.4367 38.9651 33.547L40.0852 33.857V30.9958H28.2954V45.3014H34.768L33.1763 39.4003Z" fill="currentColor"/>
<path d="M65.3327 57.9198L58.2146 50.7223L64.7196 47.4321C65.595 46.991 66.1078 46.0492 66.0105 45.0627C65.9133 44.0791 65.2265 43.2596 64.2833 42.9973L38.3458 35.8446C37.5294 35.621 36.6599 35.8535 36.0586 36.4585C35.4603 37.0635 35.2274 37.9457 35.4515 38.7712L42.5253 64.9981C42.7847 65.9518 43.5953 66.6462 44.5679 66.7446C44.6475 66.7535 44.7241 66.7595 44.8007 66.7595C45.6879 66.7595 46.5073 66.2528 46.9111 65.4421L50.1651 58.8645L57.2832 66.062C58.2028 66.9919 59.6971 66.9919 60.6168 66.062L65.3327 61.2935C66.2523 60.3606 66.2523 58.8527 65.3327 57.9198Z" fill="currentColor"/>
</svg>
