<svg
  width="65"
  height="55"
  viewBox="0 0 65 55"
  fill="none"
  xmlns="http://www.w3.org/2000/svg"
>
  <path
    d="M11.6473 19.0014C12.0883 18.7879 12.6075 18.8164 13.0235 19.0762C13.4396 19.3359 13.6921 19.7914 13.6921 20.2824V55H51.3052V20.2824C51.3052 19.7914 51.5577 19.3359 51.9738 19.0762C52.3899 18.8165 52.909 18.7879 53.35 19.0014L58.8229 21.6524L65 10.3616L52.3503 0H42.571C42.9124 1.84314 43.044 4.67553 41.4437 6.99908C39.7901 9.40089 36.7816 10.6179 32.5 10.6179C28.2184 10.6179 25.2099 9.40098 23.5563 6.99908C21.956 4.67553 22.0876 1.84678 22.429 0H12.6497L0 10.3616L6.17709 21.6524L11.65 19.0014H11.6473ZM24.2287 26.8296C28.2614 23.2785 34.6589 21.8908 43.2538 22.6949C43.8761 22.7554 44.3918 23.2144 44.5162 23.83C44.5767 24.1325 45.9635 31.2988 41.5006 35.8714C38.4956 38.9528 33.677 40.0203 27.1694 39.0596C26.1275 41.6536 26.5613 43.8988 26.5969 44.0696C26.7569 44.8346 26.2697 45.5925 25.5051 45.7562C25.402 45.7776 25.3024 45.7882 25.2029 45.7882C24.5485 45.7882 23.9653 45.3363 23.8196 44.6709C23.8053 44.6104 23.0479 40.9134 24.9967 37.0172C25.0429 36.8819 25.1105 36.7538 25.1923 36.6435C26.0635 35.0388 27.4113 33.4197 29.4739 32.0249C27.7313 31.8364 25.8252 31.8968 24.5414 32.6334C23.7342 33.096 23.2576 33.7756 23.0479 34.7648C22.895 35.4835 22.2015 35.9781 21.4831 35.8785C20.7541 35.7896 20.21 35.1562 20.2349 34.4196C20.242 34.2488 20.4198 30.1924 24.232 26.8334L24.2287 26.8296Z"
    fill="currentColor"
  />
</svg>
