<svg
  width="52"
  height="76"
  viewBox="0 0 52 76"
  fill="none"
  xmlns="http://www.w3.org/2000/svg"
>
  <path
    fill-rule="evenodd"
    clip-rule="evenodd"
    d="M25.6369 0H21.9142V9.4062L25.6369 11.6445L29.3596 9.4101V0.00390053L25.6369 0ZM26.7385 13.543V17.8086C26.7385 18.4141 26.2463 18.9102 25.6369 18.9102C25.0314 18.9102 24.5353 18.418 24.5353 17.8086V13.543L21.9923 12.0157H16.0118C15.9845 12.172 15.9571 12.3321 15.9337 12.4962C15.879 12.9102 15.8477 13.3516 15.8477 13.8126C15.8477 16.5157 16.9415 18.961 18.711 20.7306C20.4805 22.5002 22.9298 23.5939 25.629 23.5939C28.3321 23.5939 30.7774 22.4962 32.547 20.7306C34.3165 18.9611 35.4103 16.5118 35.4103 13.8126C35.4103 13.3516 35.383 12.9141 35.3244 12.4962C35.3049 12.336 35.2775 12.1759 35.2502 12.0196H29.2658L26.7385 13.543ZM51.2735 41.551H44.9141C44.918 47.0783 45.1289 53.141 51.2735 54.93V41.551ZM51.2735 57.196V74.329C51.2735 74.7665 51.0938 75.1649 50.8048 75.4501C50.5157 75.7392 50.1173 75.9188 49.6798 75.9188L1.59376 75.9228C1.15626 75.9228 0.757818 75.7431 0.472658 75.454C0.183598 75.1649 0.00390816 74.7665 0.00390816 74.3329L0 57.1959C8.5625 55.149 8.5586 47.5982 8.5508 40.9499V40.5476C8.55471 40.5163 8.55471 40.4851 8.55471 40.4499C8.55471 39.8444 8.06252 39.3483 7.45311 39.3483H7.62939e-06V16.5043C7.62939e-06 16.0668 0.179698 15.6684 0.468758 15.3832C0.757818 15.0942 1.15626 14.9145 1.58986 14.9145V14.9106H9.06646C9.33599 19.059 11.129 22.7934 13.8907 25.5556C15.7423 27.4111 18.0313 28.8251 20.5899 29.6415V49.7315C20.5899 50.3369 21.082 50.8331 21.6915 50.8331H29.5782C30.1836 50.8331 30.6798 50.3409 30.6798 49.7315C30.6798 49.7002 30.6798 49.669 30.6759 49.6338V29.6418C33.2345 28.8293 35.5275 27.4113 37.379 25.5559C40.1407 22.7942 41.9376 19.0637 42.2071 14.9149H49.6798C50.1173 14.9149 50.5157 15.0946 50.8048 15.3797C51.0938 15.6688 51.2735 16.0672 51.2735 16.5047V39.3527H43.8204C43.2149 39.3527 42.7188 39.8449 42.7188 40.4543C42.7188 40.4856 42.7227 40.5168 42.7227 40.552V40.9543C42.7149 47.6027 42.711 55.153 51.2735 57.196ZM0.000507355 54.9304C6.14501 53.1413 6.35601 47.0827 6.35991 41.5514H0.000507355V54.9304ZM13.6805 13.0324C13.661 13.2941 13.6532 13.5558 13.6532 13.8137C13.6532 17.1222 14.997 20.1184 17.1649 22.2903C19.3329 24.4583 22.329 25.802 25.6376 25.802C28.9462 25.802 31.9423 24.4582 34.1142 22.2903C36.2822 20.1223 37.6259 17.1262 37.6259 13.8137C37.6259 13.5519 37.618 13.2941 37.5985 13.0285L40.036 14.4347C39.8798 18.1652 38.3016 21.5285 35.829 23.9972C33.2235 26.6027 29.6181 28.216 25.641 28.216C21.6644 28.216 18.0629 26.6027 15.453 23.9972C12.9803 21.5245 11.4022 18.1613 11.2421 14.4386L13.6805 13.0324ZM22.7938 30.1774V48.6304H28.4813L28.4852 30.1774C27.5594 30.3376 26.6102 30.4196 25.6375 30.4196C24.6688 30.4196 23.7196 30.3337 22.7938 30.1774ZM25.6376 33.1891C24.7509 33.1891 24.0321 33.9079 24.0321 34.7946C24.0321 35.6814 24.7509 36.4001 25.6376 36.4001C26.5244 36.4001 27.2431 35.6814 27.2431 34.7946C27.2431 33.9079 26.5244 33.1891 25.6376 33.1891ZM25.6376 42.1461C24.7509 42.1461 24.0321 42.8649 24.0321 43.7516C24.0321 44.6383 24.7509 45.3571 25.6376 45.3571C26.5244 45.3571 27.2431 44.6384 27.2431 43.7516C27.2431 42.8649 26.5244 42.1461 25.6376 42.1461Z"
    fill="currentColor"
  />
</svg>
