<svg width="214" height="75" viewBox="0 0 214 75" fill="none" xmlns="http://www.w3.org/2000/svg">
<path d="M175.755 51.4C172.795 51.4 170.302 50.7733 168.275 49.52C166.249 48.24 164.942 46.4933 164.355 44.28L171.555 42.4C171.662 42.7733 172.075 43.1333 172.795 43.48C173.542 43.8 174.529 43.96 175.755 43.96C176.929 43.96 177.929 43.7733 178.755 43.4C179.582 43.0267 179.995 42.5733 179.995 42.04C179.995 41.6667 179.835 41.36 179.515 41.12C179.222 40.8533 178.849 40.6533 178.395 40.52C177.969 40.36 177.515 40.2533 177.035 40.2C176.555 40.1467 176.129 40.12 175.755 40.12C175.462 40.12 175.169 40.1333 174.875 40.16C174.582 40.1867 174.302 40.2267 174.035 40.28L172.555 33L175.995 30.44H175.635C173.875 30.44 172.449 30.4533 171.355 30.48C170.289 30.48 169.449 30.48 168.835 30.48C168.142 30.5067 167.649 30.5333 167.355 30.56H167.275L167.675 23H185.795V27.64L180.515 33.4C181.529 33.72 182.449 34.1467 183.275 34.68C184.129 35.2133 184.862 35.84 185.475 36.56C186.089 37.28 186.569 38.0933 186.915 39C187.262 39.9067 187.435 40.92 187.435 42.04C187.435 43.4 187.142 44.6533 186.555 45.8C185.969 46.9467 185.155 47.9333 184.115 48.76C183.075 49.5867 181.835 50.24 180.395 50.72C178.982 51.1733 177.435 51.4 175.755 51.4Z" fill="currentColor"/>
<circle cx="176.5" cy="37.5" r="33" stroke="currentColor" stroke-width="9"/>
<circle cx="20.5" cy="34.5" r="16" transform="rotate(-180 20.5 34.5)" fill="currentColor" stroke="currentColor" stroke-width="9"/>
<line x1="146" y1="36.5" x2="35" y2="36.5" stroke="currentColor" stroke-width="9"/>
</svg>
