<svg width="355" height="75" viewBox="0 0 355 75" fill="none" xmlns="http://www.w3.org/2000/svg">
<path d="M166.233 43.56C166.233 41.9333 166.54 40.5733 167.153 39.48C167.767 38.3867 168.513 37.4933 169.393 36.8C170.3 36.08 171.26 35.52 172.273 35.12C173.313 34.6933 174.247 34.3467 175.073 34.08C176.033 33.76 176.78 33.48 177.313 33.24C177.847 33 178.233 32.7867 178.473 32.6C178.74 32.3867 178.9 32.1867 178.953 32C179.033 31.7867 179.073 31.5467 179.073 31.28C179.073 30.96 178.833 30.68 178.353 30.44C177.873 30.2 177.287 30.08 176.593 30.08C174.94 30.08 173.527 30.28 172.353 30.68C171.207 31.0533 170.327 31.4533 169.713 31.88L165.273 25.92C166.713 24.88 168.407 24.08 170.353 23.52C172.327 22.9333 174.407 22.64 176.593 22.64C178.007 22.64 179.313 22.8667 180.513 23.32C181.74 23.7467 182.793 24.3467 183.673 25.12C184.553 25.8933 185.247 26.8133 185.753 27.88C186.26 28.92 186.513 30.0533 186.513 31.28C186.513 32.96 186.193 34.3733 185.553 35.52C184.94 36.64 184.167 37.5733 183.233 38.32C182.327 39.04 181.34 39.6133 180.273 40.04C179.233 40.4667 178.287 40.8267 177.433 41.12C176.527 41.4133 175.82 41.6667 175.313 41.88C174.807 42.0933 174.433 42.2933 174.193 42.48C173.953 42.64 173.807 42.8133 173.753 43C173.7 43.16 173.673 43.3467 173.673 43.56H176.313C178.287 43.56 179.86 43.56 181.033 43.56C182.233 43.5333 183.167 43.5067 183.833 43.48C184.58 43.48 185.113 43.4667 185.433 43.44H185.513L185.113 51H166.233V43.56Z" fill="currentColor"/>
<circle cx="176.5" cy="37.5" r="33" stroke="currentColor" stroke-width="9"/>
<circle cx="334.5" cy="37.5" r="16" stroke="currentColor" stroke-width="9"/>
<line x1="209" y1="37.5" x2="317" y2="37.5" stroke="currentColor" stroke-width="9"/>
<circle cx="20.5" cy="34.5" r="16" transform="rotate(-180 20.5 34.5)" fill="currentColor" stroke="currentColor" stroke-width="9"/>
<line x1="146" y1="36.5" x2="35" y2="36.5" stroke="currentColor" stroke-width="9"/>
</svg>
