<svg width="216" height="75" viewBox="0 0 216 75" fill="none" xmlns="http://www.w3.org/2000/svg">
<path d="M34.5916 50.92C34.6182 50.76 34.6582 50.3733 34.7116 49.76C34.7382 49.2267 34.7516 48.4267 34.7516 47.36C34.7782 46.2667 34.7916 44.76 34.7916 42.84V32.92C33.6716 33.2133 32.5249 33.36 31.3516 33.36V25.92C31.7249 25.92 32.1116 25.8933 32.5116 25.84C32.9382 25.7867 33.3116 25.6667 33.6316 25.48C33.9782 25.2667 34.2582 24.9733 34.4716 24.6C34.6849 24.2 34.7916 23.6667 34.7916 23H42.2316V42.64C42.2316 44.6133 42.2316 46.16 42.2316 47.28C42.2582 48.3733 42.2982 49.1867 42.3516 49.72C42.3782 50.36 42.4049 50.76 42.4316 50.92V51H34.5916V50.92Z" fill="currentColor"/>
<circle cx="37.5" cy="37.5" r="33" stroke="currentColor" stroke-width="9"/>
<circle cx="195.5" cy="37.5" r="16" stroke="currentColor" stroke-width="9"/>
<line x1="70" y1="37.5" x2="179" y2="37.5" stroke="currentColor" stroke-width="9"/>
</svg>
